<svg width="205" height="42" viewBox="0 0 205 42" fill="none" xmlns="http://www.w3.org/2000/svg">
<path d="M58.5569 36.1895C58.0192 35.7045 57.3217 35.7893 57.0468 34.8284C56.7725 33.8675 55.8803 29.8638 56.292 28.2624C56.7037 26.6611 56.635 25.7805 56.5663 24.6596C56.4976 23.5387 57.3898 17.8534 57.8015 17.6132C58.2132 17.373 59.0367 16.1718 59.1742 15.9316C61.3703 16.7326 67.8906 19.1343 70.4985 8.48501C72.0086 7.8446 72.6259 6.88366 73.45 7.12389C74.2735 7.36412 74.7565 8.16446 75.1657 7.28383C75.5749 6.40319 75.3032 5.04209 73.9992 4.64128C72.6953 4.2411 71.7344 3.60005 70.9796 3.12022C70.2249 2.63976 69.3327 2.88 68.9203 2.55947C68.5086 2.23895 68.3024 2.87999 68.0281 4.1608C67.7538 5.44161 65.9694 11.1269 63.0866 11.1269C60.2038 11.1269 58.4882 5.44162 55.8116 4.64128C53.135 3.84029 53.821 -0.350297 49.703 0.0235415C45.585 0.39738 44.7615 2.63976 43.1145 3.68034C41.4676 4.72092 37.2539 6.88301 37.2674 11.1269C37.2809 15.3708 38.0356 21.0555 36.9379 23.9383C35.8395 26.8211 36.8691 27.2212 37.2121 28.6626C37.5551 30.104 38.6535 35.0237 38.6535 36.0289C38.6535 37.0342 40.6441 37.6392 41.0559 37.0342C41.4676 36.4291 41.4676 35.9486 40.7128 35.7887C39.9581 35.6287 39.5464 34.4276 39.2715 33.2264C38.9972 32.0252 38.7223 26.5005 38.8597 25.2191C38.9972 23.9383 41.8793 33.2444 42.0855 34.4366C42.2911 35.6287 42.6347 36.1092 43.8012 36.0289C44.9677 35.9486 45.2426 34.6678 44.4872 34.4276C43.7325 34.1873 42.9771 32.9065 42.4279 30.5042C41.8787 28.1019 41.5357 23.8586 41.6731 22.8174C41.8106 21.7762 43.938 17.0524 43.1833 14.8903C46.8208 17.3723 47.3013 18.4135 54.4389 17.9331C54.7132 20.6553 54.7132 21.8565 54.5076 23.2176C54.3014 24.5787 54.1646 30.6641 54.3014 32.3458C54.4389 34.0274 53.4092 34.6678 53.821 35.2286C54.2327 35.7893 55.2624 35.9493 55.4679 36.0296C55.1255 36.67 60.067 37.5506 58.5569 36.1895Z" fill="#5C0000"/>
<path d="M75.1657 34.572C75.2653 32.1671 75.5582 24.6075 76.2455 23.8058C76.9328 23.0042 79.9762 14.9866 80.2704 11.6651C80.5646 8.34359 82.0374 5.70937 87.5352 4.33477C89.1057 1.47125 90.6768 1.35692 91.9531 0.440309C93.2295 -0.475659 93.8185 2.96019 95.0948 2.73088C96.3711 2.50156 100.494 2.61653 103.341 6.05238C106.188 9.48822 110.47 10.7665 112.864 7.42696C115.162 4.22107 115.023 5.02144 115.907 3.30384C116.791 1.58559 117.6 0.67926 118.418 1.4597C121.231 4.13951 124.218 3.27621 124.512 5.4518C124.747 6.21746 123.856 6.63048 123.561 7.31778C123.267 8.00507 120.012 7.47579 119.403 8.07702C115.858 11.5765 116.109 15.8358 109.136 16.1165C106.289 16.2308 105.697 14.6423 104.519 15.6733C103.341 16.7042 103.341 18.4224 103.341 18.4224C103.341 18.4224 107.563 24.4925 107.366 26.3251C107.169 28.1577 107.758 34.915 109.231 35.488C110.704 36.0603 109.82 37.2062 107.857 36.9769C105.893 36.7476 106.777 31.7085 105.991 29.3029C105.206 26.8974 101.377 20.3694 99.9046 19.4527C98.1375 25.4085 98.4324 25.7521 97.6468 27.3554C96.8612 28.9586 96.2722 35.1437 97.7451 35.373C99.2179 35.6023 96.9595 36.6326 95.8797 36.1746C94.8 35.7166 95.4873 33.0824 95.6832 31.1349C95.8797 29.188 94.8976 26.3244 95.6832 24.9498C96.4688 23.5752 97.7444 18.5361 97.352 18.5361C96.9595 18.5361 86.9455 16.0163 85.8657 14.298C85.375 17.3902 85.7675 19.9101 84.4912 21.514C83.2148 23.1172 83.9021 26.3244 84.0987 27.8134C84.2952 29.3023 86.3565 34.4564 88.3201 35.1437C90.2837 35.831 87.7311 36.9763 86.4548 36.289C85.1784 35.6017 83.8039 30.1039 82.7241 29.0736C81.6443 28.0427 82.2333 20.8273 81.4478 20.0257C79.3859 23.2329 76.8339 26.3251 76.8339 30.2195C76.8339 34.114 76.7356 33.5411 77.7171 34.8007C78.6999 36.0609 75.1233 35.5952 75.1657 34.572Z" fill="#5C0000"/>
<path d="M133.76 26.627C132.788 28.3067 132.287 30.7483 132.126 32.7376C132.06 33.5379 131.901 34.9729 132.334 35.6923C132.291 35.6216 134.517 37.4433 133.77 37.4863C132.988 37.5313 131.824 37.6578 131.062 37.3816C130.712 37.2519 131.297 30.5613 131.306 29.7745C131.318 28.7564 130.892 27.9014 131.092 26.909C131.589 24.4393 133.619 22.7486 134.261 20.2358C134.942 17.5759 134.945 14.5171 135.896 11.9703C136.569 10.1705 138.232 8.31347 139.697 7.23628C142.439 5.21871 142.85 1.41544 146.374 0.474423C148.885 -0.196173 149.177 1.72119 151.13 2.95704C152.534 3.84474 155.014 3.44649 156.66 3.80106C159.056 4.31685 159.375 6.61578 160.844 8.44322C162.282 10.2334 163.952 11.8065 166.101 11.3511C168.931 10.7505 170.231 7.39364 171.957 5.24182C172.2 4.93864 172.52 3.9276 173.41 4.26611C174.378 5.65676 175.709 5.85205 176.921 6.34728C177.675 6.65561 178.833 6.7693 179.486 7.28573C180.582 8.1516 180.137 8.16893 179.811 9.15042C179.554 9.92443 178.915 9.83965 179.212 11.0781C177.273 10.4717 174.848 10.0895 173.364 11.942C171.13 14.731 169.498 16.73 166.039 17.1918C164.222 17.4346 162.384 17.2631 160.695 16.3433C160.425 16.1968 159.335 16.9182 159.719 18.2568C160.455 20.8203 163.479 24.542 163.41 25.5511C163.278 27.5154 161.448 30.1695 160.977 32.1755C160.463 34.364 160.377 33.0619 160.799 36.1728C155.853 33.7518 159.441 35.3564 160.686 29.8554C161.472 26.383 161.856 25.2858 159.344 22.9779C158.475 22.1795 158.206 20.4895 157.159 20.0303C156.528 20.0219 156.024 24.5767 155.346 26.9855C154.831 28.8142 154.851 31.0925 154.768 33.0921C154.614 36.8402 158.396 37.69 154.501 37.2442C153.262 37.1022 153.882 34.2779 153.17 28.4468C152.919 26.3868 154.896 19.693 153.912 19.3308C152.66 18.8689 150.293 20.4317 148.892 20.417C147.2 20.399 145.153 20.0213 144.422 19.2987C143.174 19.1573 142.949 22.1236 143.516 26.7639C143.799 29.0801 145.396 31.2885 146.395 33.2739C147.463 35.3936 150.144 36.7534 149.592 36.8273C145.097 37.4298 148.307 36.379 144.532 32.3689C143.605 31.3842 141.55 29.021 141.662 28.2329C141.798 27.2809 141.134 24.5992 141.102 23.6428C141.044 21.9277 139.245 18.77 138.959 18.7071C138.21 18.5414 138.115 20.6122 137.045 21.8603C135.597 23.5509 134.909 24.6384 133.76 26.627Z" fill="#5C0000"/>
<path d="M15.7813 40.9715C17.54 41.6357 19.5403 41.6048 21.0973 40.7852C20.6142 39.1254 20.699 39.2379 21.2527 37.4625C21.8552 35.5207 23.4412 33.3226 23.217 31.1534C22.8123 27.2301 21.4814 23.423 21.0343 19.4424C20.9104 18.3363 20.9547 17.2701 20.6952 16.2128C20.4055 15.0322 19.7728 14.183 19.9353 12.8694C20.0997 11.5424 21.053 10.4324 19.9931 9.21518C18.7926 7.83609 17.1058 8.94156 16.732 10.5898C16.5393 11.4389 17.3724 12.2322 17.1578 13.0313C16.7487 14.5221 15.2964 14.6596 15.1088 16.5391C14.6938 20.6841 15.0915 24.7185 14.9868 28.8507C14.9527 30.1932 14.6611 31.5761 14.2937 32.8511C13.8787 34.2874 11.5047 36.5934 12.4528 38.2288C13.2081 39.5295 14.4228 40.4583 15.7813 40.9715Z" fill="#5C0000"/>
<path d="M195.093 41.2096C197.164 41.3612 199.543 40.9359 200.81 40.8479C200.79 38.2728 201.921 35.778 201.835 32.8798C201.797 31.5874 201.126 28.3263 201.673 27.1894C202.313 25.8597 203.466 26.4687 204.673 25.4833C202.73 22.9635 198.978 14.8681 199.389 11.555C199.553 10.2279 200.506 9.11795 199.446 7.90073C198.246 6.52164 196.559 7.6271 196.185 9.27533C195.993 10.1245 196.826 10.9178 196.611 11.7175C195.834 14.5508 192.618 17.2576 192.839 20.7513C192.942 22.3757 194.37 23.5441 194.614 25.1673C194.975 27.5844 193.93 30.4274 193.505 32.752C193.431 33.1554 191.85 40.0482 191.576 39.5556C192.196 40.6694 193.56 41.0972 195.093 41.2096Z" fill="#5C0000"/>
<path d="M1.15908 40.7294C1.89777 41.7532 4.86534 41.4661 5.87638 41.5034C8.91397 41.6145 10.5327 41.1777 9.81389 37.1015C9.22037 33.735 7.78346 30.6633 6.94393 27.399C6.01126 23.7711 5.82628 20.0957 5.33361 16.3727C5.16596 15.1041 4.97711 14.5446 5.08503 13.2548C5.20193 11.8494 6.35685 10.5583 5.1878 9.21518C3.98728 7.83609 2.30051 8.94156 1.92668 10.5898C1.73398 11.4389 2.56708 12.2322 2.35254 13.0313C1.94337 14.5221 0.491055 14.6596 0.303494 16.5391C-0.219366 21.7657 0.00994385 26.5158 0.416541 31.7097C0.585475 33.8866 -0.100534 38.9559 1.15908 40.7294Z" fill="#5C0000"/>
<path d="M42.5788 15.8558C42.6366 16.0208 42.6713 16.2097 42.6899 16.4146C42.7265 15.9078 42.7014 15.4537 42.5788 15.1023L42.2807 14.2487L41.9352 14.0129L42.5788 15.8558ZM56.432 35.7572C56.2431 35.0956 55.464 31.8178 55.5571 29.743C55.6348 31.7805 56.2643 34.4179 56.432 35.0037C56.615 35.6454 56.9587 35.9762 57.294 36.1882C57.0165 36.1413 56.7518 36.0764 56.5296 36.0096C56.4955 35.9281 56.459 35.8523 56.432 35.7572ZM200.829 28.9504C200.852 29.673 200.94 30.5029 201.05 31.4227C201.119 32.0021 201.184 32.55 201.195 32.8982C201.2 33.0819 201.187 33.2611 201.183 33.4429C201.159 33.1024 201.107 32.6541 201.05 32.1768C200.9 30.9185 200.786 29.8188 200.829 28.9504ZM159.102 19.1869C158.981 18.7662 158.977 18.402 159.027 18.093C159.045 18.2029 159.068 18.3159 159.102 18.4334C159.512 19.8607 160.535 21.5378 161.438 23.0184C161.994 23.9293 162.755 25.1767 162.77 25.5075C162.759 25.6668 162.73 25.8351 162.695 26.0085C162.493 25.5043 161.899 24.5266 161.438 23.7719C160.535 22.2913 159.512 20.6142 159.102 19.1869ZM194.139 32.866C194.252 32.2449 194.412 31.5852 194.581 30.8864C194.908 29.5298 195.265 28.0408 195.322 26.6014C195.393 28.2663 194.966 30.0449 194.581 31.6398C194.412 32.3387 194.252 32.9984 194.139 33.6195C194.098 33.8443 193.707 35.5651 193.285 37.223C192.984 38.4049 192.763 39.2104 192.58 39.766C192.506 39.7043 192.438 39.6394 192.375 39.5714C192.596 39.0536 192.864 38.1274 193.285 36.4702C193.706 34.8123 194.098 33.0909 194.139 32.866ZM198.738 12.5041C198.95 16.2155 201.963 22.6195 203.756 25.3C203.627 25.3572 203.496 25.4008 203.364 25.4387C201.415 22.2624 198.526 15.8012 198.738 12.5041ZM198.963 9.07529C198.73 8.80743 198.48 8.67191 198.218 8.67191C197.687 8.67191 197.124 9.22238 196.882 9.93923C196.818 9.74332 196.779 9.56668 196.813 9.41702C197.001 8.59033 197.631 7.91845 198.219 7.91845C198.48 7.91845 198.731 8.05397 198.964 8.32183C199.312 8.722 199.352 9.07079 199.246 9.56025C199.195 9.39903 199.108 9.24165 198.963 9.07529ZM9.18253 37.9655C8.84209 36.0372 8.20039 34.1552 7.5799 32.3355C7.1354 31.0315 6.6755 29.682 6.32286 28.3112C5.64648 25.679 5.35293 22.9889 5.06902 20.3861C4.9534 19.3308 4.83842 18.2716 4.69775 17.2085C4.65729 16.9041 4.61619 16.642 4.57765 16.3998C4.46974 15.717 4.38173 15.1595 4.42155 14.3238C4.44404 14.7882 4.50571 15.1903 4.57765 15.6464C4.61619 15.8885 4.65729 16.1506 4.69775 16.4551C4.83842 17.5181 4.9534 18.578 5.06902 19.6327C5.35293 22.2354 5.64648 24.9255 6.32286 27.5578C6.6755 28.9285 7.1354 30.2774 7.5799 31.582C8.20039 33.4017 8.84209 35.2838 9.18253 37.2121C9.32127 37.9996 9.36881 38.6432 9.3277 39.1532C9.3065 38.7993 9.26025 38.4074 9.18253 37.9655ZM161.804 28.432C161.715 28.626 161.626 28.8206 161.536 29.014C161.719 28.1937 161.859 27.4936 161.903 26.8532C161.938 27.3439 161.897 27.8603 161.804 28.432ZM17.7943 13.0969C17.8483 13.3648 17.8618 13.6513 17.7815 13.95C17.5547 14.7747 17.08 15.2603 16.6612 15.6881C16.1981 16.1602 15.8333 16.5334 15.751 17.355C15.6277 18.587 15.5789 19.8235 15.566 21.0535C15.5648 19.5755 15.602 18.086 15.751 16.6015C15.8333 15.7806 16.1981 15.4074 16.6612 14.9347C17.08 14.5069 17.5554 14.0213 17.7815 13.1965C17.7905 13.1625 17.7872 13.1304 17.7943 13.0969ZM4.70418 10.3889C4.47101 10.121 4.21986 9.98484 3.95908 9.98484C3.42787 9.98484 2.86455 10.5366 2.62303 11.2528C2.5588 11.0569 2.52023 10.8802 2.55428 10.7306C2.74119 9.9039 3.37134 9.23138 3.95972 9.23138C4.2205 9.23138 4.47167 9.36756 4.70483 9.63541C5.07096 10.0561 5.11977 10.4409 5.01636 10.9483C4.96369 10.7601 4.86797 10.5777 4.70418 10.3889ZM2.98593 13.0969C3.03989 13.3648 3.05338 13.6513 2.97308 13.95C2.74698 14.7747 2.27166 15.2603 1.85286 15.6881C1.39038 16.1602 1.02553 16.5334 0.943314 17.355C0.758964 19.1978 0.6671 20.9732 0.646545 22.7628C0.64783 20.7163 0.73327 18.7019 0.943314 16.6015C1.02553 15.7806 1.39038 15.4074 1.85286 14.9347C2.27166 14.5069 2.74762 14.0213 2.97308 13.1965C2.98208 13.1625 2.97951 13.1304 2.98593 13.0969ZM41.0115 23.8926C41.0571 25.7034 41.3795 28.7853 41.8054 30.6468C42.3938 33.2232 43.232 34.7012 44.2687 35.005C44.2745 35.0243 44.2681 35.0943 44.2135 35.172C44.1628 35.2446 44.0362 35.3692 43.76 35.3878C43.7157 35.391 43.6752 35.3917 43.6341 35.393C43.2744 35.0892 42.9442 34.6196 42.6475 33.9869C42.4695 33.2502 42.0456 31.8107 41.6069 30.4053C41.2202 28.2194 40.9646 25.23 41.0115 23.8926ZM74.5882 6.66718C74.4443 6.34345 74.1835 6.12185 73.8129 6.00879C72.5019 5.60605 71.5422 4.99325 70.7708 4.50058L70.6365 4.41515C70.3526 4.23402 70.0135 4.19869 69.6563 4.16144C69.4065 4.1351 69.1515 4.10812 68.9132 4.02526C68.8425 4.24751 68.7577 4.58988 68.6594 5.04851C68.644 5.12366 66.8859 12.5227 63.0898 12.5227C61.2071 12.5227 59.8749 10.7068 58.587 8.95003C57.6363 7.65508 56.6548 6.31582 55.6303 6.01007C54.2692 5.60283 53.6327 4.49738 53.0713 3.52167C52.3878 2.33336 51.8476 1.39555 50.2065 1.39555C50.0664 1.39555 49.9193 1.40261 49.7645 1.41674C47.0385 1.66468 45.9305 2.74574 44.8591 3.79146C44.4088 4.23146 43.9835 4.64639 43.46 4.9772C43.3142 5.06905 43.1498 5.1699 42.9686 5.27974C41.235 6.33509 38.0497 8.28394 37.9238 11.6594C37.9212 11.484 37.9122 11.2965 37.9115 11.125C37.9006 7.61141 41.1971 5.60412 42.9686 4.52628C43.1491 4.41644 43.3142 4.31559 43.46 4.22374C43.9835 3.89293 44.4088 3.478 44.8591 3.038C45.9305 1.99228 47.0385 0.910579 49.7645 0.66328C49.9187 0.649149 50.0664 0.64209 50.2065 0.64209C51.8476 0.64209 52.3878 1.58054 53.0713 2.76886C53.6327 3.74521 54.2692 4.85002 55.6303 5.25726C56.6548 5.56365 57.6363 6.90227 58.587 8.19721C59.8749 9.95335 61.2071 11.7699 63.0898 11.7699C66.8859 11.7699 68.644 4.37147 68.6594 4.29568C68.7577 3.83705 68.8425 3.49469 68.9132 3.27245C69.1515 3.35531 69.4071 3.38229 69.6563 3.40863C70.0141 3.44652 70.3526 3.48121 70.6365 3.66299L70.7708 3.74841C71.5422 4.24108 72.5019 4.85387 73.8129 5.25661C74.1835 5.3703 74.4443 5.59128 74.5882 5.91502C74.7147 6.19764 74.7282 6.54129 74.6428 6.83933C74.6267 6.78024 74.6126 6.72114 74.5882 6.66718ZM21.4967 26.1203C21.067 24.2222 20.6231 22.2592 20.3983 20.2654C20.3534 19.8633 20.3296 19.4657 20.3065 19.0726C20.266 18.3891 20.2281 17.7442 20.0746 17.1179C19.9898 16.7704 19.871 16.4525 19.7444 16.1159C19.4747 15.3952 19.2004 14.6488 19.2909 13.6712C19.3513 14.3 19.5485 14.8383 19.7444 15.3624C19.8703 15.6984 19.9898 16.0163 20.0746 16.3645C20.2281 16.9908 20.2666 17.6357 20.3065 18.3191C20.3296 18.7122 20.3534 19.1105 20.3983 19.5119C20.6231 21.5057 21.067 23.4687 21.4967 25.3668C21.9303 27.2822 22.3786 29.2626 22.5797 31.2172C22.6041 31.4516 22.5957 31.6899 22.5745 31.9302C22.3716 29.989 21.9271 28.0229 21.4967 26.1203ZM19.5119 10.3889C19.2787 10.121 19.0276 9.98484 18.7661 9.98484C18.2349 9.98484 17.6722 10.5366 17.4301 11.2528C17.3659 11.0569 17.3273 10.8802 17.3614 10.7299C17.5483 9.90389 18.1784 9.23138 18.7655 9.23138C19.0269 9.23138 19.2781 9.36756 19.5113 9.63541C19.8594 10.0356 19.8986 10.3844 19.7926 10.8738C19.7431 10.7126 19.6564 10.5552 19.5119 10.3889ZM197.246 11.7834C197.3 12.0512 197.313 12.3377 197.233 12.637C196.904 13.8376 196.213 14.9501 195.481 16.1281C194.567 17.5978 193.627 19.1111 193.49 20.7574C193.489 20.7414 193.483 20.7266 193.482 20.7105C193.36 18.7874 194.438 17.0524 195.481 15.3747C196.212 14.1966 196.903 13.0847 197.233 11.8836C197.242 11.8489 197.239 11.8168 197.246 11.7834ZM106.704 27.4974C106.753 30.1188 107.284 35.42 109.001 36.0874C109.101 36.1265 109.175 36.1644 109.23 36.1978C109.09 36.2711 108.821 36.3578 108.396 36.3636C107.709 35.5221 107.276 33.8231 107.02 32.083C106.976 31.2788 106.914 30.4849 106.774 29.7873C106.709 28.8572 106.69 28.0421 106.704 27.4974ZM88.1035 35.7488C87.9179 35.8111 87.6744 35.8606 87.4085 35.8606C87.28 35.8606 87.1586 35.8484 87.0482 35.8246C86.666 35.4739 86.3005 35.0268 85.9588 34.5245C85.5952 33.7782 85.2175 32.8314 84.9227 32.092C84.8032 31.7927 84.6876 31.5017 84.5732 31.223C85.4346 33.1647 86.7103 35.2549 88.1035 35.7488ZM96.1995 32.2006C96.1828 33.4223 96.3093 34.5515 96.6588 35.2215C96.7423 35.3821 96.8348 35.5112 96.9311 35.6152C96.8078 35.6358 96.6767 35.6493 96.5444 35.6493C96.5354 35.6493 96.5284 35.6474 96.52 35.6474C96.2766 34.9678 96.1854 33.9959 96.1995 32.9541C96.1841 33.0645 96.1674 33.1756 96.152 33.2868C96.0852 33.7537 95.9817 34.4725 95.9445 35.0962C95.8828 34.4179 96.055 33.2116 96.152 32.5333C96.1674 32.4222 96.1834 32.3111 96.1995 32.2006ZM106.73 26.2577C106.718 26.3631 106.711 26.5076 106.705 26.6784C106.462 25.2685 104.373 21.7819 102.816 19.5434L102.701 19.3777V19.176C102.701 19.1516 102.704 18.9627 102.741 18.6814L102.816 18.7899C104.512 21.2289 106.847 25.158 106.73 26.2577ZM54.943 33.0189C54.9437 33.0273 54.9443 33.0388 54.945 33.0472C55.0182 33.9407 54.8069 34.5914 54.6154 35.0609C54.521 35.0102 54.4375 34.9543 54.3778 34.8913C54.4016 34.8078 54.4638 34.6633 54.512 34.5535C54.6668 34.1931 54.8826 33.6947 54.943 33.0189ZM76.7361 24.2241C77.5545 23.2677 80.6075 15.164 80.9126 11.7223C81.1515 9.03033 82.1382 6.3473 87.6937 4.95857L87.9667 4.89112L88.1016 4.64446C89.1736 2.68984 90.2104 2.1458 91.2131 1.62037C91.5824 1.42639 91.9646 1.22598 92.3301 0.963904C92.3558 0.945276 92.3737 0.935644 92.3776 0.931148C92.5517 1.00373 92.8953 1.53558 93.0822 1.82463C93.5544 2.55689 94.0907 3.38614 94.9746 3.38614C95.0516 3.38614 95.1306 3.37908 95.2103 3.36495C95.3407 3.34183 95.6265 3.30199 96.071 3.30199C97.0467 3.30199 100.418 3.53001 102.849 6.46355C104.694 8.69052 107.085 10.0195 109.245 10.0195C110.916 10.0195 112.348 9.25322 113.388 7.80283C114.462 6.30427 114.994 5.69725 115.346 5.29579C115.798 4.78 116 4.53399 116.481 3.59875C117.384 1.84132 117.797 1.82077 117.814 1.82077C117.834 1.82077 117.89 1.84262 117.977 1.92548C119.419 3.29943 120.872 3.79724 122.04 4.19741C123.352 4.64704 123.785 4.85066 123.878 5.53924L123.885 5.59126L123.901 5.64137C123.925 5.71973 123.896 5.80067 123.78 5.95291C123.585 5.5219 123.104 5.31507 122.04 4.95022C120.872 4.55005 119.419 4.05225 117.977 2.6783C117.89 2.59544 117.833 2.57358 117.814 2.57358C117.797 2.57358 117.384 2.5935 116.481 4.35156C116 5.28616 115.798 5.53281 115.346 6.04861C114.994 6.45007 114.462 7.05708 113.388 8.55565C112.348 10.006 110.915 10.7723 109.245 10.7723C107.085 10.7723 104.693 9.44336 102.849 7.21639C100.418 4.28285 97.0467 4.0548 96.071 4.0548C95.6272 4.0548 95.3407 4.094 95.2103 4.11776C95.1306 4.1319 95.0516 4.13895 94.9746 4.13895C94.0907 4.13895 93.5544 3.3097 93.0822 2.57744C92.8953 2.28903 92.5517 1.75719 92.3776 1.68396C92.3737 1.68846 92.3558 1.69809 92.3301 1.71672C91.9646 1.97879 91.5824 2.17985 91.2131 2.37383C90.2104 2.89926 89.1736 3.4433 88.1016 5.39792L87.9667 5.64458L87.6937 5.71203C82.1388 7.10076 81.1515 9.78379 80.9126 12.4758C80.6075 15.9174 77.5545 24.0211 76.7361 24.9775C76.5505 25.2807 76.1702 26.9675 75.8433 34.5528C75.8356 34.5464 75.8195 34.538 75.8131 34.5322L75.8176 34.4109C76.1503 26.3014 76.5454 24.5356 76.7361 24.2241ZM14.9141 33.0266C15.3656 31.458 15.6001 30.0963 15.6316 28.8656C15.647 28.2554 15.6444 27.6464 15.6425 27.0388C15.6521 27.895 15.6534 28.7564 15.6316 29.619C15.6001 30.8504 15.3656 32.2115 14.9141 33.7807C14.7535 34.337 14.3816 34.9427 13.9878 35.5831C13.5568 36.2845 13.0937 37.0451 12.9376 37.7035C12.7025 36.9346 13.377 35.824 13.9878 34.8297C14.3816 34.1886 14.7535 33.5835 14.9141 33.0266ZM38.1723 19.3391C38.1993 21.5064 38.0811 23.5027 37.5409 24.921C37.2949 25.5653 37.1722 26.0528 37.1221 26.4556C37.0444 25.9385 37.1176 25.2775 37.5409 24.1676C38.0175 22.9163 38.1621 21.2103 38.1723 19.3391ZM40.5824 36.4175C40.6139 36.4239 40.6402 36.431 40.662 36.4374C40.6428 36.4817 40.6119 36.5428 40.5612 36.6218C40.5374 36.6276 40.4957 36.634 40.434 36.634C40.0486 36.634 39.6054 36.4265 39.4063 36.2242C39.369 36.1631 39.3343 36.0976 39.3003 36.0328L39.299 36.0289C39.299 35.8272 39.263 35.5048 39.2033 35.1046C39.5129 35.761 39.9465 36.2826 40.5824 36.4175ZM83.3798 28.0652C83.2455 27.173 83.0663 25.9667 83.1094 24.7848C83.1408 25.7117 83.2744 26.6091 83.3798 27.3118C83.4126 27.5276 83.4421 27.7254 83.4652 27.8989C83.5282 28.3761 83.8089 29.3441 84.2476 30.4464C84.0131 29.9113 83.7851 29.4585 83.5539 29.1026C83.5115 28.9253 83.4813 28.7731 83.4652 28.6523C83.4421 28.4783 83.4126 28.2811 83.3798 28.0652ZM142.582 23.0435C142.6 24.0327 142.687 25.2749 142.879 26.8416C143.091 28.581 143.986 30.2498 144.824 31.7407C144.463 31.3501 144.132 30.9699 143.834 30.6115C143.378 29.646 143.006 28.6337 142.879 27.5951C142.634 25.6012 142.561 24.1329 142.582 23.0435ZM147.891 36.3424C147.561 36.3424 147.476 36.2961 147.476 36.2961C147.431 36.246 147.365 36.0128 147.312 35.8253C147.275 35.6962 147.234 35.5529 147.184 35.3943C147.537 35.7533 147.895 36.0668 148.214 36.3314C148.091 36.3385 147.984 36.3424 147.891 36.3424ZM154.82 20.6495C154.888 21.5218 154.664 22.8932 154.309 24.9133C154.099 26.1081 153.869 27.4216 153.807 28.3421C153.718 27.5327 154.031 25.7432 154.309 24.1599C154.575 22.6478 154.767 21.4987 154.82 20.6495ZM160.147 32.9785C160.083 33.3202 160.045 33.6214 160.023 33.9201C159.807 34.2496 159.595 34.5233 159.407 34.7462C159.23 34.6479 159.085 34.5599 158.985 34.4879C159.045 34.4128 159.123 34.3229 159.192 34.2439C159.455 33.94 159.799 33.5437 160.147 32.9785ZM154.735 36.6256C154.579 36.3167 154.439 35.9595 154.329 35.5594C154.3 35.2587 154.277 34.9183 154.259 34.5663C154.467 35.4874 154.873 36.1811 155.206 36.6719C155.071 36.6603 154.91 36.6442 154.735 36.6256ZM96.2432 26.0233C96.1166 26.2442 96.0556 26.5461 96.0318 26.893C95.9972 26.2262 96.0318 25.6391 96.2432 25.2698C96.7211 24.4328 97.8458 20.9861 98.0211 19.2036C98.255 20.4716 96.8039 25.0424 96.2432 26.0233ZM76.1927 32.074C76.1998 33.7859 76.2871 34.0511 76.9494 34.8656C76.9629 34.8817 76.9764 34.899 76.9899 34.9157C76.7843 34.9035 76.5903 34.8605 76.413 34.8097C76.1947 34.2978 76.1889 33.66 76.1927 32.074ZM133.227 23.8336C133.876 22.7898 134.548 21.7094 134.884 20.3951C135.177 19.2486 135.348 18.0281 135.514 16.8475C135.738 15.2565 135.969 13.6115 136.498 12.1945C137.142 10.4724 138.76 8.7233 140.078 7.75338C141.304 6.85154 142.076 5.6568 142.823 4.50252C143.835 2.93587 144.71 1.58376 146.541 1.0943C146.831 1.01722 147.094 0.978037 147.323 0.978037C148.05 0.978037 148.446 1.3538 149.139 2.07385C149.579 2.53184 150.078 3.0502 150.788 3.49919C151.817 4.15052 153.209 4.20383 154.555 4.25522C155.282 4.28284 155.969 4.30917 156.526 4.42929C157.883 4.72155 158.437 5.71011 159.138 6.96073C159.487 7.58379 159.847 8.22804 160.343 8.84468C161.625 10.4402 163.223 12.0718 165.356 12.0724C165.646 12.0724 165.942 12.0409 166.234 11.9793C168.569 11.4834 169.95 9.36562 171.168 7.49643C171.604 6.82583 172.017 6.1925 172.457 5.64331C172.522 5.56302 172.592 5.44868 172.669 5.31636C172.759 5.1622 172.92 4.88598 173.038 4.84423C173.903 5.95418 174.986 6.33445 175.949 6.67232C176.194 6.75839 176.438 6.84383 176.676 6.94146C176.986 7.068 177.341 7.16241 177.684 7.25298C178.22 7.39494 178.773 7.54139 179.088 7.78997C179.355 8.00066 179.471 8.11756 179.521 8.1773C179.502 8.22483 179.472 8.28779 179.447 8.34239C179.399 8.44709 179.344 8.57299 179.29 8.71045C179.233 8.66227 179.17 8.60895 179.087 8.54343C178.773 8.29485 178.219 8.1484 177.683 8.00644C177.34 7.91523 176.986 7.82146 176.676 7.69492C176.437 7.59729 176.193 7.51185 175.948 7.42578C174.986 7.08855 173.902 6.70764 173.037 5.59769C172.919 5.63944 172.758 5.91566 172.668 6.06982C172.591 6.20214 172.521 6.31648 172.457 6.39677C172.016 6.94532 171.604 7.57929 171.167 8.24989C169.949 10.1184 168.569 12.2369 166.233 12.7327C165.94 12.795 165.645 12.8259 165.356 12.8259C163.223 12.8252 161.624 11.1937 160.342 9.59814C159.847 8.9815 159.486 8.33725 159.137 7.71419C158.436 6.46357 157.883 5.47501 156.525 5.18275C155.968 5.06263 155.281 5.0363 154.554 5.00868C153.208 4.95729 151.815 4.90398 150.787 4.25265C150.077 3.80366 149.578 3.2853 149.138 2.82731C148.445 2.10726 148.05 1.7315 147.323 1.7315C147.094 1.7315 146.83 1.77068 146.54 1.84776C144.709 2.33722 143.835 3.68933 142.822 5.25598C142.076 6.4109 141.304 7.60498 140.077 8.50746C138.759 9.47739 137.141 11.2265 136.498 12.9486C135.968 14.3655 135.737 16.0106 135.514 17.6016C135.348 18.7822 135.176 20.0027 134.883 21.1492C134.547 22.4634 133.876 23.5439 133.226 24.5876C132.572 25.6391 131.954 26.6322 131.721 27.7897C131.715 27.8192 131.715 27.8481 131.711 27.877C131.676 27.5899 131.665 27.315 131.721 27.0362C131.955 25.8775 132.573 24.8851 133.227 23.8336Z" fill="#780000"/>
<path d="M199.906 25.1955L200.003 24.8506C199.807 24.7761 180.442 17.3847 176.078 8.47363L175.806 8.65476C180.23 17.6866 199.711 25.1223 199.906 25.1955Z" fill="#5C0000"/>
<path d="M130.834 12.5432C137.969 12.5432 144.069 4.38431 144.131 4.30081L143.893 4.0625C143.834 4.14408 137.824 12.181 130.834 12.181C130.776 12.181 130.718 12.179 130.66 12.179C127.185 12.1116 124.03 10.0593 121.284 6.0775L121.04 6.30489C123.849 10.3754 127.083 12.4739 130.657 12.5413C130.715 12.5432 130.774 12.5432 130.834 12.5432Z" fill="#5C0000"/>
<path d="M80.4908 10.9591C83.0236 10.9591 85.2666 9.51959 87.5726 8.03966L88.2136 7.6292L88.0646 7.30933L87.4235 7.71978C82.5302 10.8595 78.3056 13.5689 71.0395 3.88184L70.8051 4.12014C74.6674 9.27166 77.7494 10.9591 80.4908 10.9591Z" fill="#5C0000"/>
</svg>
