<svg width="113" height="543" viewBox="0 0 113 543" fill="none" xmlns="http://www.w3.org/2000/svg">
<path d="M8.8623 473.724V0.453125M79.1383 413.021V18.1934M38.2712 451.8V4.98675M63.2867 429.917V12.28" stroke="black" stroke-width="0.90673" stroke-miterlimit="10" stroke-linecap="round"/>
<path d="M74.93 416.177C73.846 414.201 73.3431 411.949 73.4814 409.69C73.6027 408.604 73.6536 407.511 73.6339 406.418C73.6353 406.357 73.6563 406.298 73.6936 406.25C73.731 406.202 73.7827 406.168 73.8408 406.152C73.899 406.137 73.9605 406.141 74.0161 406.165C74.0716 406.188 74.1181 406.23 74.1485 406.282C74.8935 407.561 75.4188 408.96 75.7019 410.419C75.7019 411.924 77.1505 410.865 77.1505 410.865C77.7807 409.509 78.1279 408.035 78.1702 406.535C78.1702 404.369 82.1918 402.903 82.1918 402.903C82.1918 402.903 84.7077 412.079 78.8849 415.39L77.2267 417.099L74.93 416.177Z" fill="#F7A897" stroke="#231F20" stroke-width="0.430723" stroke-miterlimit="10"/>
<path d="M76.0083 531.858C76.251 533.105 76.4134 534.367 76.4943 535.635C76.4943 535.635 86.4245 539.519 86.0243 539.519C85.624 539.519 71.9486 539.791 71.9486 539.791L71.0527 532.868C71.0527 532.868 73.3685 530.149 73.5496 530.13C74.4038 530.653 75.225 531.23 76.0083 531.858Z" fill="#F7A897" stroke="#231F20" stroke-width="0.430723" stroke-miterlimit="10"/>
<path d="M58.3418 534.229C58.5845 535.476 58.7469 536.738 58.8278 538.006C58.8278 538.006 68.7581 541.89 68.3578 541.89L54.263 542.221L53.3672 535.297C53.3672 535.297 55.683 532.559 55.8736 532.511C56.7308 533.03 57.5552 533.604 58.3418 534.229Z" fill="#F7A897" stroke="#231F20" stroke-width="0.430723" stroke-miterlimit="10"/>
<path d="M13.9379 471.21C12.1177 469.917 9.97046 469.185 7.75297 469.103C6.67985 469.115 5.60708 469.057 4.54137 468.928C4.47994 468.922 4.41818 468.937 4.36594 468.97C4.3137 469.004 4.274 469.054 4.25316 469.113C4.23232 469.173 4.23155 469.237 4.25097 469.297C4.27039 469.357 4.30888 469.408 4.3603 469.443C5.53601 470.309 6.84754 470.966 8.23899 471.385C9.70661 471.55 8.53442 472.9 8.53442 472.9C7.1453 473.403 5.66896 473.608 4.1983 473.502C2.1303 473.278 0.291016 477.249 0.291016 477.249C0.291016 477.249 9.00139 480.716 12.8134 475.152L14.6526 473.637L13.9379 471.21Z" fill="#F7A897" stroke="#231F20" stroke-width="0.430723" stroke-miterlimit="10"/>
<path d="M40.4662 455.802C40.571 456.161 33.0614 491.019 21.8828 496.476C21.8828 496.476 76.8039 514.197 96.0353 481.844C96.0353 481.844 78.0619 482.65 67.1596 450.772L40.4662 455.802Z" fill="#FC1D73" stroke="#231F20" stroke-width="0.430723" stroke-miterlimit="10"/>
<path d="M78.3136 530.451C78.1611 530.354 69.7367 537.17 63.8662 532.393C63.8662 532.393 56.4329 538.704 49.3521 533.597C49.3521 533.597 42.1093 538.588 36.4867 533.597C34.6427 534.346 32.6329 534.567 30.6745 534.237C28.7161 533.906 26.8835 533.037 25.3748 531.723C25.3748 531.723 23.9548 532.917 21.2578 530.81L23.1638 527.091C23.1638 527.091 44.5681 521.877 44.9207 521.828L82.0017 516.857C82.0017 516.857 101.309 511.429 101.834 511.73C102.358 512.031 109.343 512.575 109.343 512.575L112.564 515.973C112.564 515.973 112.421 519.459 103.987 522.071C103.292 522.285 99.5273 528.868 92.8468 525.955C92.8468 525.955 87.9293 534.81 78.9998 530.441L78.3136 530.451Z" fill="#F7A897" stroke="#231F20" stroke-width="0.430723" stroke-miterlimit="10"/>
<path d="M94.2336 495.204L109.339 512.575C109.339 512.575 81.7493 539.384 23.1592 527.091L34.7667 501.438C34.7667 501.438 45.7642 502.069 46.3837 501.739C47.0031 501.409 56.8666 504.409 57.6767 504.176C58.4867 503.943 81.3395 498.661 81.6731 498.35C82.0066 498.039 89.9451 495.262 89.9451 495.262L94.2336 495.204Z" fill="#FC1D73" stroke="#231F20" stroke-width="0.430723" stroke-miterlimit="10"/>
<path d="M87.4425 488.574L94.2374 495.205C94.2374 495.205 65.476 520.451 34.7705 501.439L37.1244 494.331L44.4339 492.613L67.5821 491.982L79.9711 486.243L87.4425 488.574Z" fill="#F7A897" stroke="#231F20" stroke-width="0.430723" stroke-miterlimit="10"/>
<path d="M59.5774 423.973C59.5774 423.973 63.0749 421.283 58.2623 416.574C58.2623 416.574 55.0221 418.118 54.8506 420.817L56.3373 422.643L59.5774 423.973Z" fill="#FF9900" stroke="#231F20" stroke-width="0.430723" stroke-miterlimit="10"/>
<path d="M59.5364 423.624C59.5364 423.624 55.4385 417.934 46.6233 420.391C37.8081 422.847 37.77 428.829 38.7802 433.878C39.7903 438.927 41.6391 448.588 40.8005 450.054L44.5172 451.501L50.4639 439.111L49.7205 433.402L59.5364 423.624Z" fill="#FC1D73" stroke="#231F20" stroke-width="0.430723" stroke-miterlimit="10"/>
<path d="M70.1653 471.075L87.4431 488.552C87.4431 488.552 67.821 506.632 37.125 494.31L43.0431 475.784L67.6399 471.395L70.1653 471.075Z" fill="#FC1D73" stroke="#231F20" stroke-width="0.430723" stroke-miterlimit="10"/>
<path d="M68.7721 469.394L70.1635 471.073C70.1635 471.073 57.1551 479.812 43.0889 475.521L44.3182 471.472C44.3182 471.472 47.2535 470.209 47.6061 470.161C47.9587 470.112 57.5744 471.248 57.5744 471.248L66.1514 468.908L68.7721 469.394Z" fill="#FF9900" stroke="#231F20" stroke-width="0.430723" stroke-miterlimit="10"/>
<path d="M65.2462 465.047C66.3424 466.559 67.5196 468.008 68.7722 469.387C68.7722 469.387 54.0675 477.602 44.2803 471.747L45.3857 468.076C46.1039 467.646 46.8452 467.257 47.6062 466.911C47.9017 466.911 56.755 466.911 57.0409 466.736C57.3268 466.562 62.6826 464.892 62.6826 464.892L65.2462 465.047Z" fill="#F7A897" stroke="#231F20" stroke-width="0.430723" stroke-miterlimit="10"/>
<path d="M59.5763 423.972C59.5763 423.972 53.4199 420.438 47.3494 426.807C41.2788 433.177 44.9097 442.246 44.4904 443.372C44.0711 444.498 44.1378 447.664 43.5374 448.159C42.937 448.654 44.4904 451.315 44.4904 451.315L52.486 444.673L59.5763 423.972Z" fill="#FF9900" stroke="#231F20" stroke-width="0.430723" stroke-miterlimit="10"/>
<path d="M40.5224 448.712C44.9252 449.003 62.7367 445.604 62.7367 445.604C62.7367 445.604 71.7425 439.215 72.7336 436.545C73.7248 433.875 74.4109 416.242 74.4109 416.242L79.6619 415.543C79.6619 415.543 81.749 436.39 81.282 437.497C80.815 438.604 68.2641 452.411 68.2641 452.411C68.2641 452.411 65.3003 462.995 65.2622 465.034C65.2622 465.034 59.8873 473.229 45.3922 468.063L41.2848 458.79L41.0084 458.266C41.0084 458.266 35.0999 469.151 34.204 469.918C33.3082 470.685 13.2382 475.151 13.2382 475.151L12.2852 469.85C12.2852 469.85 28.5337 463.713 30.7066 461.927C32.4791 460.48 36.2149 453.188 37.5776 450.518C37.8076 450.044 38.1442 449.633 38.5599 449.317C38.9756 449.002 39.4587 448.791 39.9697 448.702C40.1537 448.685 40.339 448.688 40.5224 448.712Z" fill="#FC1D73" stroke="#231F20" stroke-width="0.430723" stroke-miterlimit="10"/>
<path d="M61.5861 445.577C61.5861 445.577 49.6832 445.441 44.0986 448.228C44.0891 448.228 53.5047 455.87 61.5861 445.577Z" fill="#FF9900" stroke="#231F20" stroke-width="0.430723" stroke-miterlimit="10"/>
<path d="M59.6051 424.156C59.9229 425.461 60.5283 426.675 61.3754 427.707C62.2225 428.738 63.289 429.559 64.4939 430.108C64.4939 430.108 67.7246 433.021 63.398 435.264C63.4648 437.023 63.0154 438.763 62.1073 440.26C61.1991 441.758 59.8734 442.946 58.2995 443.672C58.6234 444.274 59.0032 444.843 59.4335 445.372C59.4335 445.372 54.6686 451.751 44.6621 447.906C44.6621 447.906 46.1774 444.614 45.415 442.08C44.6526 439.546 46.1297 431.108 47.0351 430.186C47.9404 429.263 52.0573 422.884 59.6051 424.156Z" fill="#F7A897" stroke="#231F20" stroke-width="0.430723" stroke-miterlimit="10"/>
<path d="M62.3799 475.221C62.5228 475.386 72.2815 496.582 72.2815 496.582L62.3799 475.221Z" fill="white"/>
<path d="M62.3799 475.221C62.5228 475.386 72.2815 496.582 72.2815 496.582" stroke="#363435" stroke-width="0.430723" stroke-miterlimit="10"/>
<path d="M50.9681 476.96C50.9681 477.397 50.8633 498.089 50.8633 498.089L50.9681 476.96Z" fill="white"/>
<path d="M50.9681 476.96C50.9681 477.397 50.8633 498.089 50.8633 498.089" stroke="#363435" stroke-width="0.430723" stroke-miterlimit="10"/>
<path d="M84.3465 490.455C84.48 490.348 81.0206 488.173 77.3516 490.271C73.6825 492.368 74.3115 495.611 74.3115 495.611C74.3115 495.611 81.9259 492.329 84.3465 490.455Z" fill="#FF9900" stroke="#231F20" stroke-width="0.430723" stroke-miterlimit="10"/>
<path d="M67.7509 497.555C67.7509 497.555 65.8449 493.428 61.6899 493.972C57.5348 494.515 56.2959 498.613 56.2959 498.613C56.2959 498.613 64.5107 498.37 67.7509 497.555Z" fill="#FF9900" stroke="#231F20" stroke-width="0.430723" stroke-miterlimit="10"/>
<path d="M49.0586 497.913C49.0586 497.913 48.1056 494.184 45.5325 493.669C42.9594 493.155 40.8438 495.912 40.8438 495.912C40.8438 495.912 48.3724 498.146 49.0586 497.913Z" fill="#FF9900" stroke="#231F20" stroke-width="0.430723" stroke-miterlimit="10"/>
<path d="M83.3369 491.592L87.5015 499.952" stroke="#363435" stroke-width="0.430723" stroke-miterlimit="10"/>
<path d="M77.083 494.786L80.0754 503.826" stroke="#363435" stroke-width="0.430723" stroke-miterlimit="10"/>
<path d="M66.8965 497.854L68.1544 507.613" stroke="#363435" stroke-width="0.430723" stroke-miterlimit="10"/>
<path d="M58.4748 498.552L58.2461 508.514" stroke="#363435" stroke-width="0.430723" stroke-miterlimit="10"/>
<path d="M48.9444 498.022L46.3428 506.673L48.9444 498.022Z" fill="white"/>
<path d="M48.9444 498.022L46.3428 506.673" stroke="#363435" stroke-width="0.430723" stroke-miterlimit="10"/>
<path d="M42.6697 496.408L40.7256 504.379" stroke="#363435" stroke-width="0.430723" stroke-miterlimit="10"/>
<path d="M89.0399 496.497C89.6978 496.497 90.2311 495.953 90.2311 495.283C90.2311 494.613 89.6978 494.069 89.0399 494.069C88.382 494.069 87.8486 494.613 87.8486 495.283C87.8486 495.953 88.382 496.497 89.0399 496.497Z" fill="#FF9900" stroke="#231F20" stroke-width="0.430723" stroke-miterlimit="10"/>
<path d="M82.2577 499.857C82.9156 499.857 83.4489 499.313 83.4489 498.643C83.4489 497.973 82.9156 497.429 82.2577 497.429C81.5997 497.429 81.0664 497.973 81.0664 498.643C81.0664 499.313 81.5997 499.857 82.2577 499.857Z" fill="#FF9900" stroke="#231F20" stroke-width="0.430723" stroke-miterlimit="10"/>
<path d="M72.6698 502.826C73.3277 502.826 73.861 502.283 73.861 501.613C73.861 500.942 73.3277 500.399 72.6698 500.399C72.0119 500.399 71.4785 500.942 71.4785 501.613C71.4785 502.283 72.0119 502.826 72.6698 502.826Z" fill="#FF9900" stroke="#231F20" stroke-width="0.430723" stroke-miterlimit="10"/>
<path d="M63.2821 504.088C63.94 504.088 64.4733 503.545 64.4733 502.874C64.4733 502.204 63.94 501.661 63.2821 501.661C62.6242 501.661 62.0908 502.204 62.0908 502.874C62.0908 503.545 62.6242 504.088 63.2821 504.088Z" fill="#FF9900" stroke="#231F20" stroke-width="0.430723" stroke-miterlimit="10"/>
<path d="M52.9159 504.254C53.5738 504.254 54.1071 503.71 54.1071 503.04C54.1071 502.37 53.5738 501.826 52.9159 501.826C52.2579 501.826 51.7246 502.37 51.7246 503.04C51.7246 503.71 52.2579 504.254 52.9159 504.254Z" fill="#FF9900" stroke="#231F20" stroke-width="0.430723" stroke-miterlimit="10"/>
<path d="M44.5223 502.575C45.1802 502.575 45.7135 502.032 45.7135 501.361C45.7135 500.691 45.1802 500.147 44.5223 500.147C43.8644 500.147 43.3311 500.691 43.3311 501.361C43.3311 502.032 43.8644 502.575 44.5223 502.575Z" fill="#FF9900" stroke="#231F20" stroke-width="0.430723" stroke-miterlimit="10"/>
<path d="M38.2098 501.205C38.8677 501.205 39.401 500.661 39.401 499.991C39.401 499.321 38.8677 498.777 38.2098 498.777C37.5519 498.777 37.0186 499.321 37.0186 499.991C37.0186 500.661 37.5519 501.205 38.2098 501.205Z" fill="#FF9900" stroke="#231F20" stroke-width="0.430723" stroke-miterlimit="10"/>
<path d="M108.52 513.314L103.26 511.508L105.137 515.887" fill="#FF9900"/>
<path d="M108.52 513.314L103.26 511.508L105.137 515.887" stroke="#231F20" stroke-width="0.430723" stroke-miterlimit="10"/>
<path d="M99.7024 519.17C99.7024 519.17 95.8904 516.092 95.9571 516.257C96.0238 516.422 95.8428 521.16 95.8428 521.16" fill="#FF9900"/>
<path d="M99.7024 519.17C99.7024 519.17 95.8904 516.092 95.9571 516.257C96.0238 516.422 95.8428 521.16 95.8428 521.16" stroke="#231F20" stroke-width="0.430723" stroke-miterlimit="10"/>
<path d="M89.1562 524.04L84.9439 520.641L83.7432 525.884" fill="#FF9900"/>
<path d="M89.1562 524.04L84.9439 520.641L83.7432 525.884" stroke="#231F20" stroke-width="0.430723" stroke-miterlimit="10"/>
<path d="M75.3489 528.044C75.3489 528.044 71.1176 523.548 71.1176 523.771C71.1176 523.995 68.9639 529.209 68.9639 529.209" fill="#FF9900"/>
<path d="M75.3489 528.044C75.3489 528.044 71.1176 523.548 71.1176 523.771C71.1176 523.995 68.9639 529.209 68.9639 529.209" stroke="#231F20" stroke-width="0.430723" stroke-miterlimit="10"/>
<path d="M58.619 530.171L54.4258 525.229L50.7949 530.307" fill="#FF9900"/>
<path d="M58.619 530.171L54.4258 525.229L50.7949 530.307" stroke="#231F20" stroke-width="0.430723" stroke-miterlimit="10"/>
<path d="M39.8648 529.692L37.7301 525.546L34.042 529.012" fill="#FF9900"/>
<path d="M39.8648 529.692L37.7301 525.546L34.042 529.012" stroke="#231F20" stroke-width="0.430723" stroke-miterlimit="10"/>
<path d="M29.2066 528.108L28.0439 523.875L24.4893 527.322" fill="#FF9900"/>
<path d="M29.2066 528.108L28.0439 523.875L24.4893 527.322" stroke="#231F20" stroke-width="0.430723" stroke-miterlimit="10"/>
<path d="M91.7327 502.245C92.8912 502.976 93.8024 504.05 94.3439 505.323C95.1635 506.391 96.3643 507.149 97.1362 508.236C97.6897 508.966 98.136 509.774 98.4609 510.635L98.3942 510.703C96.3357 509.499 95.4113 507.353 94.1057 505.498C92.9868 504.7 92.1352 503.572 91.666 502.265L91.7327 502.207V502.245Z" fill="#363435"/>
<path d="M86.6905 505.129C87.3715 506.526 87.7517 508.056 87.8056 509.615C88.6442 512.062 90.0451 514.169 90.6645 516.732L90.5788 516.781C89.7861 516.072 89.1385 515.211 88.6728 514.246C87.9771 512.819 87.9104 511.207 87.472 509.702C86.6784 508.33 86.3439 506.731 86.519 505.148H86.6143L86.6905 505.129Z" fill="#363435"/>
<path d="M75.2315 509.128C75.8842 510.282 76.1138 511.634 75.8795 512.944C76.2893 515.061 77.1374 517.11 76.5466 519.323H76.4513C76.0815 518.537 75.8278 517.7 75.6984 516.838C75.4602 515.566 75.7556 514.236 75.5745 512.954C75.0672 511.756 74.918 510.432 75.1457 509.148L75.2315 509.099V509.128Z" fill="#363435"/>
<path d="M61.742 510.953C62.2241 512.147 62.288 513.474 61.923 514.711C61.9802 516.381 62.552 518.08 61.9993 519.74C61.905 520.188 61.6981 520.603 61.3989 520.944L61.3227 520.886C61.1337 519.242 61.198 517.578 61.5133 515.954C61.61 515.547 61.6453 515.128 61.6181 514.711C61.2273 513.493 61.2273 512.18 61.6181 510.963L61.742 510.953Z" fill="#363435"/>
<path d="M48.4671 510.68C48.6835 512.132 48.4538 513.618 47.8096 514.932C47.476 516.874 47.638 518.865 46.6183 520.593C46.3949 521.053 46.0684 521.452 45.6653 521.758L45.5986 521.7C45.928 519.839 46.4323 518.015 47.1044 516.253C47.2981 515.814 47.4327 515.35 47.5046 514.874C47.4064 513.416 47.7031 511.958 48.3623 510.66H48.4576L48.4671 510.68Z" fill="#363435"/>
<path d="M37.6127 508.486C37.8106 510.083 37.5316 511.704 36.8122 513.137C36.431 514.671 36.4596 516.312 35.8592 517.788C35.4598 518.819 34.8028 519.726 33.9532 520.419L33.877 520.361C34.5631 517.817 35.7067 515.554 36.4786 513.059C36.4655 511.473 36.8112 509.904 37.4888 508.476L37.6127 508.486Z" fill="#363435"/>
<path d="M53.5756 464.359C55.4861 464.359 57.035 462.781 57.035 460.834C57.035 458.888 55.4861 457.31 53.5756 457.31C51.665 457.31 50.1162 458.888 50.1162 460.834C50.1162 462.781 51.665 464.359 53.5756 464.359Z" fill="#F7A897" stroke="#231F20" stroke-width="0.430723" stroke-miterlimit="10"/>
<path d="M46.2581 433.391C46.1914 433.527 42.7797 433.119 43.6469 436.382C44.5142 439.644 46.3725 442.149 48.9075 438.926" fill="#F7A897"/>
<path d="M46.2581 433.391C46.1914 433.527 42.7797 433.119 43.6469 436.382C44.5142 439.644 46.3725 442.149 48.9075 438.926" stroke="#231F20" stroke-width="0.430723" stroke-miterlimit="10"/>
<path d="M44.7232 441.645C45.9759 441.645 46.9913 440.611 46.9913 439.334C46.9913 438.058 45.9759 437.023 44.7232 437.023C43.4706 437.023 42.4551 438.058 42.4551 439.334C42.4551 440.611 43.4706 441.645 44.7232 441.645Z" fill="#FC1D73" stroke="#231F20" stroke-width="0.430723" stroke-miterlimit="10"/>
<path d="M44.8175 441.072C45.4701 441.072 45.9992 440.533 45.9992 439.868C45.9992 439.203 45.4701 438.664 44.8175 438.664C44.1648 438.664 43.6357 439.203 43.6357 439.868C43.6357 440.533 44.1648 441.072 44.8175 441.072Z" fill="#FF9900" stroke="#231F20" stroke-width="0.430723" stroke-miterlimit="10"/>
<path d="M82.0179 443.295C82.0179 443.295 81.1411 437.722 81.2746 437.469L82.0179 443.295Z" fill="white"/>
<path d="M82.0181 443.295C81.0372 441.525 80.7706 439.436 81.2747 437.469C82.0809 439.294 82.3396 441.321 82.0181 443.295Z" fill="#363435"/>
<path d="M85.8523 449.906C85.8523 449.906 86.9864 443.109 81.3256 443.381C81.3256 443.381 77.8186 443.381 78.8192 449.615C81.1038 450.303 83.5205 450.404 85.8523 449.906Z" fill="#FF9900" stroke="#231F20" stroke-width="0.430723" stroke-miterlimit="10"/>
<path d="M85.8514 449.906C86.2625 450.568 86.5274 451.313 86.6278 452.089C86.7282 452.865 86.6616 453.654 86.4328 454.402C86.0193 453.741 85.7529 452.997 85.6525 452.22C85.5521 451.443 85.62 450.653 85.8514 449.906Z" fill="#363435"/>
<path d="M82.5607 450.238C82.8991 450.825 83.0831 451.491 83.0948 452.171C83.1065 452.852 82.9455 453.524 82.6274 454.122C82.289 453.535 82.1051 452.87 82.0934 452.189C82.0817 451.509 82.2427 450.837 82.5607 450.238Z" fill="#363435"/>
<path d="M78.8231 449.616C79.1157 450.125 79.2546 450.71 79.2224 451.299C79.1902 451.888 78.9883 452.454 78.6421 452.927C78.3495 452.418 78.2106 451.832 78.2428 451.243C78.275 450.655 78.4769 450.088 78.8231 449.616Z" fill="#363435"/>
<path d="M82.6674 456.705C83.399 456.705 83.9921 456.101 83.9921 455.356C83.9921 454.61 83.399 454.006 82.6674 454.006C81.9358 454.006 81.3428 454.61 81.3428 455.356C81.3428 456.101 81.9358 456.705 82.6674 456.705Z" fill="#F7A897" stroke="#231F20" stroke-width="0.430723" stroke-miterlimit="10"/>
<path d="M78.8169 455.657C79.5484 455.657 80.1415 455.053 80.1415 454.307C80.1415 453.562 79.5484 452.958 78.8169 452.958C78.0853 452.958 77.4922 453.562 77.4922 454.307C77.4922 455.053 78.0853 455.657 78.8169 455.657Z" fill="#F7A897" stroke="#231F20" stroke-width="0.430723" stroke-miterlimit="10"/>
<path d="M86.5942 457.007C87.3258 457.007 87.9189 456.403 87.9189 455.657C87.9189 454.912 87.3258 454.308 86.5942 454.308C85.8626 454.308 85.2695 454.912 85.2695 455.657C85.2695 456.403 85.8626 457.007 86.5942 457.007Z" fill="#F7A897" stroke="#231F20" stroke-width="0.430723" stroke-miterlimit="10"/>
<path d="M81.7162 448.362C82.3846 448.362 82.9265 447.81 82.9265 447.129C82.9265 446.448 82.3846 445.896 81.7162 445.896C81.0477 445.896 80.5059 446.448 80.5059 447.129C80.5059 447.81 81.0477 448.362 81.7162 448.362Z" fill="#F7A897" stroke="#231F20" stroke-width="0.430723" stroke-miterlimit="10"/>
<path d="M59.912 431.532C60.0645 431.415 57.053 428.104 53.5841 429.872C53.1812 430.081 52.8064 430.342 52.4691 430.648C51.7473 431.353 50.828 431.811 49.8389 431.959C49.8389 431.959 53.5555 433.464 54.3561 433.658C54.985 433.804 56.548 434.183 59.912 431.532Z" fill="white" stroke="#363435" stroke-width="0.430723" stroke-miterlimit="10"/>
<path d="M57.2054 430.881C57.3565 429.793 56.7227 428.801 55.7899 428.667C54.857 428.532 53.9783 429.306 53.8273 430.394C53.6762 431.483 54.3099 432.474 55.2428 432.609C56.1756 432.743 57.0543 431.97 57.2054 430.881Z" fill="#333333" stroke="#363435" stroke-width="0.430658" stroke-miterlimit="10" stroke-linecap="round"/>
<path d="M57.5039 427.819C57.5039 427.819 54.1399 426.557 52.739 428.13L51.1475 429.994C51.1475 429.994 54.0922 427.411 57.361 428.45C57.3705 428.45 57.8375 428.178 57.5039 427.819Z" fill="white" stroke="#363435" stroke-width="0.430723" stroke-miterlimit="10"/>
<path d="M63.395 435.267C63.395 435.267 62.0513 435.626 61.4414 433.732L63.395 435.267Z" fill="white"/>
<path d="M63.395 435.267C63.395 435.267 62.0513 435.626 61.4414 433.732" stroke="#363435" stroke-width="0.430723" stroke-miterlimit="10"/>
<path d="M62.6395 439.296C62.6395 439.296 59.0086 440.442 56.4355 437.801" stroke="#363435" stroke-width="0.430723" stroke-miterlimit="10"/>
</svg>
