<svg width="159" height="549" viewBox="0 0 159 549" fill="none" xmlns="http://www.w3.org/2000/svg">
<path d="M77.4683 465.707L25.0888 21.7663M96.7132 457.993L44.2966 13.7385M143.464 484.771L86.3687 0.860886M115.201 434.343L64.7214 6.50754" stroke="black" stroke-width="0.939102" stroke-miterlimit="10" stroke-linecap="round"/>
<path d="M70.6572 472.937C69.9511 473.459 64.1419 477.375 62.6628 480.501C61.7022 483.008 61.0499 485.625 60.7207 488.293C60.7144 488.419 60.7452 488.545 60.8093 488.654C60.8733 488.762 60.9677 488.849 61.0805 488.903C61.1933 488.958 61.3196 488.976 61.4433 488.958C61.567 488.939 61.6826 488.884 61.7755 488.798C63.5553 486.563 65.4828 484.452 67.5445 482.482C67.3473 483.358 67.2211 484.25 67.1673 485.147C67.1665 485.208 67.1845 485.269 67.2188 485.32C67.2531 485.37 67.3019 485.409 67.3587 485.431C67.4156 485.453 67.4777 485.456 67.5367 485.44C67.5956 485.425 67.6485 485.392 67.6883 485.345C68.6029 484.435 69.4008 483.412 70.0631 482.3C71.5336 480.861 72.6454 479.087 73.3057 477.126L74.3681 473.416L70.6572 472.937Z" fill="#F7A897" stroke="#363435" stroke-width="0.446101" stroke-miterlimit="10"/>
<path d="M145.678 490.81C145.678 490.81 143.899 493.439 146.227 498.785C146.265 498.868 146.326 498.939 146.403 498.988C146.481 499.036 146.57 499.061 146.661 499.058C146.752 499.055 146.84 499.025 146.915 498.972C146.99 498.919 147.048 498.845 147.081 498.759C147.441 497.669 147.698 496.546 147.848 495.407C148.452 497.193 148.865 499.041 149.078 500.919C149.085 500.989 149.113 501.055 149.157 501.109C149.202 501.163 149.261 501.201 149.328 501.22C149.395 501.239 149.465 501.238 149.531 501.215C149.597 501.193 149.655 501.151 149.697 501.095C151.198 498.955 152.195 496.494 152.61 493.905C152.688 493.147 152.515 492.385 152.119 491.74L149.836 488.068L146.658 487.663L145.678 490.81Z" fill="#F7A897" stroke="#363435" stroke-width="0.446101" stroke-miterlimit="10"/>
<path d="M113.646 527.031C113.667 527.21 113.855 533.016 113.211 533.814C112.567 534.611 106.883 538.045 102.762 537.537C102.73 537.523 102.694 537.523 102.662 537.537C102.63 537.55 102.604 537.576 102.591 537.608C102.578 537.641 102.577 537.677 102.591 537.71C102.604 537.742 102.629 537.768 102.661 537.782C105.946 540.302 109.843 541.873 113.943 542.331C114.168 542.36 114.396 542.369 114.623 542.358C115.98 542.3 120.687 542.018 121.692 540.903L124.086 525.451L114.183 525.055C114.137 525.091 113.646 527.031 113.646 527.031Z" fill="#F7A897" stroke="#363435" stroke-width="0.446101" stroke-miterlimit="10"/>
<path d="M85.3178 523.3C85.3158 523.32 85.3182 523.34 85.3248 523.359C85.2834 523.86 85.1447 529.342 84.4631 530.073C83.7816 530.805 77.5984 533.108 73.4726 532.388C73.4205 532.381 73.3674 532.39 73.3204 532.414C73.2734 532.439 73.2349 532.477 73.21 532.524C73.1851 532.571 73.175 532.625 73.1811 532.678C73.1872 532.731 73.2092 532.781 73.2442 532.821C76.4686 535.947 80.563 537.991 84.9763 538.678C85.3452 538.682 91.2701 538.694 92.6223 537.566C92.6616 537.529 92.6874 537.48 92.6955 537.426L95.7449 522.732C95.7529 522.696 95.7533 522.66 95.746 522.624C95.7386 522.589 95.7237 522.555 95.7023 522.526C95.681 522.497 95.6536 522.473 95.6222 522.456C95.5907 522.439 95.556 522.429 95.5202 522.426L85.9457 521.423C85.9457 521.423 85.3905 523.068 85.3178 523.3Z" fill="#F7A897" stroke="#363435" stroke-width="0.446101" stroke-miterlimit="10"/>
<path d="M85.1084 526.556C85.1084 526.556 92.197 525.404 94.7726 527.444L94.4346 529.069C94.4346 529.069 87.7071 527.343 84.8783 528.339L85.1084 526.556Z" fill="#FF9900" stroke="#363435" stroke-width="0.446101" stroke-miterlimit="10"/>
<path d="M113.678 530.259C113.678 530.259 120.685 528.664 123.38 530.537L123.034 532.354C123.034 532.354 116.45 530.399 113.691 531.568L113.678 530.259Z" fill="#FF9900" stroke="#363435" stroke-width="0.446101" stroke-miterlimit="10"/>
<path d="M62.8871 508.437L60.224 511.198C60.224 511.198 63.5989 520.015 72.904 518.76C72.904 518.76 80.5538 527.379 89.7812 523.663C89.7812 523.663 101.38 531.511 108.887 526.173C108.887 526.173 117.941 531.392 123.684 527.231C123.684 527.231 132.888 531.252 139.486 524.182L134.086 514.295C134.086 514.295 74.8805 507.03 74.5994 506.752C74.3184 506.475 62.8871 508.437 62.8871 508.437Z" fill="#FF9900" stroke="#363435" stroke-width="0.446101" stroke-miterlimit="10"/>
<path d="M97.9549 454.532C97.6293 454.815 89.0681 475.489 74.6927 483.34C74.6927 483.34 80.3157 487.412 84.8373 486.982C89.3589 486.552 105.288 461.748 105.288 461.748L116.998 436.033L111.723 436.577C111.723 436.577 100.583 446.3 100.023 446.623C99.4629 446.945 97.9549 454.532 97.9549 454.532Z" fill="#FF9900" stroke="#363435" stroke-width="0.446101" stroke-miterlimit="10"/>
<path d="M95.7439 456.756C95.0477 464.212 92.9694 471.473 89.6186 478.156C83.7187 489.765 72.9057 502.287 63.2197 508.059C63.1688 508.088 63.1257 508.13 63.0937 508.18C63.0618 508.23 63.0421 508.287 63.0363 508.346C63.0305 508.405 63.0387 508.464 63.0603 508.52C63.0819 508.575 63.1163 508.624 63.1605 508.662C64.6521 510.013 70.3349 514.775 75.9983 514.234C77.9365 516.241 80.3686 517.686 83.0444 518.419C85.7203 519.153 88.5432 519.148 91.2231 518.406C91.2231 518.406 101.132 524.483 108.529 518.813C108.529 518.813 120.589 523.774 124.91 518.284C124.91 518.284 133.088 520.947 136.282 517.933C136.282 517.933 126.627 478.248 129.669 465.186C129.669 465.186 137.142 481.662 145.202 490.93C145.202 490.93 148.788 489.908 149.911 488.01C149.911 488.01 142.997 458.961 135.013 445.55C135.013 445.55 131.091 439.741 125.272 441.858L105.126 439.894C104.716 439.854 104.302 439.885 103.902 439.985C100.898 440.793 87.995 445.277 75.9819 464.861C74.7798 466.841 73.4191 468.717 71.9138 470.471L70.2999 472.349C70.2999 472.349 72.2341 477.334 74.1932 477.738C74.196 477.677 88.3287 467.067 95.7439 456.756Z" fill="#FC1D73" stroke="#363435" stroke-width="0.446101" stroke-miterlimit="10"/>
<path d="M95.8458 473.375C96.3284 473.315 96.6735 472.869 96.6165 472.379C96.5596 471.889 96.1221 471.541 95.6395 471.601C95.1569 471.661 94.8118 472.106 94.8688 472.596C94.9258 473.086 95.3632 473.434 95.8458 473.375Z" fill="#FF9900" stroke="#363435" stroke-width="0.446101" stroke-miterlimit="10"/>
<path d="M99.6378 475.067C100.12 475.007 100.465 474.562 100.409 474.072C100.352 473.582 99.9141 473.234 99.4315 473.294C98.9489 473.354 98.6038 473.799 98.6608 474.289C98.7178 474.779 99.1552 475.127 99.6378 475.067Z" fill="#FF9900" stroke="#363435" stroke-width="0.446101" stroke-miterlimit="10"/>
<path d="M103.556 476.468C104.038 476.408 104.383 475.963 104.326 475.473C104.27 474.983 103.832 474.635 103.349 474.695C102.867 474.754 102.522 475.2 102.579 475.69C102.636 476.18 103.073 476.528 103.556 476.468Z" fill="#FF9900" stroke="#363435" stroke-width="0.446101" stroke-miterlimit="10"/>
<path d="M107.935 477.544C108.417 477.484 108.762 477.039 108.705 476.549C108.648 476.059 108.211 475.711 107.728 475.771C107.246 475.831 106.901 476.276 106.958 476.766C107.015 477.256 107.452 477.604 107.935 477.544Z" fill="#FF9900" stroke="#363435" stroke-width="0.446101" stroke-miterlimit="10"/>
<path d="M112.263 478.209C112.745 478.149 113.09 477.703 113.034 477.214C112.977 476.724 112.539 476.375 112.056 476.435C111.574 476.495 111.229 476.941 111.286 477.431C111.343 477.92 111.78 478.269 112.263 478.209Z" fill="#FF9900" stroke="#363435" stroke-width="0.446101" stroke-miterlimit="10"/>
<path d="M116.314 478.13C116.796 478.07 117.141 477.625 117.084 477.135C117.027 476.645 116.59 476.297 116.107 476.357C115.625 476.417 115.28 476.862 115.337 477.352C115.394 477.842 115.831 478.19 116.314 478.13Z" fill="#FF9900" stroke="#363435" stroke-width="0.446101" stroke-miterlimit="10"/>
<path d="M120.357 477.756C120.839 477.696 121.184 477.25 121.127 476.76C121.07 476.271 120.633 475.922 120.15 475.982C119.668 476.042 119.323 476.488 119.38 476.978C119.437 477.467 119.874 477.816 120.357 477.756Z" fill="#FF9900" stroke="#363435" stroke-width="0.446101" stroke-miterlimit="10"/>
<path d="M124.21 476.696C124.693 476.636 125.038 476.19 124.981 475.7C124.924 475.211 124.486 474.862 124.004 474.922C123.521 474.982 123.176 475.428 123.233 475.917C123.29 476.407 123.727 476.756 124.21 476.696Z" fill="#FF9900" stroke="#363435" stroke-width="0.446101" stroke-miterlimit="10"/>
<path d="M130.727 427.95C130.727 427.95 130.883 435.202 132.451 436.686C132.451 436.686 127.587 437.027 124.754 434.608L127.796 427.252L130.564 426.635L130.727 427.95Z" fill="#333333" stroke="#363435" stroke-width="0.446101" stroke-miterlimit="10" stroke-linecap="round"/>
<path d="M107.175 419.357C106.616 420.841 105.711 422.166 104.537 423.219C103.364 424.271 101.957 425.019 100.439 425.398C100.439 425.398 100.492 426.544 104.025 428.834C104.025 428.834 104.793 435.439 108.47 436.568C108.47 436.568 108.047 439.016 107.173 439.458C107.173 439.458 112.963 444.378 123.416 442.129C123.416 442.129 122.172 438.878 123.091 438.047C124.3 437.034 125.363 435.854 126.248 434.542L129.224 428.108C129.224 428.108 124.963 422.725 124.779 422.597C124.595 422.468 107.175 419.357 107.175 419.357Z" fill="#F7A897" stroke="#363435" stroke-width="0.446101" stroke-miterlimit="10"/>
<path d="M114.833 408.631C114.833 408.631 115.194 407.456 117.882 407.637C120.57 407.818 125.178 411.152 125.178 411.152L125.468 411.933L116.806 410.193L114.833 408.631Z" fill="#FF9900" stroke="#363435" stroke-width="0.446101" stroke-miterlimit="10"/>
<path d="M119.785 410.564C119.785 410.564 113.355 405.958 108.689 409.326C104.023 412.694 107.173 419.314 107.173 419.314L119.785 410.564Z" fill="#FF9900" stroke="#363435" stroke-width="0.446101" stroke-miterlimit="10"/>
<path d="M117.612 410.927C117.612 410.927 109.472 408.302 107.12 410.766C104.768 413.23 106.051 417.324 107.12 419.323L112.905 417.705L117.612 410.927Z" fill="#FF9900" stroke="#363435" stroke-width="0.446101" stroke-miterlimit="10"/>
<path d="M107.152 419.351C107.074 419.361 113.854 406.964 126.427 411.594C127.109 411.502 127.799 411.666 128.369 412.055C128.938 412.443 129.347 413.03 129.52 413.704C129.52 413.704 132.339 414.485 132.438 416.2C132.438 416.2 135.333 417.639 134.796 419.948C135.171 420.541 135.341 421.246 135.279 421.95C135.216 422.654 134.926 423.319 134.452 423.839C134.657 424.163 134.786 424.53 134.832 424.913C134.877 425.296 134.837 425.685 134.714 426.05C134.591 426.416 134.388 426.749 134.122 427.025C133.855 427.301 133.53 427.512 133.173 427.644C130.421 428.895 125.619 427.572 125.619 427.572C125.619 427.572 119.711 423.508 117.334 422.763C114.958 422.018 110.398 420.473 107.152 419.351Z" fill="#FF9900" stroke="#363435" stroke-width="0.446101" stroke-miterlimit="10"/>
<path d="M116.118 447.021C116.182 446.512 115.297 445.979 114.141 445.831C112.984 445.684 111.995 445.976 111.931 446.485C111.867 446.994 112.752 447.526 113.908 447.674C115.064 447.822 116.054 447.53 116.118 447.021Z" fill="#FF9900" stroke="#363435" stroke-width="0.446101" stroke-miterlimit="10"/>
<path d="M130.06 483.602C130.244 485.868 129.131 484.171 129.131 484.171C128.397 487.69 126.563 485.357 126.563 485.357C125.803 488.738 123.881 486.244 123.881 486.244C122.917 489.671 120.404 486.968 120.404 486.968C119.538 490.806 116.462 487.296 116.462 487.296C113.997 491.756 111.959 487.068 111.959 487.068C108.676 491.509 107.896 486.352 107.896 486.352C103.938 490.554 103.863 485.128 103.863 485.128C100.549 487.939 99.8449 483.428 99.8449 483.428C96.2208 485.199 96.4824 481.637 96.4824 481.637C93.3445 482.884 93.0552 479.461 93.0552 479.461C89.0205 480.183 89.9443 477.437 89.9443 477.437L97.1682 479.666L106.858 483.506C106.858 483.506 115.363 485.546 115.708 485.433C116.053 485.32 123.565 484.559 123.74 484.517L130.06 483.602Z" fill="white" stroke="#363435" stroke-width="0.446101" stroke-miterlimit="10"/>
<path d="M90.9443 475.569C90.9443 475.569 111.994 485.452 128.306 480.292C128.306 480.292 130.389 483.311 130.069 483.633C129.748 483.955 113.003 495.997 90.0064 477.511L90.9443 475.569Z" fill="#F7A897" stroke="#363435" stroke-width="0.446101" stroke-miterlimit="10"/>
<path d="M90.5422 476.408C90.5422 476.408 108.184 488.055 128.909 481.273L128.233 480.249C128.233 480.249 113.92 485.469 90.866 475.431L90.5422 476.408Z" fill="#FF9900" stroke="#363435" stroke-width="0.446101" stroke-miterlimit="10"/>
<path d="M86.7539 496.401C86.6753 496.41 81.3273 505.588 78.0213 508.769L86.7539 496.401Z" fill="white"/>
<path d="M86.7539 496.401C86.6753 496.41 81.3273 505.588 78.0213 508.769" stroke="#363435" stroke-width="0.446101" stroke-miterlimit="10"/>
<path d="M96.5551 502.169C96.5551 502.169 95.3095 512.554 92.1949 514.853" stroke="#363435" stroke-width="0.446101" stroke-miterlimit="10"/>
<path d="M108.682 503.244C107.981 507.188 107.777 511.204 108.074 515.196L108.682 503.244Z" fill="white"/>
<path d="M108.682 503.244C107.981 507.188 107.777 511.204 108.074 515.196" stroke="#363435" stroke-width="0.446101" stroke-miterlimit="10"/>
<path d="M122.745 502.374C122.948 502.652 122.373 510.349 125.017 515.593" stroke="#363435" stroke-width="0.446101" stroke-miterlimit="10"/>
<path d="M80.2361 498.345C80.2361 498.345 75.4271 500.751 75.314 500.978C75.2009 501.204 74.2779 505.341 74.2779 505.341L79.2973 503.202L80.2361 498.345Z" stroke="#363435" stroke-width="0.446101" stroke-miterlimit="10"/>
<path d="M89.744 502.596L85.6485 505.097L85.6959 510.988L90.108 507.952L89.744 502.596Z" stroke="#363435" stroke-width="0.446101" stroke-miterlimit="10"/>
<path d="M102.057 506.156L99.4984 509.185L101.789 513.968L104.799 509.851L102.057 506.156Z" fill="white" stroke="#363435" stroke-width="0.446101" stroke-miterlimit="10"/>
<path d="M116.426 506.053L113.662 509.462L116.161 513.207L118.357 509.89L116.426 506.053Z" fill="white" stroke="#363435" stroke-width="0.446101" stroke-miterlimit="10"/>
<path d="M128.114 503.802L126.006 507.706L128.62 511.833L130.573 507.878L128.114 503.802Z" stroke="#363435" stroke-width="0.446101" stroke-miterlimit="10"/>
<path d="M68.1387 514.882C68.3533 514.15 67.6389 513.289 66.5432 512.958C65.4475 512.627 64.3853 512.951 64.1707 513.683C63.9562 514.414 64.6705 515.275 65.7662 515.606C66.8619 515.937 67.9241 515.613 68.1387 514.882Z" fill="#F7A897" stroke="#363435" stroke-width="0.446101" stroke-miterlimit="10"/>
<path d="M85.5859 522.374C85.8005 521.643 85.0862 520.782 83.9905 520.45C82.8948 520.119 81.8325 520.444 81.618 521.175C81.4034 521.906 82.1178 522.767 83.2135 523.098C84.3092 523.429 85.3714 523.105 85.5859 522.374Z" fill="#F7A897" stroke="#363435" stroke-width="0.446101" stroke-miterlimit="10"/>
<path d="M102.909 524.893C102.948 524.131 102.055 523.467 100.913 523.409C99.7717 523.352 98.814 523.923 98.7742 524.686C98.7344 525.448 99.6277 526.112 100.769 526.17C101.911 526.227 102.869 525.656 102.909 524.893Z" fill="#F7A897" stroke="#363435" stroke-width="0.446101" stroke-miterlimit="10"/>
<path d="M119.939 525.443C120.068 524.691 119.261 523.921 118.134 523.723C117.008 523.524 115.99 523.973 115.86 524.724C115.73 525.476 116.538 526.246 117.664 526.445C118.791 526.643 119.809 526.194 119.939 525.443Z" fill="#F7A897" stroke="#363435" stroke-width="0.446101" stroke-miterlimit="10"/>
<path d="M134.058 524.79C134.057 524.032 133.126 523.423 131.98 523.43C130.834 523.438 129.906 524.059 129.907 524.817C129.909 525.575 130.839 526.184 131.986 526.177C133.132 526.169 134.06 525.548 134.058 524.79Z" fill="#F7A897" stroke="#363435" stroke-width="0.446101" stroke-miterlimit="10"/>
<path d="M95.698 456.69C96.7478 455.226 97.6945 453.689 98.531 452.091L95.698 456.69Z" fill="white"/>
<path d="M95.698 456.69C96.7478 455.226 97.6945 453.689 98.531 452.091" stroke="#363435" stroke-width="0.446101" stroke-miterlimit="10"/>
<path d="M124.646 441.73C124.646 441.73 131.974 438.585 134.617 444.171C134.617 444.171 136.032 456.296 135.613 460.428C135.195 464.56 138.038 495.36 146.921 513L148.508 516.134C148.508 516.134 143.485 516.574 141.752 515.868C140.018 515.161 134.241 514.186 133.164 514.906C133.164 514.906 126.073 480.633 128.314 457.728C128.32 457.778 128.483 443.483 124.646 441.73Z" fill="#FF9900" stroke="#363435" stroke-width="0.446101" stroke-miterlimit="10"/>
<path d="M144.086 489.732L149.522 486.836L149.81 488.113C148.571 489.535 146.924 490.527 145.103 490.949L144.086 489.732Z" fill="#FF9900" stroke="#363435" stroke-width="0.446101" stroke-miterlimit="10"/>
<path d="M140.562 484.951L148.034 481.155L147.271 478.361L139.076 482.701L140.562 484.951Z" fill="#FF9900" stroke="#363435" stroke-width="0.446101" stroke-miterlimit="10"/>
<path d="M71.6776 470.638C71.6776 470.638 73.9624 476.221 75.293 476.774L74.2318 477.594C74.2318 477.594 72.2189 476.832 70.3339 472.201L71.6776 470.638Z" fill="#FF9900" stroke="#363435" stroke-width="0.446101" stroke-miterlimit="10"/>
<path d="M74.3578 467.291C74.2971 467.37 77.4817 475 77.4817 475L78.7571 473.951L75.2043 466.073L74.3578 467.291Z" fill="#FF9900" stroke="#363435" stroke-width="0.446101" stroke-miterlimit="10"/>
<path d="M107.153 419.328C105.408 416.473 120.207 410.661 129.504 413.698C129.659 413.749 132.81 414.587 132.42 416.186L111.177 420.904L107.153 419.328Z" fill="#FF9900" stroke="#363435" stroke-width="0.446101" stroke-miterlimit="10"/>
<path d="M112.61 420.107L132.393 416.222C132.393 416.222 136.069 417.466 134.748 419.951L113.066 421.628L111.18 420.977L112.61 420.107Z" fill="#FF9900" stroke="#363435" stroke-width="0.446101" stroke-miterlimit="10"/>
<path d="M113.531 421.507L134.479 419.989C134.479 419.989 137.179 420.198 134.442 423.848L121.217 424.812C118.77 423.457 116.195 422.35 113.531 421.507Z" fill="#FF9900" stroke="#363435" stroke-width="0.446101" stroke-miterlimit="10"/>
<path d="M110.115 421.453C110.115 421.453 114.05 419.955 115.675 421.772L117.538 423.932C117.538 423.932 114.086 420.95 110.269 422.181C110.269 422.181 109.726 421.875 110.115 421.453Z" fill="white" stroke="#363435" stroke-width="0.446101" stroke-miterlimit="10"/>
<path d="M107.863 424.365C107.744 424.198 112.199 421.434 115.511 424.495C115.901 424.856 116.24 425.269 116.52 425.723C117.118 426.738 118.015 427.538 119.085 428.009C119.085 428.009 114.429 428.536 113.47 428.504C112.712 428.487 110.842 428.416 107.863 424.365Z" fill="white" stroke="#363435" stroke-width="0.446101" stroke-miterlimit="10"/>
<path d="M104.133 428.878C104.612 428.381 105.252 428.077 105.934 428.022C106.616 427.967 107.293 428.165 107.84 428.579C109.661 429.938 112.452 433.994 114.697 433.443C115.024 433.352 115.313 433.152 115.517 432.876C116.079 432.15 117.449 430.405 117.178 431.246C117.178 431.246 116.388 434.293 114.922 434.778C113.455 435.263 112.829 435.351 108.399 432.094C108.399 432.094 106.533 430.004 104.531 431.191C104.531 431.191 103.114 429.701 104.133 428.878Z" fill="#333333" stroke="#363435" stroke-width="0.446101" stroke-miterlimit="10" stroke-linecap="round"/>
<path d="M78.0887 486.916C78.0887 486.916 108.302 475.178 132.913 496.978L130.989 508.323C130.989 508.323 102.001 524.341 76.4777 499.585L78.0887 486.916Z" fill="#F7A897" stroke="#363435" stroke-width="0.446101" stroke-miterlimit="10"/>
<path d="M129.656 494.315L126.83 510.147C126.83 510.147 103.13 521.432 79.6554 502.666L81.8098 485.766C81.8098 485.766 108.353 477.692 129.656 494.315Z" fill="#FF9900" stroke="#363435" stroke-width="0.446101" stroke-miterlimit="10"/>
<path d="M103.632 484.09L99.0669 512.276C99.0669 512.276 100.717 515.896 104.386 512.941L107.537 484.618C107.537 484.618 105.63 482.304 103.632 484.09Z" fill="#F7A897" stroke="#363435" stroke-width="0.446101" stroke-miterlimit="10"/>
<path d="M81.2175 490.339L103.501 484.725" stroke="#363435" stroke-width="0.446101" stroke-miterlimit="10"/>
<path d="M80.9703 492.461C81.5372 492.451 99.3341 509.748 99.4721 509.478C99.4045 510.405 99.2857 511.328 99.116 512.243L80.7457 494.299L80.9703 492.461Z" fill="#F7A897" stroke="#363435" stroke-width="0.446101" stroke-miterlimit="10"/>
<path d="M107.423 485.275L128.914 498.246" stroke="#363435" stroke-width="0.446101" stroke-miterlimit="10"/>
<path d="M128.787 499.588L104.702 510.201L104.396 512.952L128.084 502.267L128.787 499.588Z" fill="#F7A897" stroke="#363435" stroke-width="0.446101" stroke-miterlimit="10"/>
<path d="M81.7352 485.679L104.395 439.754" stroke="#363435" stroke-width="0.446101" stroke-miterlimit="10"/>
<path d="M125.58 441.655L126.812 492.41" stroke="#363435" stroke-width="0.446101" stroke-miterlimit="10"/>
<path d="M98.66 497.298C98.8506 495.79 97.3198 494.352 95.2408 494.086C93.1618 493.821 91.3219 494.828 91.1313 496.336C90.9407 497.844 92.4715 499.282 94.5505 499.548C96.6295 499.814 98.4694 498.806 98.66 497.298Z" fill="#F7A897" stroke="#363435" stroke-width="0.446101" stroke-miterlimit="10"/>
<path d="M116.901 499.673C117.092 498.165 115.561 496.727 113.482 496.461C111.403 496.195 109.563 497.202 109.372 498.711C109.182 500.219 110.713 501.657 112.792 501.922C114.871 502.188 116.711 501.181 116.901 499.673Z" fill="#F7A897" stroke="#363435" stroke-width="0.446101" stroke-miterlimit="10"/>
<path d="M106.939 439.441C106.939 439.441 118.098 443.096 123.17 441.459C123.17 441.459 125.643 440.488 125.421 442.249C125.198 444.01 115.632 445.579 105.439 440.484C105.323 440.427 105.226 440.336 105.162 440.223C105.097 440.111 105.067 439.981 105.075 439.85C105.083 439.72 105.129 439.594 105.208 439.49C105.286 439.386 105.393 439.308 105.515 439.265C105.997 439.175 106.494 439.237 106.939 439.441Z" fill="#FF9900" stroke="#363435" stroke-width="0.446101" stroke-miterlimit="10"/>
<path d="M114.212 465.874C117.861 465.421 120.471 462.051 120.04 458.347C119.609 454.643 116.301 452.008 112.652 452.462C109.002 452.915 106.393 456.285 106.824 459.989C107.255 463.693 110.563 466.328 114.212 465.874Z" fill="#F7A897" stroke="#363435" stroke-width="0.446101" stroke-miterlimit="10"/>
<path d="M113.241 464.045C115.107 463.814 116.441 462.091 116.22 460.198C116 458.305 114.309 456.958 112.444 457.19C110.579 457.421 109.245 459.144 109.465 461.037C109.685 462.93 111.376 464.277 113.241 464.045Z" fill="#FF9900" stroke="#363435" stroke-width="0.446101" stroke-miterlimit="10"/>
<path d="M114.645 425.89C114.806 424.609 114.054 423.458 112.964 423.319C111.874 423.18 110.859 424.105 110.697 425.385C110.536 426.666 111.288 427.817 112.378 427.956C113.468 428.095 114.483 427.17 114.645 425.89Z" fill="#333333" stroke="#363435" stroke-width="0.446101" stroke-miterlimit="10" stroke-linecap="round"/>
<path d="M125.63 427.626C125.63 427.626 129.838 425.576 128.838 428.978C127.838 432.379 126.642 433.752 125.789 432.503" fill="#F7A897"/>
<path d="M125.63 427.626C125.63 427.626 129.838 425.576 128.838 428.978C127.838 432.379 126.642 433.752 125.789 432.503" stroke="#363435" stroke-width="0.446101" stroke-miterlimit="10"/>
<path d="M67.5954 482.477C67.8636 481.805 68.2151 481.17 68.6413 480.587L67.5954 482.477Z" fill="white"/>
<path d="M67.5954 482.477C67.8636 481.805 68.2151 481.17 68.6413 480.587" stroke="#363435" stroke-width="0.446101" stroke-miterlimit="10"/>
</svg>
