<svg width="3000" height="3000" viewBox="0 0 3000 3000" fill="none" xmlns="http://www.w3.org/2000/svg">
<path d="M407.869 562.746H564.874C567.874 577.574 567.805 589.575 551.943 597.23C547.494 599.334 543.667 607.575 543.529 613.093C542.977 640.68 543.977 668.577 543.77 696.337C543.77 700.233 540.667 706.682 537.598 707.613C454.836 735.2 370.696 749.683 284.176 727.165C248.313 717.854 219.898 702.716 190.035 673.336C169.034 652.645 157.207 632.61 152.931 620.127C151.551 615.92 134.137 578.195 135.033 545.642C135.93 513.641 137.309 482.33 149.586 452.329C161.485 422.757 180.425 396.537 204.76 375.947C229.02 355.208 257.727 340.329 288.659 332.463C364.523 313.29 439.457 319.394 513.7 341.67C524.873 345.119 536.115 348.188 548.701 351.843C546.805 360.568 544.632 368.809 543.322 377.189C540.322 396.5 537.322 415.845 535.218 435.259C534.356 443.122 531.322 446.087 523.77 445.398C520.329 445.077 516.865 445.077 513.424 445.398C504.597 446.225 500.941 442.88 501.424 433.57C502.148 423.216 501.789 412.814 500.355 402.534C499.856 399.674 498.779 396.945 497.19 394.514C495.601 392.083 493.533 390.001 491.113 388.396C427.525 356.292 361.558 349.222 294.556 375.706C254.485 391.568 229.519 423.604 218.484 464.743C199.035 537.159 210.794 602.678 266.175 656.853C292.452 682.474 325.177 694.785 361.178 698.233C395.46 701.041 429.956 696.948 462.63 686.198C470.561 683.75 474.078 679.819 474.113 671.577C474.113 651.128 474.665 630.714 475.251 610.265C475.492 601.816 471.354 598.816 463.492 598.333C449.698 597.471 435.905 595.713 421.939 594.885C411.352 594.333 405.731 590.644 407.594 578.988C408.093 573.589 408.185 568.159 407.869 562.746Z" fill="#A31C21"/>
<path d="M1885.02 715.645C1883.91 723.404 1882.98 730.059 1882.15 735.853H1756.5C1755.74 716.611 1755.74 716.611 1773.29 712.955C1794.91 708.438 1802.6 701.748 1804.5 680.609C1809.36 625.608 1814.12 570.572 1817.15 515.466C1819.08 480.465 1811.19 472.775 1776.91 467.568C1771.81 466.81 1766.74 465.844 1761.77 464.982C1760.94 442.809 1761.43 442.706 1782.46 443.809C1806.32 445.085 1830.19 446.016 1854.08 446.119C1863.05 446.119 1866.29 450.12 1870.29 457.43C1905.33 520.915 1940.98 584.055 1976.54 647.298C1977.12 648.298 1978.5 648.85 1980.64 650.505C1984.3 644.953 1987.92 639.781 1991.19 634.401C2027.06 575.296 2062.78 516.156 2098.85 457.189C2101.02 453.74 2105.75 449.43 2109.2 449.326C2133.89 448.637 2158.58 448.947 2184.41 448.947V471.086C2176.03 472.362 2167.96 473.741 2159.85 474.776C2149.75 476.017 2144.44 481.879 2142.85 491.604C2141.9 495.855 2141.34 500.183 2141.16 504.535C2142.61 565.813 2143.89 627.091 2146.13 688.368C2146.82 706.886 2152.58 711.472 2169.78 713.335C2187.72 715.3 2188.51 716.507 2183.37 736.818H2053.4C2048.92 718.99 2049.95 717.3 2067.92 712.059C2089.64 705.748 2095.2 700.334 2095.82 675.782C2096.71 640.16 2095.61 604.469 2095.02 568.882C2095.02 557.813 2093.57 546.743 2092.54 531.812C2089.37 535.49 2086.4 539.335 2083.64 543.329C2047.78 603.848 2007.78 662.092 1979.85 727.094C1978.43 729.201 1976.52 730.931 1974.29 732.133C1972.05 733.334 1969.56 733.972 1967.02 733.99C1964.57 733.497 1962.27 732.439 1960.3 730.901C1958.33 729.362 1956.75 727.386 1955.67 725.128C1931.02 657.092 1889.67 598.021 1854.4 535.743C1854.05 535.122 1852.95 534.915 1851.4 534.088C1850.51 535.869 1849.86 537.758 1849.46 539.709C1846.33 587.986 1842.88 635.987 1840.46 684.161C1839.36 706.369 1843.91 710.507 1865.88 713.507C1871.81 714.197 1877.78 714.783 1885.02 715.645Z" fill="#A31C21"/>
<path d="M849.608 456.091C850.401 448.711 851.125 442.297 851.78 436.228H968.405L971.405 456.263C969.818 457.47 969.198 458.298 968.474 458.401C944.68 462.367 941.197 465.091 940.266 488.988C937.955 548.507 936.542 608.061 934.852 667.614C934.801 671.535 935.043 675.454 935.576 679.339C938.473 704.029 938.645 704.202 962.991 709.34C964.611 709.837 966.191 710.46 967.715 711.202V728.892C931.404 728.892 895.92 728.892 860.47 728.892C843.987 728.892 853.16 715.788 848.78 710.098C850.401 708.65 850.677 708.202 851.056 708.098C881.85 699.995 882.092 699.995 883.816 666.718C884.919 646.752 885.333 626.751 886.368 606.785C886.816 598.474 883.781 595.302 875.195 595.198C815.676 594.578 756.134 593.67 696.569 592.474C688.086 592.474 684.775 595.578 684.741 603.75C684.741 630.268 684.465 656.786 684.292 683.304C684.292 694.96 689.568 701.995 701.534 703.995C708.431 705.133 715.018 707.029 722.949 708.823L720.328 727.202C681.81 727.202 644.222 727.996 606.704 726.409C600.842 726.168 595.393 715.374 587.358 706.96C599.945 704.581 607.393 702.581 614.945 701.857C625.291 700.891 629.256 695.167 629.774 685.649C631.429 654.821 633.912 624.027 634.67 593.198C635.613 555.404 635.705 517.598 634.946 479.781C634.636 462.539 631.498 459.746 613.911 458.16C605.807 457.435 602.462 455.229 602.6 446.573C602.738 437.918 606.704 434.642 614.29 434.573C632.118 434.4 649.912 434.573 667.74 434.573H726.845C731.432 457.435 730.777 458.987 710.914 459.849C698.224 460.401 691.465 465.574 690.775 478.333C689.431 503.471 688.086 528.61 686.603 553.749C686.224 560.473 689.12 562.921 695.776 562.956C755.777 563.37 815.768 563.91 875.747 564.577C882.85 564.577 887.333 562.99 887.195 554.507C886.781 529.748 886.471 504.954 886.816 480.195C886.988 466.919 880.161 461.47 868.16 459.884C862.643 459.194 857.125 457.677 849.608 456.091Z" fill="#A31C21"/>
<path d="M2850.6 734.267C2836.53 729.094 2820.26 725.197 2809.91 715.438C2784.43 691.3 2761.63 664.678 2738.15 638.471C2729.43 628.677 2722.39 617.401 2714.01 606.228C2713.97 606.19 2713.94 606.144 2713.92 606.094C2713.9 606.043 2713.89 605.99 2713.89 605.935C2713.89 605.881 2713.9 605.827 2713.92 605.776C2713.94 605.726 2713.97 605.68 2714.01 605.642C2722.56 601.09 2729.84 597.573 2736.74 593.435C2761.05 578.745 2777.39 558.054 2775.88 528.812C2774.32 498.984 2757.12 478.362 2730.36 465.396C2702.08 451.603 2672.25 448.948 2641.42 450.672C2609.32 452.43 2577.21 453.051 2545.08 454.12C2541.92 454.369 2538.77 454.795 2535.66 455.396C2535.58 455.416 2535.51 455.459 2535.45 455.521C2535.4 455.582 2535.36 455.659 2535.35 455.741C2534.39 462.12 2533.59 467.5 2532.7 473.5C2532.68 473.6 2532.71 473.7 2532.77 473.783C2532.82 473.865 2532.91 473.924 2533.01 473.948C2566.21 483.155 2567.01 483.293 2567.11 517.846C2567.11 563.089 2566.11 608.297 2565.14 653.54C2564.83 669.127 2563.52 684.576 2562.63 700.335C2561.9 712.404 2555.73 719.542 2543.56 721.301C2542.7 721.362 2541.85 721.584 2541.08 721.956C2539.37 723.138 2538.08 724.827 2537.39 726.784C2534.42 732.991 2534.73 740.577 2540.83 743.543C2541.9 744.112 2543.08 744.452 2544.28 744.543C2575.46 745.853 2606.63 746.393 2637.8 746.164C2640.52 745.779 2643.12 744.749 2645.36 743.159C2647.6 741.57 2649.43 739.467 2650.7 737.025C2653.73 728.335 2646.32 725.301 2639.15 723.232C2615.84 716.335 2615.8 716.335 2614.73 692.196C2614.35 683.058 2613.91 673.954 2613.84 664.816C2613.66 647.264 2613.84 629.746 2613.84 611.78C2613.84 611.676 2613.89 611.58 2613.97 611.51C2614.05 611.439 2614.15 611.4 2614.25 611.401C2638.56 611.125 2657.22 612.47 2672.6 633.884C2694.23 663.794 2718.66 691.576 2745.56 716.852C2773.39 743.129 2807.64 759.129 2847.5 757.095C2850.38 756.839 2853.14 755.81 2855.49 754.117C2857.84 752.424 2859.69 750.129 2860.84 747.474C2863.71 740.06 2857.74 736.887 2850.6 734.267ZM2694.84 577.745C2671.98 582.917 2647.84 582.538 2624.22 583.676C2621.8 583.676 2617.11 578.02 2616.87 574.71C2615.94 563.054 2616.53 551.261 2616.53 544.433C2618.08 522.605 2618.8 505.639 2620.84 488.845C2621.32 484.776 2625.49 478.5 2629.04 477.776C2668.42 468.293 2708.36 479.776 2722.15 523.812C2729.49 546.951 2718.53 572.4 2694.84 577.745Z" fill="#A31C21"/>
<path d="M1705.25 510.879C1666.01 452.877 1584.83 424.67 1513.31 444.429C1463.83 458.222 1424.07 485.154 1400.41 531.914C1371.24 589.537 1393.52 664.125 1452.14 706.954C1511.83 750.783 1606.87 749.128 1668.42 702.816C1706.91 673.919 1727.32 635.331 1728.8 591.088C1728.18 559.329 1720.84 533.949 1705.25 510.879ZM1670.39 641.331C1656.87 686.402 1609.28 714.058 1557.59 706.851C1492.28 697.816 1440.35 638.228 1440.07 572.364C1439.86 497.534 1511.35 449.119 1584.9 474.292C1617.91 485.777 1645.23 509.551 1661.15 540.666C1677.07 571.781 1680.38 607.838 1670.39 641.331Z" fill="#A31C21"/>
<path d="M1289.97 471.984C1258.87 448.851 1221.39 435.902 1182.65 434.915C1143.91 433.927 1105.81 444.948 1073.58 466.467C1021.65 500.951 996.164 557.056 1008.37 610.506C1025.61 685.715 1090.34 734.889 1176.82 734.647C1215.58 734.981 1253.43 722.897 1284.83 700.164C1363.66 643.748 1366.35 528.262 1289.97 471.984ZM1293.69 605.575C1290.69 676.335 1231.62 718.475 1160.55 700.474C1105.55 686.68 1060.79 632.713 1057.1 576.332C1053.1 512.813 1100.37 464.087 1165.44 464.605C1238.03 465.225 1296.86 529.986 1293.69 605.575Z" fill="#A31C21"/>
<path d="M2478.73 696.028C2446.07 616.026 2413.21 536.161 2380.49 456.159C2377.97 449.917 2375.9 445.813 2368.11 445.813C2359.76 445.813 2355.79 449.262 2352.86 456.814C2345.59 475.849 2338.14 494.746 2329.48 513.298C2311.72 551.024 2293.34 588.508 2274.76 625.819C2262.55 650.303 2250.21 674.752 2236.52 698.408C2232.31 705.684 2224.1 713.822 2216.48 715.339C2200.79 718.443 2202.38 727.201 2204.48 739.478H2308.52C2312.66 721.822 2312.28 721.201 2295.48 717.477C2291.28 716.546 2287.07 715.511 2282.86 714.442C2273.69 712.098 2270.86 706.89 2274.96 697.994C2281.86 682.959 2288.76 667.958 2295 652.716C2295.99 649.396 2298.1 646.518 2300.96 644.566C2303.82 642.613 2307.27 641.704 2310.72 641.992C2339.41 642.406 2368.07 642.44 2396.73 643.164C2398.55 643.379 2400.29 644.01 2401.83 645.009C2403.37 646.008 2404.65 647.347 2405.59 648.923C2413.21 666.406 2420.28 684.166 2427.14 701.994C2430.42 710.477 2427.9 715.58 2418.11 717.822C2402.62 721.27 2401.38 724.96 2406.04 740.891H2514.83V719.374C2497.18 719.581 2485.32 712.132 2478.73 696.028ZM2315.21 613.474L2353.66 527.264L2391.9 613.474H2315.21Z" fill="#A31C21"/>
<g filter="url(#filter0_ddddd_2585_733)">
<path d="M570.02 1519.69C550.19 1637.73 531.956 1760.63 515.905 1888.06C500.548 2010.05 488.172 2128.44 478.327 2242.91L478.225 2244.09L477.123 2244.55C420.398 2268.16 363.911 2291.65 307.187 2315.25L304.826 2316.23L304.482 2313.7C291.794 2220.06 280.18 2142.09 271.409 2085.13V2085.13C255.861 1984.09 249.277 1949.66 244.239 1924.46C239.189 1899.2 235.681 1883.15 226.296 1818.92C217.59 1759.37 210.955 1706.99 185.79 1637.34L184.448 1633.68C170.561 1596.05 155.948 1566.11 145.262 1545.88L143.854 1543.21L146.861 1543L316.798 1530.96L318.643 1530.83L318.886 1532.67L376.983 1969.83L429.271 1528.15L429.462 1526.53L431.093 1526.42C453.909 1524.91 476.716 1523.41 499.522 1521.91C522.329 1520.41 545.136 1518.91 567.951 1517.41L570.432 1517.24L570.02 1519.69Z" fill="#FC6A03" stroke="black" stroke-width="3.93198"/>
<path d="M868.869 1494.49C861.286 1520.46 851.232 1557.06 841.291 1601.36L840.329 1605.67C818.69 1703.08 795.73 1806.55 802.786 1929.99L802.94 1932.61C806.297 1987.95 816.825 2066.21 849.313 2158.06L850.043 2160.12L847.914 2160.62L613.311 2216.28L610.185 2217.02L610.946 2213.9C617.007 2189.06 626.324 2148.61 634.982 2098.22V2098.22C657.282 1968.79 681.225 1829.54 642.535 1671.91C633.65 1635.81 617.052 1580.59 583.99 1515.88L582.086 1512.16L586.171 1513.07C632.908 1523.54 703.456 1532.44 785.389 1516.08C816.049 1509.93 843.086 1501.3 866.257 1492.11L869.996 1490.63L868.869 1494.49Z" fill="#FC6A03" stroke="black" stroke-width="3.93198"/>
<path d="M1373.77 1134.44L1402.38 1281.6L1402.44 1281.88L1402.41 1282.16L1341.68 1917.03C1359.55 1915.49 1385.34 1915.59 1414.49 1924.07L1414.5 1924.07C1429.87 1928.56 1442.83 1934.37 1453.23 1940.01L1454.68 1940.79L1454.16 1942.36C1439.11 1987.47 1424.1 2032.58 1409.05 2077.73L1408.56 2079.2L1407.01 2079.06C1363.3 2075.22 1314.2 2073.73 1260.66 2076.81C1235.4 2078.27 1211.35 2080.62 1188.61 2083.56L1186.03 2083.89L1186.41 2081.32C1242.5 1704.94 1243.82 1495.23 1247.23 1179.76L1247.25 1178.4L1248.52 1177.93L1371.16 1132.97L1373.33 1132.18L1373.77 1134.44Z" fill="#FC6A03" stroke="black" stroke-width="3.93198"/>
<path d="M1587.66 1530.69C1607.96 1531.57 1628.27 1532.45 1648.57 1533.33L1709.47 1535.96L1711.09 1536.03L1711.33 1537.64C1723.75 1621.1 1736.15 1704.57 1748.56 1788.03C1760.96 1871.5 1773.36 1954.97 1785.78 2038.43L1786.06 2040.31L1784.19 2040.65L1662.38 2063.23L1660.43 2063.59L1660.09 2061.63L1638.43 1938.59C1631.65 1936.9 1624.86 1935.21 1618.08 1933.52C1611.55 1931.89 1605.02 1930.26 1598.49 1928.64C1589.51 1972.74 1580.49 2016.83 1571.47 2060.92L1571.16 2062.46L1569.59 2062.5C1547.4 2063 1525.22 2063.5 1503.04 2064C1480.85 2064.51 1458.67 2065.01 1436.48 2065.51L1433.81 2065.57L1434.54 2063.01C1450.1 2008.34 1465.56 1954.06 1481.11 1899.4C1477.54 1898.5 1473.97 1897.62 1470.41 1896.73C1466.19 1895.68 1461.96 1894.63 1457.73 1893.58C1454.74 1892.83 1451.03 1892.08 1447.76 1890.69C1444.42 1889.27 1441.26 1887.09 1439.42 1883.31V1883.3C1437.25 1878.86 1438.33 1874.23 1439.44 1870.42C1440.62 1866.32 1441.83 1862.25 1443.04 1858.17L1450.46 1832.9C1452.92 1824.47 1455.39 1816.05 1457.89 1807.62L1457.89 1807.61C1458.93 1804.14 1460.57 1800.58 1463.22 1798.27C1466.03 1795.82 1469.76 1794.97 1474.32 1796.58H1474.33C1482.13 1799.32 1489.8 1803.29 1497.13 1806.63L1497.14 1806.63C1500.22 1808.04 1503.28 1809.48 1506.33 1810.92C1532.77 1718.02 1559.25 1625.01 1585.69 1532.12L1586.11 1530.62L1587.66 1530.69ZM1616.1 1842.65C1614.52 1850.38 1612.94 1858.12 1611.35 1865.86C1616.71 1868.99 1622.02 1872.15 1627.33 1875.36L1619.05 1828.21C1618.07 1833.02 1617.08 1837.84 1616.1 1842.65Z" fill="#FC6A03" stroke="black" stroke-width="3.93198"/>
<path d="M1619.86 1773.32L1642.93 1900.47L1643.69 1904.69L1639.99 1902.51C1625.22 1893.79 1610.45 1885.28 1595.52 1876.84L1594.27 1876.13L1594.57 1874.72C1598.15 1857.8 1601.72 1840.9 1605.28 1823.99C1608.85 1807.09 1612.42 1790.18 1616 1773.26L1619.86 1773.32Z" fill="black" stroke="black" stroke-width="3.93198"/>
<path d="M2293.53 1581.26C2321.96 1568.24 2354.31 1566.59 2385.13 1569.47L2385.12 1569.47C2422.92 1572.98 2464.44 1585.76 2484.58 1618.91L2485.24 1620.03C2499 1643.56 2499.26 1673.01 2491.93 1698.94L2491.93 1698.94C2478.93 1744.81 2443.72 1782.22 2402.04 1804.84C2360.94 1827.15 2313.9 1836.27 2267.39 1838.68C2267.85 1849.12 2266.83 1859.58 2266.02 1869.81C2265.15 1880.75 2264.51 1891.48 2266.02 1902.08C2267.51 1912.54 2272.37 1923.27 2279.44 1931.05C2286.51 1938.83 2295.62 1943.52 2305.71 1942.42H2305.71C2316.65 1941.26 2326.22 1933.3 2331.73 1923.35L2331.73 1923.35C2337.28 1913.39 2339.27 1901.77 2340.23 1890.09V1890.09C2340.83 1882.83 2341.45 1874.63 2343.55 1867.3C2345.65 1859.95 2349.32 1853.21 2356.23 1849.11C2362.97 1845.07 2371.11 1844.91 2378.29 1845.05H2378.29C2399.81 1845.52 2421.27 1848.58 2442.05 1854.14L2444.06 1854.69L2444.08 1854.69L2444.09 1854.7C2445.39 1855.07 2446.77 1855.46 2448.12 1855.89H2448.12C2453.77 1857.65 2459.54 1860.14 2463.81 1864.75H2463.81C2469.13 1870.34 2471 1877.57 2471.06 1884.96C2471.11 1891.89 2469.58 1899.11 2467.66 1905.63L2467.27 1906.92C2455.15 1946.32 2434.88 1983.13 2408.51 2014.81C2395.49 2030.48 2380.94 2044.89 2365.17 2057.76C2358.07 2063.57 2351 2070.04 2343.56 2075.56C2336.29 2080.96 2328.44 2085.64 2319.3 2088.32L2318.41 2088.58C2294.07 2095.32 2268.98 2103.16 2243.27 2092.34V2092.34C2224.42 2084.42 2210.32 2068.39 2199.48 2051.54V2051.54C2164.66 1997.33 2157 1929.88 2161.31 1865.99L2161.51 1863.17C2165.82 1804.07 2179.63 1745.66 2202.62 1691.05V1691.05C2221.18 1646.98 2248.4 1602.56 2292.18 1581.89L2293.53 1581.26ZM2378.28 1661.6C2373.87 1658.57 2368.22 1658.36 2362.29 1659.76C2356.4 1661.16 2350.55 1664.09 2346.11 1666.85C2335.34 1673.55 2326.1 1683.01 2318.06 1692.94L2318.06 1692.95C2300.83 1714.27 2289.8 1739.49 2281.73 1765.95C2282 1765.93 2282.28 1765.92 2282.57 1765.92H2282.59C2312.75 1766.22 2342.06 1752.78 2361.01 1729.21C2368.96 1719.32 2374.95 1707.79 2378.59 1695.65C2380.39 1689.58 2381.72 1683.33 2382.29 1677.07C2382.57 1674.05 2382.73 1670.93 2382.2 1668.15C2381.69 1665.41 2380.54 1663.15 2378.28 1661.6L2378.28 1661.6Z" fill="#FC6A03" stroke="black" stroke-width="3.93198"/>
<path d="M2027.44 1494.3C2035.72 1493.15 2052.58 1490.84 2071.49 1492.64C2090.39 1494.43 2111.54 1500.35 2128.27 1515.81C2142.21 1528.69 2148.94 1544.4 2154.99 1559.7L2156.2 1562.76L2156.75 1564.18C2168.21 1594.04 2168.3 1618.49 2168.37 1646.13L2168.38 1652.18C2168.39 1665.91 2168.18 1677.05 2166.65 1686.14C2164.88 1696.62 2161.32 1704.58 2154.17 1710.8C2144.51 1719.21 2132.42 1720.77 2124.56 1721.81C2109.86 1723.75 2097.91 1719.96 2075.57 1712.71V1712.71C2060.03 1707.68 2051.83 1703.16 2047.42 1699.82L2047.42 1699.82C2044.91 1697.9 2043.41 1695.45 2042.59 1694.32L2041.62 1692.99L2042.75 1691.8C2048.02 1686.27 2050.74 1680.88 2052.17 1677.4C2054.12 1672.61 2055.48 1669.12 2054.68 1664.58L2054.68 1664.57L2054.68 1664.56C2054.56 1663.85 2053.65 1659.09 2049.97 1655.48L2049.97 1655.48C2047 1652.55 2043.12 1651.31 2039.32 1650.89C2035.51 1650.46 2031.96 1650.88 2029.77 1651.14H2029.77C2020.12 1652.29 2011.37 1657.58 2003.88 1664.16C1996.39 1670.73 1990.32 1678.44 1986 1684.21C1961.01 1717.62 1947.88 1748.61 1943.01 1760.48V1760.48L1943.01 1760.48C1943.01 1760.48 1943.01 1760.48 1943.01 1760.49C1943.01 1760.49 1943 1760.5 1943 1760.52C1942.98 1760.54 1942.97 1760.59 1942.94 1760.64C1942.9 1760.76 1942.83 1760.93 1942.74 1761.17C1942.55 1761.63 1942.28 1762.33 1941.94 1763.25C1941.24 1765.11 1940.24 1767.86 1939.02 1771.47C1936.59 1778.68 1933.28 1789.3 1929.81 1802.88C1922.87 1830.03 1915.29 1869 1912.71 1916.25V1916.25C1912.5 1920.11 1912.26 1928.34 1917.39 1934.2H1917.39C1921.66 1939.06 1929.37 1941.91 1937.55 1941.98C1945.69 1942.05 1953.82 1939.33 1958.9 1933.66L1958.9 1933.66C1961.82 1930.41 1963.95 1925.92 1964.79 1921.7C1965.66 1917.36 1965.06 1913.95 1963.46 1912.27L1963.31 1912.12C1962.56 1911.42 1961.6 1911.06 1960.28 1910.95C1958.8 1910.81 1957.1 1911 1955.02 1911.21C1951.04 1911.61 1945.91 1912.1 1941.18 1908.98V1908.98C1935.22 1905.06 1932.62 1897.86 1932.12 1887.78V1887.77C1931.25 1869.45 1931.98 1851.1 1934.32 1832.92C1937.67 1806.75 1943.31 1794.05 1951.48 1784.43L1951.48 1784.43C1963.11 1770.76 1979.81 1765.01 1996.49 1762.9C2013.17 1760.8 2030.12 1762.32 2042.51 1763.43C2055.1 1764.55 2069.77 1765.84 2083.25 1769.89C2096.76 1773.94 2109.3 1780.82 2117.45 1793.26L2117.95 1794.02C2120.42 1797.9 2122.76 1802.68 2124.15 1810.2C2125.57 1817.91 2125.97 1828.45 2124.53 1843.83L2124.39 1845.33C2120.91 1880.55 2112.96 1915.35 2100.84 1948.61L2100.84 1948.61C2085.28 1991.4 2061.48 2033.27 2023.95 2059.74C2021.78 2061.27 2005.12 2070.7 1981.18 2076.26C1957.19 2081.83 1925.7 2083.57 1894.03 2069.43C1862.22 2055.23 1844.94 2031.52 1836.96 2020.3V2020.3C1822.78 2000.39 1800.1 1959.37 1805.01 1852.15L1805.77 1835.76C1809.59 1755.36 1814.38 1697.43 1852.12 1633.08C1858.08 1622.91 1876.35 1591.75 1905.85 1561.38C1935.12 1531.27 1975.59 1501.78 2026.24 1494.47L2027.44 1494.3Z" fill="#FC6A03" stroke="black" stroke-width="3.93198"/>
<path d="M896.423 829.715C921.078 862.418 972.934 920.321 1056.6 945.821C1075.86 951.695 1094.18 955.061 1110.91 956.776L1112.88 956.978L1112.67 958.945C1086.88 1195.22 1069.01 1444.32 1061.99 1705.2L1061.67 1717.63C1059.71 1794.78 1058.72 1870.82 1058.7 1945.77C1078.87 1942.67 1099.04 1939.57 1119.22 1936.47C1140.15 1933.25 1161.08 1930.04 1182 1926.82L1184.99 1926.36L1184.2 1929.28C1175.82 1960.16 1167.45 1991.03 1159.08 2021.89C1150.7 2052.76 1142.33 2083.63 1133.96 2114.51L1133.57 2115.95L1132.07 2115.96C1033.31 2116.65 980.111 2123.69 887.833 2147.46L884.999 2148.19L885.395 2145.29C922.091 1876.37 942.754 1565.75 926.593 1222.37L926.593 1222.37C920.191 1085.02 908.374 954.406 892.903 831.143L891.984 823.827L896.423 829.715Z" fill="#FC6A03" stroke="black" stroke-width="3.93198"/>
</g>
<path d="M704.796 1036.95C815.664 1036.95 905.853 1127.13 905.853 1238C905.853 1348.84 815.629 1439.06 704.796 1439.06C593.927 1439.06 503.737 1348.87 503.737 1238C503.737 1127.13 593.927 1036.95 704.796 1036.95ZM704.796 1080.91C618.196 1080.91 547.741 1151.37 547.741 1237.97C547.741 1324.57 618.196 1395.02 704.796 1395.02C791.395 1395.02 861.849 1324.57 861.849 1237.97C861.849 1151.37 791.395 1080.91 704.796 1080.91Z" fill="#88746D" stroke="black" stroke-width="1.07226"/>
<path d="M704.732 1128.14C765.289 1128.14 814.563 1177.41 814.563 1237.97C814.563 1298.53 765.289 1347.8 704.732 1347.8C644.175 1347.8 594.901 1298.53 594.901 1237.97C594.901 1177.41 644.175 1128.14 704.732 1128.14ZM704.732 1175.61C670.351 1175.61 642.373 1203.59 642.373 1237.97C642.373 1272.35 670.351 1300.33 704.732 1300.33C739.113 1300.33 767.091 1272.35 767.091 1237.97C767.091 1203.59 739.112 1175.61 704.732 1175.61Z" fill="#CEB481" stroke="black" stroke-width="1.07226"/>
<path d="M704.752 1200.47C725.463 1200.47 742.253 1217.26 742.253 1237.97C742.253 1258.68 725.463 1275.47 704.752 1275.47C684.041 1275.47 667.251 1258.68 667.251 1237.97C667.251 1217.26 684.041 1200.47 704.752 1200.47Z" fill="#E18964" stroke="black" stroke-width="1.07226"/>
<path d="M2650.55 1219.64C2618.26 1231.85 2583.5 1242.59 2548.69 1251.65L2548.68 1251.65C2516.15 1260.01 2483.27 1267.54 2449.89 1273.44L2449.89 1273.44C2446.84 1274.03 2443.73 1274.57 2440.66 1275.09C2440.89 1275.3 2441.11 1275.52 2441.33 1275.73L2441.43 1275.71L2441.8 1276.07C2443.23 1277.49 2444.64 1278.74 2446.16 1280.08L2446.42 1280.3L2446.44 1280.41C2467.09 1299.82 2488.4 1318.48 2510.49 1336.9L2510.49 1336.9C2522.81 1347.21 2535.3 1356.95 2548.03 1366.93C2560.59 1376.69 2573.37 1386.24 2586.34 1395.4C2599.95 1366.23 2612.51 1336.65 2623.73 1307.07L2623.73 1307.07C2634.35 1279.14 2643.88 1250.72 2651.13 1222.66L2650.55 1219.64Z" fill="url(#paint0_linear_2585_733)" stroke="black" stroke-width="1.96599"/>
<path d="M2227.43 1296.66C2246.53 1320.42 2266.54 1344.42 2287.44 1367.88C2308.5 1391.01 2330.53 1414.71 2353.39 1437.16C2371.19 1410.06 2388.09 1383.49 2403.89 1355.79L2403.89 1355.79L2406.89 1350.58C2413.85 1338.44 2420.63 1326.37 2427.2 1314.22C2434.37 1300.71 2441.3 1287.24 2448.01 1273.81C2375.32 1286.84 2301.47 1294.57 2227.43 1296.66Z" fill="url(#paint1_linear_2585_733)" stroke="black" stroke-width="1.96599"/>
<path d="M2012.97 1287.02C2028.51 1313.45 2044.86 1340.59 2062.26 1366.13L2062.27 1366.14C2071.12 1379.35 2080.21 1392.58 2089.53 1405.82L2089.53 1405.83C2098.66 1418.89 2108.02 1431.76 2117.62 1444.25C2139.09 1419.84 2159.62 1396.21 2179.24 1371.04C2198.7 1346.03 2217.27 1321.88 2234.87 1296.28C2160.84 1298.73 2086.59 1295.58 2012.97 1287.02Z" fill="url(#paint2_linear_2585_733)" stroke="black" stroke-width="1.96599"/>
<path d="M1801.76 1247.63C1813.51 1275.88 1826.1 1304.37 1839.54 1333.06C1853.28 1361.21 1867.93 1389.45 1883.45 1417.91C1895.53 1407.93 1907.5 1397.38 1919.27 1386.72L1919.27 1386.72C1931.33 1375.84 1943.15 1364.93 1954.75 1353.98L1954.75 1353.98C1977.4 1332.89 1999.35 1310.3 2020.39 1287.83C2002.33 1285.83 1984.19 1284.03 1966.22 1280.91L1966.22 1280.91L1938.27 1276.6C1928.95 1275.23 1919.61 1273.78 1910.36 1271.77L1854.88 1260.7L1854.86 1260.69L1854.84 1260.69L1801.76 1247.63Z" fill="url(#paint3_linear_2585_733)" stroke="black" stroke-width="1.96599"/>
<path d="M1597.5 1179.39C1605.39 1209.03 1613.96 1239.24 1623.47 1269.26C1633.29 1298.97 1643.92 1328.98 1655.37 1359.26C1678.9 1344.78 1702.32 1328.57 1724.96 1312.61L1734.75 1305.7C1747.75 1296.41 1760.55 1287.07 1773.12 1277.66L1773.12 1277.66C1785.18 1268.58 1797.19 1258.88 1808.94 1249.39C1800.46 1247.27 1791.83 1245.36 1783.37 1242.94L1783.37 1242.94L1756.2 1234.91L1756.19 1234.91C1738.23 1229.37 1719.78 1224.8 1702.02 1218.17L1648.46 1199.64L1648.45 1199.63L1648.43 1199.63C1631.38 1193.1 1614.46 1186.12 1597.5 1179.39Z" fill="url(#paint4_linear_2585_733)" stroke="black" stroke-width="1.96599"/>
<path d="M1403.18 1085.19C1405.17 1100.22 1407.19 1115.55 1409.6 1130.51C1411.87 1144.06 1414.28 1157.69 1416.82 1171.4L1417.92 1177.27C1423.79 1208.18 1430.19 1239.77 1437.61 1271.12C1466.92 1257.18 1495.5 1242.88 1523.32 1228.25L1523.33 1228.24C1550.72 1214.11 1578.02 1198.16 1604.42 1182.2C1569.62 1169.04 1536.14 1152.46 1502.23 1137.32L1502.21 1137.32L1502.19 1137.31C1485.17 1128.96 1468.4 1119.98 1451.53 1111.38L1451.53 1111.38L1426.23 1098.35L1426.22 1098.35C1418.43 1094.18 1410.82 1089.57 1403.18 1085.19Z" fill="url(#paint5_linear_2585_733)" stroke="black" stroke-width="1.96599"/>
<path d="M1220.76 967.975C1221.48 996.826 1222.68 1026.03 1224.37 1055.58L1224.72 1061.63C1226.84 1093.16 1230.05 1124.38 1233.63 1156.38C1264.14 1146.25 1293.59 1136.44 1323.47 1124.5L1323.47 1124.5L1329.1 1122.3C1356.55 1111.51 1383.44 1100.39 1409.76 1088.96C1377.51 1070.18 1344.73 1052.17 1313.64 1031.19C1297.74 1020.8 1281.49 1010.8 1265.74 1000.07L1265.73 1000.05L1220.76 967.975Z" fill="url(#paint6_linear_2585_733)" stroke="black" stroke-width="1.96599"/>
<path d="M1220.91 969.006C1222.68 970.336 1224.52 971.65 1226.35 972.884L1226.36 972.891L1226.37 972.899C1282.25 1012.83 1339.22 1049.46 1397.12 1082.46L1397.13 1082.47L1402.96 1085.88L1409.29 1089.55L1421.02 1096.34C1426.08 1099.04 1431.12 1101.64 1436.17 1104.25L1436.74 1104.55C1438.25 1105.3 1439.74 1106.06 1441.22 1106.82C1442.71 1107.58 1444.19 1108.33 1445.69 1109.08L1445.7 1109.09L1494.88 1134.52C1505.47 1139.55 1516.11 1144.39 1526.75 1149.23C1529.84 1150.64 1532.9 1152.04 1535.97 1153.45C1539.03 1154.85 1542.09 1156.26 1545.17 1157.66L1545.17 1157.66L1570.24 1169.15C1575.77 1171.52 1581.27 1173.72 1586.83 1175.81L1586.84 1175.82L1586.85 1175.82L1596 1179.5L1597.38 1180.05L1604.26 1182.81L1647.22 1199.92L1699.42 1217.96L1699.43 1217.97L1699.44 1217.97C1710.69 1222.13 1722.32 1225.67 1733.75 1229.01L1738.63 1230.43C1743.14 1231.73 1747.67 1233.04 1752.13 1234.46C1756.45 1235.71 1760.78 1236.96 1765.01 1238.23L1765.02 1238.23C1776.96 1241.82 1789.25 1245.43 1801.66 1248.28L1801.71 1248.29L1801.77 1248.31C1802.88 1248.7 1803.98 1248.89 1805.31 1249.22L1805.32 1249.22L1805.34 1249.23L1805.35 1249.23C1806.5 1249.55 1807.62 1249.86 1808.71 1250.09L1808.73 1250.09L1808.76 1250.1C1871.79 1266.75 1938.78 1279.02 2012.79 1287.68L2012.86 1287.66L2013.01 1287.67C2014.27 1287.8 2015.49 1287.95 2016.7 1288.1C2017.91 1288.26 2019.11 1288.41 2020.34 1288.53L2020.39 1288.53L2020.43 1288.54C2020.6 1288.57 2020.8 1288.59 2021.06 1288.61C2021.29 1288.63 2021.58 1288.65 2021.86 1288.7C2090.43 1296.23 2159.45 1299.05 2227.37 1297.09L2227.38 1297.09L2227.38 1297.09C2229.92 1297.06 2232.44 1297.02 2234.94 1296.9L2234.94 1296.9L2234.95 1296.9L2241.63 1296.7C2308 1294.23 2375.05 1287.27 2440.96 1275.82L2441.06 1275.8C2443.51 1275.41 2445.77 1274.98 2448.13 1274.52L2448.15 1274.52L2448.55 1274.45C2452.37 1273.8 2456.1 1273.17 2459.89 1272.43C2498.6 1264.87 2532.47 1257.06 2563.34 1248.54L2566.32 1247.72L2592.33 1240.16L2592.33 1240.16L2618.06 1232.02C2630.5 1227.85 2641.28 1224 2650.8 1220.4L2650.15 1217.03C2640.59 1220.7 2629.63 1224.57 2617.08 1228.83L2617.07 1228.84L2617.06 1228.84L2591.4 1236.97L2591.39 1236.97L2591.38 1236.98L2565.42 1244.53L2565.41 1244.53C2533.76 1253.28 2499.07 1261.34 2459.25 1269.11L2459.24 1269.11C2387.36 1282.54 2314.09 1290.69 2241.49 1293.35L2241.49 1293.35C2169.16 1296.05 2095.43 1293.3 2022.24 1285.36L2022.23 1285.36C1943.44 1276.51 1872.75 1263.64 1806.11 1245.89C1792.94 1242.97 1779.86 1239.1 1767.25 1235.37L1766.01 1235C1761.68 1233.75 1757.33 1232.4 1753.1 1231.14C1748.58 1229.83 1744.07 1228.53 1739.55 1227.22L1739.55 1227.22C1726.76 1223.44 1713.37 1219.56 1700.63 1214.84L1700.63 1214.84L1648.4 1196.78L1648.38 1196.77L1648.36 1196.77L1597.23 1176.41L1597.23 1176.41L1588.08 1172.73L1588.08 1172.73C1582.58 1170.53 1577.07 1168.4 1571.7 1166.07L1571.69 1166.07L1571.68 1166.06L1546.59 1154.57L1546.59 1154.57L1546.26 1154.42C1540.2 1151.67 1534.14 1148.91 1528.17 1146.14L1528.17 1146.14C1517.53 1141.3 1506.89 1136.54 1496.37 1131.49L1496.36 1131.48L1496.35 1131.47L1447.24 1106.1L1447.24 1106.1C1444.33 1104.58 1441.32 1103.08 1438.3 1101.57L1438.29 1101.56L1438.28 1101.56C1433.16 1098.85 1427.89 1096.21 1422.72 1093.39L1422.71 1093.39L1422.7 1093.38L1398.78 1079.48L1398.78 1079.49C1356.68 1055.5 1311.9 1026.53 1277.65 1003.56C1260.52 992.069 1246.02 982.079 1235.8 974.962C1230.7 971.403 1226.66 968.562 1223.9 966.61C1222.74 965.794 1221.81 965.133 1221.12 964.64L1220.91 969.006Z" fill="black" stroke="black" stroke-width="1.96599"/>
<path d="M1185 2086.37L1207.62 2109L1269 2097.68L1228.39 2079L1185 2086.37Z" fill="black" stroke="black" stroke-width="1.96599"/>
<path d="M636.837 2238L609 2218.5L636.837 2211L672 2227.5L636.837 2238Z" fill="black" stroke="black" stroke-width="1.96599"/>
<path d="M964.551 879.505L882 770.997L890.97 822.448L940.147 879.505L996 920.997L986.172 902.754L964.551 879.505Z" fill="black" stroke="black" stroke-width="1.96599"/>
<path d="M328.638 2340L301.812 2320.61L300 2298L303.625 2312.54L387 2315.14L328.638 2340Z" fill="black" stroke="black" stroke-width="1.96599"/>
<path d="M340.892 2495.95L246.472 2444.37L255.516 2441.07L271.053 2444.37L312.377 2453.91L375.449 2483.75L393.742 2514.24L340.892 2495.95Z" fill="black" stroke="black" stroke-width="1.96599"/>
<path d="M352.444 1545.86L321.333 1527L312 1528.6L340.598 1550.68L354 1572L352.444 1545.86Z" fill="black" stroke="black" stroke-width="1.96599"/>
<path d="M873.236 1482L846 1500L866.583 1489.67L885.615 1545L893.5 1541.47L903 1506.94L873.236 1482Z" fill="black" stroke="black" stroke-width="1.96599"/>
<path d="M2838 2257.16L2804.25 2239.5L2796.65 2238L2797.86 2239.06L2793 2244.38L2824.62 2261.42L2822.19 2271L2838 2257.16Z" fill="black" stroke="black" stroke-width="1.96599"/>
<path d="M531 2533.76L454.053 2571L419.46 2547.22L408 2529.75L419.46 2541.4L514.511 2517L531 2533.76Z" fill="black" stroke="black" stroke-width="1.96599"/>
<path d="M1146 974.126L1117.88 956.289L1101 953.997L1113.66 961.739L1113.59 967.995L1141.78 1002L1146 974.126Z" fill="black" stroke="black" stroke-width="1.96599"/>
<path d="M1713.24 1533L1745.59 1552.63L1749 1587L1708.14 1536.27L1686 1533H1713.24Z" fill="black" stroke="black" stroke-width="1.96599"/>
<path d="M1656 2046L1659 2067.12L1686 2085L1707 2079.83L1662 2060.62L1656 2046Z" fill="black" stroke="black" stroke-width="1.96599"/>
<path d="M885 2150.8L912.794 2169L930 2159.2L888.971 2148L885 2150.8Z" fill="black" stroke="black" stroke-width="1.96599"/>
<g filter="url(#filter1_ddddd_2585_733)">
<path d="M249.019 2443.42C270.622 2445.87 311.297 2453.47 353.319 2481.12C387.854 2503.85 408.956 2530.76 420.39 2547.9C506.946 2514.86 623.975 2473.5 764.775 2433.44C1079.81 2343.83 1324.93 2314.56 1517.89 2292.39C1772.33 2263.13 2088.08 2228.65 2498.22 2270.07C2600.97 2280.43 2685.72 2293.18 2743.83 2302.83C2763.59 2282 2783.39 2261.17 2803.15 2240.37C2753.49 2224.99 2681.5 2204.78 2593.36 2187.56C2471.6 2163.76 2359.38 2153.56 2161.19 2149.8C2020.4 2147.14 1844.51 2144.22 1600.33 2160.43C1464.9 2169.41 1271.44 2182.79 1019.14 2226.99C867.579 2253.53 672.58 2288.56 427.058 2374.91C353.304 2400.78 292.431 2425.22 249.019 2443.42Z" fill="#AB613F"/>
<path d="M1600.39 2161.41C1844.53 2145.2 2020.39 2148.12 2161.17 2150.79C2359.34 2154.55 2471.49 2164.74 2593.17 2188.53C2680.38 2205.56 2751.76 2225.53 2801.34 2240.84C2782.06 2261.13 2762.75 2281.46 2743.48 2301.78C2685.36 2292.14 2600.79 2279.42 2498.32 2269.09C2088.07 2227.66 1772.23 2262.16 1517.77 2291.41C1324.81 2313.59 1079.63 2342.86 764.506 2432.5C624.068 2472.45 507.273 2513.7 420.769 2546.71C409.192 2529.46 388.104 2502.84 353.86 2480.3L353.859 2480.3C313.954 2454.04 275.261 2445.79 252.831 2442.9C295.981 2424.86 355.575 2401.02 427.383 2375.84L427.384 2375.84C672.826 2289.52 867.761 2254.5 1019.31 2227.96C1271.56 2183.76 1464.97 2170.39 1600.39 2161.41Z" stroke="black" stroke-width="1.96599"/>
</g>
<g filter="url(#filter2_d_2585_733)">
<path d="M1099.55 2680.91C1088.16 2680.91 1078.64 2678.89 1070.99 2674.85C1063.35 2670.8 1057.58 2664.58 1053.68 2656.19C1049.78 2647.65 1047.61 2636.64 1047.16 2623.16L1081.56 2617.99C1081.71 2625.78 1082.39 2632.07 1083.59 2636.87C1084.94 2641.66 1086.73 2645.11 1088.98 2647.2C1091.38 2649.3 1094.23 2650.35 1097.53 2650.35C1101.72 2650.35 1104.42 2648.93 1105.62 2646.08C1106.97 2643.23 1107.65 2640.24 1107.65 2637.09C1107.65 2629.6 1105.85 2623.31 1102.25 2618.21C1098.65 2612.97 1093.78 2607.73 1087.63 2602.48L1071.89 2588.77C1065 2582.93 1059.15 2576.34 1054.35 2569C1049.71 2561.51 1047.38 2552.29 1047.38 2541.35C1047.38 2525.92 1051.96 2514.16 1061.1 2506.07C1070.24 2497.83 1082.69 2493.71 1098.43 2493.71C1108.17 2493.71 1115.97 2495.36 1121.81 2498.66C1127.81 2501.95 1132.31 2506.3 1135.3 2511.69C1138.45 2516.93 1140.55 2522.55 1141.6 2528.55C1142.8 2534.39 1143.47 2540.01 1143.62 2545.4L1109 2549.67C1108.85 2544.28 1108.47 2539.63 1107.87 2535.74C1107.42 2531.69 1106.37 2528.62 1104.72 2526.52C1103.07 2524.28 1100.53 2523.15 1097.08 2523.15C1093.33 2523.15 1090.56 2524.72 1088.76 2527.87C1087.11 2531.02 1086.28 2534.16 1086.28 2537.31C1086.28 2544.05 1087.86 2549.6 1091.01 2553.94C1094.3 2558.13 1098.58 2562.55 1103.82 2567.2L1118.89 2580.46C1126.83 2587.2 1133.51 2594.84 1138.9 2603.38C1144.45 2611.92 1147.22 2622.48 1147.22 2635.07C1147.22 2643.61 1145.27 2651.4 1141.38 2658.44C1137.48 2665.33 1131.93 2670.8 1124.74 2674.85C1117.69 2678.89 1109.3 2680.91 1099.55 2680.91Z" fill="white"/>
<path d="M1166.71 2678.22V2496.18H1248.56V2523.6H1206.96V2568.77H1238.67V2596.64H1206.96V2651.02H1249.01V2678.22H1166.71Z" fill="white"/>
<path d="M1267.28 2678.22V2496.18H1317.43C1329.72 2496.18 1340.36 2497.53 1349.36 2500.23C1358.35 2502.93 1365.32 2507.8 1370.27 2514.84C1375.37 2521.73 1377.91 2531.54 1377.91 2544.28C1377.91 2551.77 1377.31 2558.43 1376.12 2564.28C1374.92 2570.12 1372.67 2575.21 1369.37 2579.56C1366.22 2583.75 1361.65 2587.28 1355.65 2590.12L1380.61 2678.22H1339.01L1319 2596.64H1307.53V2678.22H1267.28ZM1307.53 2573.49H1318.78C1324.47 2573.49 1328.89 2572.52 1332.04 2570.57C1335.19 2568.47 1337.36 2565.55 1338.56 2561.81C1339.91 2557.91 1340.59 2553.27 1340.59 2547.87C1340.59 2540.08 1339.16 2534.01 1336.31 2529.67C1333.47 2525.32 1328.22 2523.15 1320.57 2523.15H1307.53V2573.49Z" fill="white"/>
<path d="M1424.86 2678.22L1392.03 2496.18H1426.43L1446 2619.79L1464.21 2496.18H1500.64L1467.36 2678.22H1424.86Z" fill="white"/>
<path d="M1519.16 2678.22V2496.18H1559.41V2678.22H1519.16Z" fill="white"/>
<path d="M1586.57 2678.22V2496.18H1614.9L1652.23 2583.83V2496.18H1685.5V2678.22H1658.3L1620.97 2583.83V2678.22H1586.57Z" fill="white"/>
<path d="M1760.06 2680.91C1747.46 2680.91 1737.5 2678.29 1730.15 2673.05C1722.95 2667.8 1717.78 2660.46 1714.63 2651.02C1711.64 2641.44 1710.14 2630.42 1710.14 2617.99V2556.86C1710.14 2543.98 1711.79 2532.82 1715.08 2523.38C1718.38 2513.94 1724 2506.67 1731.95 2501.58C1740.04 2496.33 1750.99 2493.71 1764.78 2493.71C1778.27 2493.71 1788.84 2495.96 1796.48 2500.45C1804.28 2504.95 1809.83 2511.17 1813.12 2519.11C1816.42 2527.05 1818.07 2536.34 1818.07 2546.97V2558.66H1778.72V2543.83C1778.72 2539.93 1778.42 2536.34 1777.82 2533.04C1777.37 2529.74 1776.17 2527.12 1774.22 2525.17C1772.42 2523.08 1769.43 2522.03 1765.23 2522.03C1760.88 2522.03 1757.73 2523.23 1755.78 2525.62C1753.84 2527.87 1752.56 2530.72 1751.96 2534.16C1751.51 2537.61 1751.29 2541.21 1751.29 2544.95V2629.22C1751.29 2633.27 1751.66 2637.09 1752.41 2640.69C1753.31 2644.13 1754.81 2646.98 1756.91 2649.23C1759.16 2651.32 1762.31 2652.37 1766.35 2652.37C1770.55 2652.37 1773.77 2651.25 1776.02 2649C1778.27 2646.75 1779.84 2643.83 1780.74 2640.24C1781.64 2636.64 1782.09 2632.82 1782.09 2628.78V2607.43H1765.68V2583.83H1818.3V2678.22H1791.76L1789.51 2663.16C1787.11 2668.25 1783.59 2672.52 1778.94 2675.97C1774.3 2679.27 1768 2680.91 1760.06 2680.91Z" fill="white"/>
<path d="M1901.69 2678.22V2496.18H1941.94V2569.9H1970.05V2496.18H2010.53V2678.22H1970.05V2598.66H1941.94V2678.22H1901.69Z" fill="white"/>
<path d="M2038.26 2678.22V2496.18H2120.11V2523.6H2078.51V2568.77H2110.22V2596.64H2078.51V2651.02H2120.56V2678.22H2038.26Z" fill="white"/>
<path d="M2138.84 2678.22V2496.18H2188.98C2201.27 2496.18 2211.91 2497.53 2220.91 2500.23C2229.9 2502.93 2236.87 2507.8 2241.82 2514.84C2246.92 2521.73 2249.47 2531.54 2249.47 2544.28C2249.47 2551.77 2248.87 2558.43 2247.67 2564.28C2246.47 2570.12 2244.22 2575.21 2240.92 2579.56C2237.77 2583.75 2233.2 2587.28 2227.21 2590.12L2252.16 2678.22H2210.57L2190.55 2596.64H2179.09V2678.22H2138.84ZM2179.09 2573.49H2190.33C2196.02 2573.49 2200.45 2572.52 2203.59 2570.57C2206.74 2568.47 2208.92 2565.55 2210.12 2561.81C2211.46 2557.91 2212.14 2553.27 2212.14 2547.87C2212.14 2540.08 2210.72 2534.01 2207.87 2529.67C2205.02 2525.32 2199.77 2523.15 2192.13 2523.15H2179.09V2573.49Z" fill="white"/>
<path d="M2273.89 2678.22V2496.18H2314.14V2678.22H2273.89Z" fill="white"/>
<path d="M2357.71 2678.22V2526.07H2330.28V2496.18H2425.39V2526.07H2398.19V2678.22H2357.71Z" fill="white"/>
<path d="M2424.54 2678.22L2458.94 2496.18H2504.81L2538.76 2678.22H2501.66L2495.59 2639.79H2468.83L2462.54 2678.22H2424.54ZM2472.43 2615.74H2491.77L2482.1 2544.73L2472.43 2615.74Z" fill="white"/>
<path d="M2601.74 2680.91C2589.15 2680.91 2579.18 2678.29 2571.84 2673.05C2564.64 2667.8 2559.47 2660.46 2556.32 2651.02C2553.32 2641.44 2551.83 2630.42 2551.83 2617.99V2556.86C2551.83 2543.98 2553.47 2532.82 2556.77 2523.38C2560.07 2513.94 2565.69 2506.67 2573.64 2501.58C2581.73 2496.33 2592.68 2493.71 2606.47 2493.71C2619.96 2493.71 2630.53 2495.96 2638.17 2500.45C2645.97 2504.95 2651.51 2511.17 2654.81 2519.11C2658.11 2527.05 2659.76 2536.34 2659.76 2546.97V2558.66H2620.41V2543.83C2620.41 2539.93 2620.11 2536.34 2619.51 2533.04C2619.06 2529.74 2617.86 2527.12 2615.91 2525.17C2614.11 2523.08 2611.11 2522.03 2606.92 2522.03C2602.57 2522.03 2599.42 2523.23 2597.47 2525.62C2595.52 2527.87 2594.25 2530.72 2593.65 2534.16C2593.2 2537.61 2592.98 2541.21 2592.98 2544.95V2629.22C2592.98 2633.27 2593.35 2637.09 2594.1 2640.69C2595 2644.13 2596.5 2646.98 2598.6 2649.23C2600.85 2651.32 2603.99 2652.37 2608.04 2652.37C2612.24 2652.37 2615.46 2651.25 2617.71 2649C2619.96 2646.75 2621.53 2643.83 2622.43 2640.24C2623.33 2636.64 2623.78 2632.82 2623.78 2628.78V2607.43H2607.37V2583.83H2659.98V2678.22H2633.45L2631.2 2663.16C2628.8 2668.25 2625.28 2672.52 2620.63 2675.97C2615.99 2679.27 2609.69 2680.91 2601.74 2680.91Z" fill="white"/>
<path d="M2685.17 2678.22V2496.18H2767.02V2523.6H2725.42V2568.77H2757.13V2596.64H2725.42V2651.02H2767.47V2678.22H2685.17Z" fill="white"/>
<path d="M1099.55 2680.91C1088.16 2680.91 1078.64 2678.89 1070.99 2674.85C1063.35 2670.8 1057.58 2664.58 1053.68 2656.19C1049.78 2647.65 1047.61 2636.64 1047.16 2623.16L1081.56 2617.99C1081.71 2625.78 1082.39 2632.07 1083.59 2636.87C1084.94 2641.66 1086.73 2645.11 1088.98 2647.2C1091.38 2649.3 1094.23 2650.35 1097.53 2650.35C1101.72 2650.35 1104.42 2648.93 1105.62 2646.08C1106.97 2643.23 1107.65 2640.24 1107.65 2637.09C1107.65 2629.6 1105.85 2623.31 1102.25 2618.21C1098.65 2612.97 1093.78 2607.73 1087.63 2602.48L1071.89 2588.77C1065 2582.93 1059.15 2576.34 1054.35 2569C1049.71 2561.51 1047.38 2552.29 1047.38 2541.35C1047.38 2525.92 1051.96 2514.16 1061.1 2506.07C1070.24 2497.83 1082.69 2493.71 1098.43 2493.71C1108.17 2493.71 1115.97 2495.36 1121.81 2498.66C1127.81 2501.95 1132.31 2506.3 1135.3 2511.69C1138.45 2516.93 1140.55 2522.55 1141.6 2528.55C1142.8 2534.39 1143.47 2540.01 1143.62 2545.4L1109 2549.67C1108.85 2544.28 1108.47 2539.63 1107.87 2535.74C1107.42 2531.69 1106.37 2528.62 1104.72 2526.52C1103.07 2524.28 1100.53 2523.15 1097.08 2523.15C1093.33 2523.15 1090.56 2524.72 1088.76 2527.87C1087.11 2531.02 1086.28 2534.16 1086.28 2537.31C1086.28 2544.05 1087.86 2549.6 1091.01 2553.94C1094.3 2558.13 1098.58 2562.55 1103.82 2567.2L1118.89 2580.46C1126.83 2587.2 1133.51 2594.84 1138.9 2603.38C1144.45 2611.92 1147.22 2622.48 1147.22 2635.07C1147.22 2643.61 1145.27 2651.4 1141.38 2658.44C1137.48 2665.33 1131.93 2670.8 1124.74 2674.85C1117.69 2678.89 1109.3 2680.91 1099.55 2680.91Z" stroke="black" stroke-width="6"/>
<path d="M1166.71 2678.22V2496.18H1248.56V2523.6H1206.96V2568.77H1238.67V2596.64H1206.96V2651.02H1249.01V2678.22H1166.71Z" stroke="black" stroke-width="6"/>
<path d="M1267.28 2678.22V2496.18H1317.43C1329.72 2496.18 1340.36 2497.53 1349.36 2500.23C1358.35 2502.93 1365.32 2507.8 1370.27 2514.84C1375.37 2521.73 1377.91 2531.54 1377.91 2544.28C1377.91 2551.77 1377.31 2558.43 1376.12 2564.28C1374.92 2570.12 1372.67 2575.21 1369.37 2579.56C1366.22 2583.75 1361.65 2587.28 1355.65 2590.12L1380.61 2678.22H1339.01L1319 2596.64H1307.53V2678.22H1267.28ZM1307.53 2573.49H1318.78C1324.47 2573.49 1328.89 2572.52 1332.04 2570.57C1335.19 2568.47 1337.36 2565.55 1338.56 2561.81C1339.91 2557.91 1340.59 2553.27 1340.59 2547.87C1340.59 2540.08 1339.16 2534.01 1336.31 2529.67C1333.47 2525.32 1328.22 2523.15 1320.57 2523.15H1307.53V2573.49Z" stroke="black" stroke-width="6"/>
<path d="M1424.86 2678.22L1392.03 2496.18H1426.43L1446 2619.79L1464.21 2496.18H1500.64L1467.36 2678.22H1424.86Z" stroke="black" stroke-width="6"/>
<path d="M1519.16 2678.22V2496.18H1559.41V2678.22H1519.16Z" stroke="black" stroke-width="6"/>
<path d="M1586.57 2678.22V2496.18H1614.9L1652.23 2583.83V2496.18H1685.5V2678.22H1658.3L1620.97 2583.83V2678.22H1586.57Z" stroke="black" stroke-width="6"/>
<path d="M1760.06 2680.91C1747.46 2680.91 1737.5 2678.29 1730.15 2673.05C1722.95 2667.8 1717.78 2660.46 1714.63 2651.02C1711.64 2641.44 1710.14 2630.42 1710.14 2617.99V2556.86C1710.14 2543.98 1711.79 2532.82 1715.08 2523.38C1718.38 2513.94 1724 2506.67 1731.95 2501.58C1740.04 2496.33 1750.99 2493.71 1764.78 2493.71C1778.27 2493.71 1788.84 2495.96 1796.48 2500.45C1804.28 2504.95 1809.83 2511.17 1813.12 2519.11C1816.42 2527.05 1818.07 2536.34 1818.07 2546.97V2558.66H1778.72V2543.83C1778.72 2539.93 1778.42 2536.34 1777.82 2533.04C1777.37 2529.74 1776.17 2527.12 1774.22 2525.17C1772.42 2523.08 1769.43 2522.03 1765.23 2522.03C1760.88 2522.03 1757.73 2523.23 1755.78 2525.62C1753.84 2527.87 1752.56 2530.72 1751.96 2534.16C1751.51 2537.61 1751.29 2541.21 1751.29 2544.95V2629.22C1751.29 2633.27 1751.66 2637.09 1752.41 2640.69C1753.31 2644.13 1754.81 2646.98 1756.91 2649.23C1759.16 2651.32 1762.31 2652.37 1766.35 2652.37C1770.55 2652.37 1773.77 2651.25 1776.02 2649C1778.27 2646.75 1779.84 2643.83 1780.74 2640.24C1781.64 2636.64 1782.09 2632.82 1782.09 2628.78V2607.43H1765.68V2583.83H1818.3V2678.22H1791.76L1789.51 2663.16C1787.11 2668.25 1783.59 2672.52 1778.94 2675.97C1774.3 2679.27 1768 2680.91 1760.06 2680.91Z" stroke="black" stroke-width="6"/>
<path d="M1901.69 2678.22V2496.18H1941.94V2569.9H1970.05V2496.18H2010.53V2678.22H1970.05V2598.66H1941.94V2678.22H1901.69Z" stroke="black" stroke-width="6"/>
<path d="M2038.26 2678.22V2496.18H2120.11V2523.6H2078.51V2568.77H2110.22V2596.64H2078.51V2651.02H2120.56V2678.22H2038.26Z" stroke="black" stroke-width="6"/>
<path d="M2138.84 2678.22V2496.18H2188.98C2201.27 2496.18 2211.91 2497.53 2220.91 2500.23C2229.9 2502.93 2236.87 2507.8 2241.82 2514.84C2246.92 2521.73 2249.47 2531.54 2249.47 2544.28C2249.47 2551.77 2248.87 2558.43 2247.67 2564.28C2246.47 2570.12 2244.22 2575.21 2240.92 2579.56C2237.77 2583.75 2233.2 2587.28 2227.21 2590.12L2252.16 2678.22H2210.57L2190.55 2596.64H2179.09V2678.22H2138.84ZM2179.09 2573.49H2190.33C2196.02 2573.49 2200.45 2572.52 2203.59 2570.57C2206.74 2568.47 2208.92 2565.55 2210.12 2561.81C2211.46 2557.91 2212.14 2553.27 2212.14 2547.87C2212.14 2540.08 2210.72 2534.01 2207.87 2529.67C2205.02 2525.32 2199.77 2523.15 2192.13 2523.15H2179.09V2573.49Z" stroke="black" stroke-width="6"/>
<path d="M2273.89 2678.22V2496.18H2314.14V2678.22H2273.89Z" stroke="black" stroke-width="6"/>
<path d="M2357.71 2678.22V2526.07H2330.28V2496.18H2425.39V2526.07H2398.19V2678.22H2357.71Z" stroke="black" stroke-width="6"/>
<path d="M2424.54 2678.22L2458.94 2496.18H2504.81L2538.76 2678.22H2501.66L2495.59 2639.79H2468.83L2462.54 2678.22H2424.54ZM2472.43 2615.74H2491.77L2482.1 2544.73L2472.43 2615.74Z" stroke="black" stroke-width="6"/>
<path d="M2601.74 2680.91C2589.15 2680.91 2579.18 2678.29 2571.84 2673.05C2564.64 2667.8 2559.47 2660.46 2556.32 2651.02C2553.32 2641.44 2551.83 2630.42 2551.83 2617.99V2556.86C2551.83 2543.98 2553.47 2532.82 2556.77 2523.38C2560.07 2513.94 2565.69 2506.67 2573.64 2501.58C2581.73 2496.33 2592.68 2493.71 2606.47 2493.71C2619.96 2493.71 2630.53 2495.96 2638.17 2500.45C2645.97 2504.95 2651.51 2511.17 2654.81 2519.11C2658.11 2527.05 2659.76 2536.34 2659.76 2546.97V2558.66H2620.41V2543.83C2620.41 2539.93 2620.11 2536.34 2619.51 2533.04C2619.06 2529.74 2617.86 2527.12 2615.91 2525.17C2614.11 2523.08 2611.11 2522.03 2606.92 2522.03C2602.57 2522.03 2599.42 2523.23 2597.47 2525.62C2595.52 2527.87 2594.25 2530.72 2593.65 2534.16C2593.2 2537.61 2592.98 2541.21 2592.98 2544.95V2629.22C2592.98 2633.27 2593.35 2637.09 2594.1 2640.69C2595 2644.13 2596.5 2646.98 2598.6 2649.23C2600.85 2651.32 2603.99 2652.37 2608.04 2652.37C2612.24 2652.37 2615.46 2651.25 2617.71 2649C2619.96 2646.75 2621.53 2643.83 2622.43 2640.24C2623.33 2636.64 2623.78 2632.82 2623.78 2628.78V2607.43H2607.37V2583.83H2659.98V2678.22H2633.45L2631.2 2663.16C2628.8 2668.25 2625.28 2672.52 2620.63 2675.97C2615.99 2679.27 2609.69 2680.91 2601.74 2680.91Z" stroke="black" stroke-width="6"/>
<path d="M2685.17 2678.22V2496.18H2767.02V2523.6H2725.42V2568.77H2757.13V2596.64H2725.42V2651.02H2767.47V2678.22H2685.17Z" stroke="black" stroke-width="6"/>
</g>
<defs>
<filter id="filter0_ddddd_2585_733" x="140.707" y="816.755" width="2389.43" height="1519.97" filterUnits="userSpaceOnUse" color-interpolation-filters="sRGB">
<feFlood flood-opacity="0" result="BackgroundImageFix"/>
<feColorMatrix in="SourceAlpha" type="matrix" values="0 0 0 0 0 0 0 0 0 0 0 0 0 0 0 0 0 0 127 0" result="hardAlpha"/>
<feOffset dx="1.96599"/>
<feColorMatrix type="matrix" values="0 0 0 0 0 0 0 0 0 0 0 0 0 0 0 0 0 0 1 0"/>
<feBlend mode="normal" in2="BackgroundImageFix" result="effect1_dropShadow_2585_733"/>
<feColorMatrix in="SourceAlpha" type="matrix" values="0 0 0 0 0 0 0 0 0 0 0 0 0 0 0 0 0 0 127 0" result="hardAlpha"/>
<feOffset dx="5.89796" dy="3.93198"/>
<feColorMatrix type="matrix" values="0 0 0 0 0 0 0 0 0 0 0 0 0 0 0 0 0 0 1 0"/>
<feBlend mode="normal" in2="effect1_dropShadow_2585_733" result="effect2_dropShadow_2585_733"/>
<feColorMatrix in="SourceAlpha" type="matrix" values="0 0 0 0 0 0 0 0 0 0 0 0 0 0 0 0 0 0 127 0" result="hardAlpha"/>
<feOffset dx="11.7959" dy="5.89796"/>
<feColorMatrix type="matrix" values="0 0 0 0 0 0 0 0 0 0 0 0 0 0 0 0 0 0 1 0"/>
<feBlend mode="normal" in2="effect2_dropShadow_2585_733" result="effect3_dropShadow_2585_733"/>
<feColorMatrix in="SourceAlpha" type="matrix" values="0 0 0 0 0 0 0 0 0 0 0 0 0 0 0 0 0 0 127 0" result="hardAlpha"/>
<feOffset dx="19.6599" dy="11.7959"/>
<feColorMatrix type="matrix" values="0 0 0 0 0 0 0 0 0 0 0 0 0 0 0 0 0 0 1 0"/>
<feBlend mode="normal" in2="effect3_dropShadow_2585_733" result="effect4_dropShadow_2585_733"/>
<feColorMatrix in="SourceAlpha" type="matrix" values="0 0 0 0 0 0 0 0 0 0 0 0 0 0 0 0 0 0 127 0" result="hardAlpha"/>
<feOffset dx="31.4558" dy="17.6939"/>
<feColorMatrix type="matrix" values="0 0 0 0 0 0 0 0 0 0 0 0 0 0 0 0 0 0 1 0"/>
<feBlend mode="normal" in2="effect4_dropShadow_2585_733" result="effect5_dropShadow_2585_733"/>
<feBlend mode="normal" in="SourceGraphic" in2="effect5_dropShadow_2585_733" result="shape"/>
</filter>
<filter id="filter1_ddddd_2585_733" x="249.019" y="2147.72" width="2585.58" height="417.88" filterUnits="userSpaceOnUse" color-interpolation-filters="sRGB">
<feFlood flood-opacity="0" result="BackgroundImageFix"/>
<feColorMatrix in="SourceAlpha" type="matrix" values="0 0 0 0 0 0 0 0 0 0 0 0 0 0 0 0 0 0 127 0" result="hardAlpha"/>
<feOffset dx="1.96599"/>
<feColorMatrix type="matrix" values="0 0 0 0 0 0 0 0 0 0 0 0 0 0 0 0 0 0 1 0"/>
<feBlend mode="normal" in2="BackgroundImageFix" result="effect1_dropShadow_2585_733"/>
<feColorMatrix in="SourceAlpha" type="matrix" values="0 0 0 0 0 0 0 0 0 0 0 0 0 0 0 0 0 0 127 0" result="hardAlpha"/>
<feOffset dx="5.89796" dy="3.93198"/>
<feColorMatrix type="matrix" values="0 0 0 0 0 0 0 0 0 0 0 0 0 0 0 0 0 0 1 0"/>
<feBlend mode="normal" in2="effect1_dropShadow_2585_733" result="effect2_dropShadow_2585_733"/>
<feColorMatrix in="SourceAlpha" type="matrix" values="0 0 0 0 0 0 0 0 0 0 0 0 0 0 0 0 0 0 127 0" result="hardAlpha"/>
<feOffset dx="11.7959" dy="5.89796"/>
<feColorMatrix type="matrix" values="0 0 0 0 0 0 0 0 0 0 0 0 0 0 0 0 0 0 1 0"/>
<feBlend mode="normal" in2="effect2_dropShadow_2585_733" result="effect3_dropShadow_2585_733"/>
<feColorMatrix in="SourceAlpha" type="matrix" values="0 0 0 0 0 0 0 0 0 0 0 0 0 0 0 0 0 0 127 0" result="hardAlpha"/>
<feOffset dx="19.6599" dy="11.7959"/>
<feColorMatrix type="matrix" values="0 0 0 0 0 0 0 0 0 0 0 0 0 0 0 0 0 0 1 0"/>
<feBlend mode="normal" in2="effect3_dropShadow_2585_733" result="effect4_dropShadow_2585_733"/>
<feColorMatrix in="SourceAlpha" type="matrix" values="0 0 0 0 0 0 0 0 0 0 0 0 0 0 0 0 0 0 127 0" result="hardAlpha"/>
<feOffset dx="31.4558" dy="17.6939"/>
<feColorMatrix type="matrix" values="0 0 0 0 0 0 0 0 0 0 0 0 0 0 0 0 0 0 1 0"/>
<feBlend mode="normal" in2="effect4_dropShadow_2585_733" result="effect5_dropShadow_2585_733"/>
<feBlend mode="normal" in="SourceGraphic" in2="effect5_dropShadow_2585_733" result="shape"/>
</filter>
<filter id="filter2_d_2585_733" x="1044.07" y="2490.71" width="1729.44" height="193.201" filterUnits="userSpaceOnUse" color-interpolation-filters="sRGB">
<feFlood flood-opacity="0" result="BackgroundImageFix"/>
<feColorMatrix in="SourceAlpha" type="matrix" values="0 0 0 0 0 0 0 0 0 0 0 0 0 0 0 0 0 0 127 0" result="hardAlpha"/>
<feOffset dx="3.04018"/>
<feComposite in2="hardAlpha" operator="out"/>
<feColorMatrix type="matrix" values="0 0 0 0 0 0 0 0 0 0 0 0 0 0 0 0 0 0 1 0"/>
<feBlend mode="normal" in2="BackgroundImageFix" result="effect1_dropShadow_2585_733"/>
<feBlend mode="normal" in="SourceGraphic" in2="effect1_dropShadow_2585_733" result="shape"/>
</filter>
<linearGradient id="paint0_linear_2585_733" x1="2582.95" y1="1400.12" x2="2542.38" y2="1236.08" gradientUnits="userSpaceOnUse">
<stop stop-color="#FFCE00"/>
<stop offset="0.3785" stop-color="#FFC700"/>
<stop offset="0.9409" stop-color="#FFB300"/>
<stop offset="1" stop-color="#FFB000"/>
</linearGradient>
<linearGradient id="paint1_linear_2585_733" x1="2332.15" y1="1202.17" x2="2344.03" y2="1381.04" gradientUnits="userSpaceOnUse">
<stop stop-color="#0578ED"/>
<stop offset="0.5366" stop-color="#11B4F6"/>
<stop offset="1" stop-color="#1AE3FE"/>
</linearGradient>
<linearGradient id="paint2_linear_2585_733" x1="2123.89" y1="1251.86" x2="2124.12" y2="1403.87" gradientUnits="userSpaceOnUse">
<stop stop-color="#8405F2"/>
<stop offset="0.1053" stop-color="#8A05F2"/>
<stop offset="1" stop-color="#B903F2"/>
</linearGradient>
<linearGradient id="paint3_linear_2585_733" x1="1913.81" y1="1230.79" x2="1902.11" y2="1396.43" gradientUnits="userSpaceOnUse">
<stop stop-color="#FF0101"/>
<stop offset="0.6301" stop-color="#FF5A04"/>
<stop offset="1" stop-color="#FF8906"/>
</linearGradient>
<linearGradient id="paint4_linear_2585_733" x1="1672.31" y1="1365.5" x2="1706.22" y2="1200.42" gradientUnits="userSpaceOnUse">
<stop stop-color="#FFCE00"/>
<stop offset="0.3785" stop-color="#FFC700"/>
<stop offset="0.9409" stop-color="#FFB300"/>
<stop offset="1" stop-color="#FFB000"/>
</linearGradient>
<linearGradient id="paint5_linear_2585_733" x1="1521.35" y1="1101.03" x2="1452.28" y2="1229.21" gradientUnits="userSpaceOnUse">
<stop stop-color="#0578ED"/>
<stop offset="0.5366" stop-color="#11B4F6"/>
<stop offset="1" stop-color="#1AE3FE"/>
</linearGradient>
<linearGradient id="paint6_linear_2585_733" x1="1331.38" y1="985.71" x2="1283.48" y2="1114.66" gradientUnits="userSpaceOnUse">
<stop stop-color="#8405F2"/>
<stop offset="0.1053" stop-color="#8A05F2"/>
<stop offset="1" stop-color="#B903F2"/>
</linearGradient>
</defs>
</svg>
