<svg width="795" height="932" viewBox="0 0 795 932" fill="none" xmlns="http://www.w3.org/2000/svg">
<path fill-rule="evenodd" clip-rule="evenodd" d="M419.227 857.113C416.356 861.821 414.375 866.558 411.619 871.295C403.293 885.477 391.522 896.272 378.374 905.746C361.666 916.489 343.113 924.042 323.654 928.025C307.703 931.164 291.424 932.302 275.192 931.412C264.44 931.439 253.729 930.079 243.325 927.364C225.894 922.558 210.553 912.096 199.716 897.622C191.443 887.71 186.581 875.399 185.849 862.51C182.978 836.844 194.175 816.575 215.621 801.733C221.107 798.396 227.264 796.317 233.65 795.646C237.052 794.859 240.524 794.407 244.014 794.297C255.418 794.64 266.287 799.214 274.503 807.13C280.044 812.527 284.896 818.614 286.274 826.71C288.341 839.543 284.896 851.026 273.814 859.122C271.079 861.44 267.803 863.029 264.29 863.742C260.776 864.455 257.14 864.268 253.718 863.199L249.555 861.161L247.488 859.122C247.488 858.462 246.799 857.113 247.488 856.424C247.488 855.763 248.866 855.763 249.555 856.424C259.948 859.811 272.522 851.715 273.814 840.232C274.368 836.557 274.051 832.803 272.89 829.272C271.728 825.742 269.753 822.533 267.125 819.905C264.497 817.277 261.289 815.303 257.758 814.141C254.228 812.979 250.474 812.662 246.799 813.216C239.736 814.101 233.003 816.721 227.202 820.845C221.4 824.968 216.711 830.465 213.553 836.844C208.09 845.725 205.887 856.23 207.324 866.558C208.702 878.042 214.932 885.477 226.013 889.525C232.337 891.21 238.885 891.898 245.421 891.564C258.408 891.149 271.247 888.678 283.461 884.243C292.243 881.277 300.275 876.438 307.002 870.061C314.639 861.936 322.247 854.529 329.97 847.093C338.909 837.511 349.768 829.92 361.837 824.815C374.628 818.873 388.587 815.871 402.69 816.03H438.003C459.767 816.54 480.719 824.391 497.46 838.308C505.479 844.584 512.899 851.59 519.623 859.237C523.757 863.314 527.911 867.372 532.083 871.41C539.598 878.67 548.914 883.794 559.07 886.253C569.898 889.37 581.058 891.191 592.315 891.679C598.387 892.011 604.472 891.322 610.316 889.64C622.776 885.592 629.723 877.496 630.412 864.663C631.172 851.141 626.712 837.843 617.953 827.513C611.317 820.062 602.212 815.26 592.315 813.991C586.442 812.592 580.254 813.561 575.09 816.69C567.482 820.738 564.697 827.513 564.008 835.609C563.483 838.457 563.719 841.393 564.692 844.12C565.664 846.847 567.34 849.269 569.549 851.141C571.447 853.265 573.811 854.919 576.456 855.975C579.101 857.031 581.955 857.46 584.793 857.228C586.171 857.228 586.86 856.539 588.238 856.539C588.956 855.878 589.645 856.539 590.334 856.539V858.405C589.302 859.893 587.963 861.145 586.409 862.075C584.854 863.006 583.119 863.595 581.32 863.802C577.348 864.485 573.266 864.095 569.495 862.671C565.725 861.248 562.403 858.843 559.874 855.706C554.754 850.526 551.552 843.756 550.795 836.513C550.039 829.269 551.772 821.984 555.711 815.857C564.008 803.024 575.807 795.589 590.334 794.9C597.72 794.001 605.212 794.748 612.275 797.086C619.338 799.423 625.797 803.295 631.188 808.422C641.013 817.657 647.776 829.68 650.566 842.873C653.992 857.472 652.024 872.818 645.025 886.08C635.35 905.689 620.106 917.833 600.038 925.269C590.43 928.651 580.403 930.699 570.238 931.355C560.325 932.015 550.379 932.015 540.466 931.355C514.14 929.317 489.22 923.23 467.057 910.397C453.606 902.963 441.822 892.85 432.433 880.683C426.86 873.773 422.421 866.02 419.284 857.716V857.055L419.227 857.113Z" fill="#231F20"/>
<path d="M701.552 590.087C668.881 541.798 601.3 518.314 541.757 534.764C500.559 546.248 467.457 568.67 447.762 607.599C423.474 655.573 442.021 717.671 490.826 753.328C540.522 789.817 619.645 788.439 670.891 749.883C702.931 725.824 719.926 693.699 721.161 656.865C720.644 630.423 714.529 609.293 701.552 590.087ZM672.527 698.694C661.273 736.217 621.655 759.242 578.619 753.242C524.244 745.72 481.008 696.11 480.778 641.275C480.606 578.976 540.12 538.668 601.357 559.626C628.841 569.188 651.578 588.981 664.835 614.886C678.092 640.79 680.847 670.809 672.527 698.694Z" fill="#A31C20"/>
<path d="M355.809 557.706C329.924 538.446 298.715 527.666 266.462 526.844C234.208 526.021 202.49 535.197 175.658 553.113C132.422 581.822 111.206 628.532 121.369 673.031C135.723 735.646 189.611 776.586 261.613 776.385C293.883 776.662 325.393 766.602 351.531 747.675C417.16 700.707 419.4 604.56 355.809 557.706ZM358.909 668.926C356.411 727.837 307.233 762.92 248.063 747.934C202.271 736.45 165.007 691.52 161.935 644.58C158.605 591.698 197.965 551.132 252.139 551.562C312.572 552.079 361.55 605.995 358.909 668.926Z" fill="#A31C20"/>
<path fill-rule="evenodd" clip-rule="evenodd" d="M270.977 290.94C257.329 292.373 244.587 298.455 234.89 308.165C228.034 315.379 222.815 323.987 219.588 333.401C216.564 342.027 214.692 351.014 214.018 360.129C214.018 361.249 213.846 362.282 213.817 363.23C212.583 363.747 211.406 364.177 210.343 364.522C200.955 367.565 191.539 367.852 187.807 379.881C185.883 381.23 184.103 382.752 182.467 384.044C177.498 388.326 173.133 393.261 169.49 398.714C166.007 400.239 162.239 401.003 158.437 400.954C127.333 399.862 96.335 396.707 65.6486 391.508C-51.3991 371.929 -8.45004 141.594 166.734 228.727C201.903 248.335 231.961 269.58 270.977 290.94Z" fill="#D5154D"/>
<path fill-rule="evenodd" clip-rule="evenodd" d="M362.079 232.54C351.457 242.846 340.547 255.048 340.547 255.048C324.671 252.406 314.967 255.478 308.967 260.789C308.853 260.865 308.748 260.952 308.651 261.048C308.106 261.545 307.588 262.072 307.101 262.627C306.358 263.537 305.677 264.496 305.062 265.498C304.509 266.356 304.011 267.247 303.57 268.168C303.225 268.943 302.881 269.718 302.622 270.493C300.365 277.318 299.803 284.59 300.986 291.681C247.464 268.528 195.539 241.847 145.554 211.811C133.812 204.663 115.323 204.519 98.011 199.323C70.0482 190.882 63.3877 191.198 66.1725 162.173C72.4024 97.3188 134.041 61.5183 192.895 89.8831C209.725 97.7638 225.346 108.001 239.289 120.286C280.43 156.489 320.307 193.926 362.079 232.54Z" fill="#4A2A86"/>
<path fill-rule="evenodd" clip-rule="evenodd" d="M479.729 223.501C468.791 233.262 459.058 247.445 445.795 252.211C438.348 247.121 429.577 244.317 420.559 244.143L397.104 227.377C397.104 227.377 387.945 218.391 380.653 218.248C378.959 218.248 375.859 220.2 372.04 223.272C361.877 216.755 351.944 209.807 342.556 202.429C315.598 180.868 292.889 155.259 267.051 130.943C238.054 103.927 206.761 79.6104 166.023 69.476C141.792 63.4184 140.414 57.332 155.63 36.403C210.35 -38.5857 320.45 16.1342 362.681 76.2514C386.95 110.703 411.889 144.474 437.498 177.566C449.957 193.759 465.145 207.97 479.729 223.501Z" fill="#D5154D"/>
<path fill-rule="evenodd" clip-rule="evenodd" d="M751.852 420.038C713.841 440.307 671.724 438.211 632.536 427.818C630.581 416.171 626.252 405.05 619.818 395.147C613.565 385.721 605.68 377.486 596.534 370.83C592.691 367.991 588.663 365.412 584.477 363.108C610.889 339.595 696.845 292.741 724.205 266.702C774.676 204.374 788.169 305.919 792.762 339.652C796.897 370.342 774.704 407.865 751.852 420.038Z" fill="#D5154D"/>
<path fill-rule="evenodd" clip-rule="evenodd" d="M451.346 41.7986C472.82 67.4647 490.821 95.8294 510.2 123.534C520.593 138.377 530.296 153.908 541.378 170.818C524.755 185.661 508.133 199.843 489.443 216.064C420.885 162.033 390.396 78.2594 323.934 18.1421C371.706 -6.17462 416.033 -3.44724 451.346 41.7986Z" fill="#4A2A86"/>
<path fill-rule="evenodd" clip-rule="evenodd" d="M766.41 211.326C714.475 268.744 652.147 312.641 584.278 350.479C579.813 352.966 575.06 354.895 570.124 356.221C567.473 355.111 564.76 354.153 562 353.35C563.295 349.641 564.115 345.782 564.44 341.867C564.742 338.773 564.742 335.658 564.44 332.565C563.817 326.276 562.299 320.108 559.932 314.248C562.899 310.861 566.22 307.8 569.837 305.119C612.069 273.539 651.544 238.255 691.708 204.636C704.857 193.813 715.594 179.946 731.183 174.233C739.279 171.362 750.562 169.496 759.577 173.573C776.802 181.611 779.558 197.143 766.41 211.326Z" fill="#4A2A86"/>
<path fill-rule="evenodd" clip-rule="evenodd" d="M702.735 176.882C670.867 207.285 636.933 235.65 603.716 264.704C587.524 278.369 570.902 291.662 554.193 305.184C539.639 294.118 522.45 287.043 504.325 284.656C507.36 280.449 510.72 276.484 514.373 272.8C561.456 226.865 609.946 181.619 657.029 134.995C668.111 124.861 675.719 120.813 688.868 132.296C711.032 151.905 716.572 163.388 702.735 176.882Z" fill="#D5154D"/>
<path fill-rule="evenodd" clip-rule="evenodd" d="M473.482 46.5294C534.403 41.1033 575.974 66.1091 612.665 110.695C591.879 127.576 571.122 145.146 548.27 164.036C523.321 125.537 499.78 87.7272 473.626 46.5294H473.482Z" fill="#D5154D"/>
<path fill-rule="evenodd" clip-rule="evenodd" d="M653.937 122.501C627.639 155.114 521.874 251.176 478.58 284.536C474.033 285.08 469.545 286.041 465.173 287.407C464.644 283.422 463.76 279.492 462.532 275.665C461.575 274.811 460.82 273.755 460.324 272.573C459.827 271.391 459.601 270.113 459.661 268.832C459.001 267.483 458.283 266.219 457.536 265.014C488.514 217.959 602.576 116.156 646.386 109.524C647.983 109.294 649.612 109.546 651.065 110.249C652.517 110.951 653.727 112.071 654.538 113.466C655.349 114.86 655.726 116.465 655.618 118.075C655.511 119.685 654.926 121.226 653.937 122.501Z" fill="#4A2A86"/>
<path fill-rule="evenodd" clip-rule="evenodd" d="M748.663 461.011C748.552 461.354 748.397 461.682 748.204 461.987C747.262 463.42 745.967 464.587 744.443 465.374C744.073 465.608 743.69 465.819 743.295 466.006C741.897 466.646 740.446 467.165 738.959 467.556L738.529 467.815L737.983 468.131C736.691 468.963 735.112 470.054 733.189 471.346L731.466 472.523L729.284 474.016L727.418 475.279C715.504 483.203 697.532 493.825 678.613 494.313C661.157 494.744 643.702 494.888 624.467 494.945C632.304 473.011 634.888 454.293 633.883 438.388C660.612 440.024 691.532 440.254 715.102 441H715.647L722.911 441.259H723.744C725.455 441.482 727.152 441.808 728.825 442.235L729.428 442.407C730.633 442.729 731.822 443.112 732.988 443.555H733.16C734.05 443.9 734.94 444.244 735.773 444.646C736.605 445.02 737.438 445.421 738.213 445.852C740.693 447.172 742.982 448.824 745.017 450.761C746.135 451.862 747.1 453.108 747.888 454.465C748.194 455.036 748.453 455.631 748.663 456.245C749.268 457.776 749.268 459.48 748.663 461.011Z" fill="#4A2A86"/>
<path fill-rule="evenodd" clip-rule="evenodd" d="M158.595 441.779C130.258 442.181 102.784 443.243 75.3376 440.975C65.4125 440.285 55.9444 436.54 48.2335 430.253C40.5227 423.966 34.9475 415.446 32.2737 405.863C73.2131 410.112 118.028 410.543 161.753 413.5C158.494 422.547 157.412 432.235 158.595 441.779Z" fill="#4A2A86"/>
<path fill-rule="evenodd" clip-rule="evenodd" d="M177.027 485.554L121.675 488.941L87.741 453.801L160.749 452.825C161.677 456.315 162.837 459.739 164.223 463.074C166.537 468.694 169.353 474.094 172.634 479.209C174.299 481.822 175.821 483.975 177.027 485.554Z" fill="#D5154D"/>
<path fill-rule="evenodd" clip-rule="evenodd" d="M745.613 436.917L791.318 395.719L794.103 411.25L751.843 455.147L747.709 449.75L745.613 436.917Z" fill="#4A2A86"/>
<path fill-rule="evenodd" clip-rule="evenodd" d="M712.437 492.988C744.276 475.418 769.195 451.101 792.823 421.387C792.823 448.402 759.578 469.331 745.022 492.988H712.437Z" fill="#D5154D"/>
<path fill-rule="evenodd" clip-rule="evenodd" d="M751.179 493.798C769.898 474.218 772.654 474.907 787.209 449.241C791.343 472.209 783.736 471.52 771.276 493.798H751.179Z" fill="#4B2483"/>
<path fill-rule="evenodd" clip-rule="evenodd" d="M290.673 255.909L300.377 269.403C301.066 270.752 300.377 271.441 299.659 272.273C298.942 273.106 298.281 272.273 297.592 271.584L290.013 256.57V255.909H290.673Z" fill="white"/>
<path fill-rule="evenodd" clip-rule="evenodd" d="M288.61 252.638L284.447 236.446C284.447 235.757 285.136 234.408 285.825 234.408C286.514 233.719 287.892 234.408 287.892 235.757L289.299 251.978V252.638H288.61Z" fill="white"/>
<path fill-rule="evenodd" clip-rule="evenodd" d="M287.924 252.642L278.249 239.149C278.249 238.46 278.248 237.11 278.937 237.11C279.627 236.45 281.005 236.45 281.005 237.11L281.694 237.8L288.641 252.642V253.331L287.924 252.642Z" fill="white"/>
<path fill-rule="evenodd" clip-rule="evenodd" d="M287.182 253.214L273.344 243.74C273.01 243.371 272.824 242.89 272.824 242.391C272.824 241.892 273.01 241.411 273.344 241.041C273.468 240.886 273.625 240.76 273.804 240.674C273.983 240.588 274.179 240.543 274.378 240.543C274.577 240.543 274.773 240.588 274.952 240.674C275.131 240.76 275.288 240.886 275.412 241.041H276.101L287.871 252.525V253.214H287.182Z" fill="white"/>
<path fill-rule="evenodd" clip-rule="evenodd" d="M287.144 253.867L270.578 249.761C269.889 249.101 269.2 248.412 269.889 247.062C269.889 246.373 270.578 245.713 271.985 246.373L287.144 253.206L287.833 253.867H287.144Z" fill="white"/>
<path fill-rule="evenodd" clip-rule="evenodd" d="M287.167 255.228L270.544 255.917C270.266 255.96 269.981 255.938 269.712 255.851C269.444 255.764 269.199 255.616 268.999 255.418C268.798 255.22 268.646 254.977 268.555 254.71C268.465 254.443 268.438 254.158 268.477 253.879C268.538 253.534 268.718 253.222 268.985 252.996C269.253 252.77 269.591 252.646 269.942 252.645H270.631L287.253 253.994V255.343L287.167 255.228Z" fill="white"/>
<path fill-rule="evenodd" clip-rule="evenodd" d="M287.188 255.225L271.972 262C271.283 262.66 269.876 262 269.876 261.311C269.745 261.145 269.658 260.949 269.622 260.741C269.586 260.532 269.604 260.318 269.672 260.118C269.741 259.918 269.858 259.739 270.014 259.596C270.17 259.453 270.36 259.352 270.565 259.301V258.612L287.188 254.564H287.877L287.188 255.225Z" fill="white"/>
<path fill-rule="evenodd" clip-rule="evenodd" d="M287.868 255.912L275.408 267.395C275.284 267.551 275.127 267.676 274.948 267.763C274.769 267.849 274.573 267.894 274.374 267.894C274.176 267.894 273.98 267.849 273.801 267.763C273.622 267.676 273.465 267.551 273.341 267.395C272.652 266.706 272.652 265.357 273.341 265.357V264.697L287.121 255.223H287.81V255.912H287.868Z" fill="white"/>
<path fill-rule="evenodd" clip-rule="evenodd" d="M288.578 256.57L281.63 271.442C280.941 272.131 280.252 272.131 278.759 272.131C278.07 271.442 277.381 270.753 278.07 269.26L287.745 255.767H288.463V256.427L288.578 256.57Z" fill="white"/>
<path fill-rule="evenodd" clip-rule="evenodd" d="M289.307 256.566L287.901 272.73C287.212 274.079 286.523 274.079 285.833 274.079C284.455 274.079 283.766 273.419 283.766 272.73V272.069L288.618 256.509L289.307 255.849V256.509V256.566Z" fill="white"/>
<path fill-rule="evenodd" clip-rule="evenodd" d="M290.01 256.57L294.173 272.13C294.862 273.479 294.173 274.14 292.766 274.14C292.077 274.829 290.699 274.14 290.699 272.79L289.321 256.57V255.909L290.01 256.57Z" fill="white"/>
<path fill-rule="evenodd" clip-rule="evenodd" d="M305.185 265.357C304.632 266.215 304.133 267.107 303.692 268.027H303.118L302.428 267.367L290.658 255.883V255.223H291.347L305.185 265.357Z" fill="white"/>
<path fill-rule="evenodd" clip-rule="evenodd" d="M308.823 260.995C308.278 261.492 307.76 262.019 307.273 262.574H306.641L291.397 255.138V254.478L294.583 255.396L308.019 259.215C308.651 259.301 309.283 259.846 308.823 260.995Z" fill="white"/>
<path fill-rule="evenodd" clip-rule="evenodd" d="M291.397 253.875L308.622 252.525C308.974 252.551 309.306 252.701 309.558 252.948C309.811 253.195 309.967 253.523 310 253.875C309.992 254.4 309.863 254.916 309.624 255.384C309.385 255.851 309.042 256.258 308.622 256.573L291.397 255.224V253.875Z" fill="white"/>
<path fill-rule="evenodd" clip-rule="evenodd" d="M291.347 253.217L306.591 246.441C307.28 246.441 308.658 246.441 308.658 247.13C309.347 248.48 308.658 249.169 307.969 249.829L291.347 254.566L290.658 253.877L291.347 253.217Z" fill="white"/>
<path fill-rule="evenodd" clip-rule="evenodd" d="M290.658 252.644L303.118 241.161C303.241 241.005 303.398 240.88 303.577 240.793C303.756 240.707 303.952 240.662 304.151 240.662C304.35 240.662 304.546 240.707 304.725 240.793C304.904 240.88 305.061 241.005 305.185 241.161C305.532 241.524 305.726 242.007 305.726 242.51C305.726 243.013 305.532 243.496 305.185 243.859L291.347 253.333H290.658V252.644Z" fill="white"/>
<path fill-rule="evenodd" clip-rule="evenodd" d="M290.013 252.641L297.621 237.11C297.621 236.449 298.999 236.449 299.688 236.449C300.406 237.11 301.095 238.459 300.406 239.148L290.673 252.641H290.013Z" fill="white"/>
<path fill-rule="evenodd" clip-rule="evenodd" d="M289.321 251.863L290.699 235.642C291.388 234.982 292.077 234.293 292.766 234.293C294.173 234.293 294.862 234.982 294.862 235.642V236.331L290.039 252.638H289.35V251.978L289.321 251.863Z" fill="white"/>
<path fill-rule="evenodd" clip-rule="evenodd" d="M663.251 470.024C661.873 470.024 661.183 471.373 661.872 472.722C661.907 473.256 662.137 473.759 662.518 474.135C662.899 474.511 663.405 474.733 663.94 474.761C664.476 474.51 664.944 474.134 665.304 473.665C665.664 473.195 665.905 472.645 666.007 472.062H666.724C666.704 471.663 666.584 471.276 666.377 470.935C666.17 470.593 665.881 470.309 665.536 470.107C665.192 469.905 664.803 469.792 664.404 469.777C664.005 469.762 663.609 469.847 663.251 470.024ZM663.94 472.722C663.94 472.062 663.94 473.411 663.251 472.722L664.629 472.062L663.94 472.722Z" fill="white"/>
<path fill-rule="evenodd" clip-rule="evenodd" d="M734.54 454.49L744.244 467.323C744.465 467.596 744.629 467.91 744.728 468.247C744.828 468.584 744.859 468.937 744.822 469.287C744.785 469.636 744.679 469.974 744.511 470.283C744.343 470.591 744.116 470.863 743.842 471.084C743.569 471.304 743.255 471.469 742.918 471.568C742.581 471.667 742.228 471.699 741.879 471.662C741.529 471.624 741.191 471.519 740.883 471.351C740.574 471.182 740.302 470.955 740.081 470.682L739.392 470.022L733.162 454.49V453.801L734.54 454.49Z" fill="white"/>
<path fill-rule="evenodd" clip-rule="evenodd" d="M731.783 450.447L726.931 434.915C726.777 434.605 726.691 434.266 726.678 433.921C726.665 433.575 726.726 433.231 726.856 432.911C726.987 432.59 727.184 432.301 727.434 432.063C727.684 431.824 727.983 431.642 728.309 431.527C729.716 431.527 731.783 432.188 731.783 433.537L732.472 434.226L733.161 450.447L732.472 451.107L731.783 450.447Z" fill="white"/>
<path fill-rule="evenodd" clip-rule="evenodd" d="M731.109 451.101L720.717 437.607C720.028 436.918 720.717 434.909 721.406 434.22C722.069 433.825 722.851 433.678 723.613 433.804C724.375 433.93 725.067 434.321 725.568 434.909V435.569L732.487 450.44L731.798 451.101H731.109Z" fill="white"/>
<path fill-rule="evenodd" clip-rule="evenodd" d="M730.427 451.798L716.561 442.324C716.281 442.162 716.038 441.942 715.849 441.679C715.66 441.416 715.528 441.117 715.463 440.799C715.398 440.482 715.401 440.155 715.471 439.839C715.542 439.523 715.678 439.225 715.871 438.965C716.561 437.616 717.939 437.616 719.345 438.276H720.034L731.116 450.449V451.798H730.427Z" fill="white"/>
<path fill-rule="evenodd" clip-rule="evenodd" d="M733.179 455.16L731.801 471.381C731.635 471.989 731.274 472.526 730.774 472.909C730.273 473.292 729.66 473.499 729.03 473.499C728.4 473.499 727.787 473.292 727.287 472.909C726.786 472.526 726.425 471.989 726.26 471.381V470.836L731.801 454.644H732.49L733.179 455.304V455.16Z" fill="white"/>
<path fill-rule="evenodd" clip-rule="evenodd" d="M733.796 454.49L738.648 470.682C738.66 471.384 738.472 472.076 738.106 472.676C737.74 473.276 737.211 473.759 736.58 474.07C735.868 474.094 735.163 473.915 734.548 473.555C733.933 473.194 733.433 472.665 733.107 472.031V471.371L732.418 455.15V453.801L733.796 454.49Z" fill="white"/>
<path fill-rule="evenodd" clip-rule="evenodd" d="M734.579 453.147L749.135 462.593C749.824 463.942 750.513 465.291 749.135 465.981C749.001 466.302 748.803 466.593 748.554 466.836C748.305 467.079 748.01 467.269 747.685 467.395C747.361 467.521 747.014 467.58 746.666 467.569C746.318 467.558 745.977 467.477 745.661 467.33V466.641L733.89 454.497V453.147H734.579Z" fill="white"/>
<path fill-rule="evenodd" clip-rule="evenodd" d="M734.579 452.451L751.202 457.188C752.609 457.188 753.297 458.538 753.297 459.887C753.297 461.236 751.202 461.925 749.824 461.925L749.135 461.236L734.579 453.801L733.89 453.14L734.579 452.451Z" fill="white"/>
<path fill-rule="evenodd" clip-rule="evenodd" d="M734.579 451.789L751.805 450.44C752.127 450.295 752.481 450.236 752.833 450.269C753.185 450.302 753.522 450.426 753.812 450.628C754.101 450.831 754.333 451.105 754.485 451.425C754.636 451.744 754.702 452.097 754.676 452.45C754.632 453.181 754.31 453.868 753.776 454.369C753.242 454.871 752.537 455.15 751.805 455.148L734.579 453.139L733.89 452.45L734.579 451.789Z" fill="white"/>
<path fill-rule="evenodd" clip-rule="evenodd" d="M733.162 450.445L740.081 434.913C740.518 434.454 741.087 434.141 741.709 434.018C742.331 433.894 742.976 433.966 743.555 434.224C744.933 434.224 745.622 435.573 744.933 436.923L744.244 437.612L734.54 451.105H733.162V450.445Z" fill="white"/>
<path fill-rule="evenodd" clip-rule="evenodd" d="M732.418 450.443L733.796 434.222C733.796 432.873 734.485 431.524 735.891 431.524C736.267 431.465 736.651 431.493 737.014 431.606C737.377 431.718 737.709 431.912 737.986 432.172C738.263 432.432 738.477 432.752 738.611 433.107C738.746 433.463 738.797 433.844 738.762 434.222V434.912L733.911 451.104H732.532V450.443H732.418Z" fill="white"/>
<path fill-rule="evenodd" clip-rule="evenodd" d="M487.319 159.994L496.334 172.253C496.334 173.602 496.334 174.263 495.645 174.952C494.956 175.641 493.549 174.952 493.549 174.263H492.86L486.63 160.769V160.08L487.319 159.994Z" fill="white"/>
<path fill-rule="evenodd" clip-rule="evenodd" d="M485.235 156.599L481.762 142.416C481.073 141.067 481.762 140.407 482.451 139.718C483.857 139.718 484.546 140.407 484.546 141.067V141.756L486.613 156.599L485.235 157.288V156.599Z" fill="white"/>
<path fill-rule="evenodd" clip-rule="evenodd" d="M484.576 157.299L476.251 144.466C475.562 143.777 475.562 142.428 476.251 142.428C477.658 141.768 478.347 141.768 479.122 142.428V143.117L485.352 156.61V157.299H484.576Z" fill="white"/>
<path fill-rule="evenodd" clip-rule="evenodd" d="M484.57 157.896L472.11 149.283C471.547 148.503 471.291 147.542 471.393 146.585C471.784 146.226 472.297 146.026 472.828 146.026C473.359 146.026 473.872 146.226 474.263 146.585L485.23 157.293L484.541 157.954L484.57 157.896Z" fill="white"/>
<path fill-rule="evenodd" clip-rule="evenodd" d="M483.91 157.905L469.354 153.857C468.665 153.857 467.976 153.197 468.665 151.847C468.665 151.158 469.354 150.498 470.732 150.498V151.158L484.599 157.245V157.905H483.91Z" fill="white"/>
<path fill-rule="evenodd" clip-rule="evenodd" d="M483.9 159.327L468.655 159.987C468.301 159.967 467.966 159.82 467.712 159.572C467.459 159.323 467.304 158.992 467.277 158.638C467.277 157.949 467.966 156.6 468.655 156.6L483.9 157.949L484.589 158.638L483.9 159.327Z" fill="white"/>
<path fill-rule="evenodd" clip-rule="evenodd" d="M484.583 159.334L470.717 165.391C470.547 165.521 470.349 165.608 470.139 165.645C469.929 165.681 469.713 165.667 469.51 165.602C469.307 165.537 469.123 165.424 468.973 165.272C468.823 165.121 468.712 164.935 468.65 164.731C468.519 164.562 468.433 164.364 468.398 164.154C468.362 163.944 468.38 163.729 468.448 163.527C468.516 163.325 468.633 163.144 468.788 162.998C468.944 162.852 469.133 162.747 469.339 162.693L483.894 158.645L484.583 159.334Z" fill="white"/>
<path fill-rule="evenodd" clip-rule="evenodd" d="M484.575 159.99L474.183 170.814C473.782 171.156 473.273 171.343 472.747 171.343C472.221 171.343 471.712 171.156 471.312 170.814C470.94 170.428 470.732 169.914 470.732 169.378C470.732 168.843 470.94 168.328 471.312 167.943H472.029L484.489 159.33H485.236L484.547 159.99H484.575Z" fill="white"/>
<path fill-rule="evenodd" clip-rule="evenodd" d="M485.296 160.761L479.066 174.255C479.066 174.944 477.688 174.944 476.195 174.944C475.506 174.255 475.506 173.594 475.506 172.245L484.521 160.072H485.296V160.761Z" fill="white"/>
<path fill-rule="evenodd" clip-rule="evenodd" d="M485.923 160.761L484.545 175.604C484.545 176.293 483.856 176.953 482.449 176.953C481.76 176.953 481.071 176.293 481.071 174.944L485.205 160.761L485.894 160.072V160.761H485.923Z" fill="white"/>
<path fill-rule="evenodd" clip-rule="evenodd" d="M486.675 160.761L490.837 174.944C490.837 175.604 490.148 176.953 489.459 176.953C488.77 176.953 487.364 176.953 487.364 175.604L485.986 160.761L486.675 160.072V160.761Z" fill="white"/>
<path fill-rule="evenodd" clip-rule="evenodd" d="M488.1 159.33L499.871 167.943C501.277 168.632 501.277 169.292 500.588 170.814C500.462 170.97 500.302 171.095 500.121 171.182C499.94 171.268 499.741 171.313 499.54 171.313C499.34 171.313 499.141 171.268 498.96 171.182C498.779 171.095 498.619 170.97 498.493 170.814H497.804L487.411 159.99V159.33H488.1Z" fill="white"/>
<path fill-rule="evenodd" clip-rule="evenodd" d="M488.1 158.645L502.454 162.693C503.832 162.693 503.832 164.042 503.832 164.731C503.832 166.08 502.454 166.08 501.765 166.08H501.076L488.1 159.334L487.411 158.645H488.1Z" fill="white"/>
<path fill-rule="evenodd" clip-rule="evenodd" d="M488.1 157.894L503.344 156.545C503.885 156.545 504.403 156.76 504.786 157.142C505.168 157.524 505.383 158.043 505.383 158.583C505.383 159.124 505.168 159.642 504.786 160.025C504.403 160.407 503.885 160.622 503.344 160.622L488.1 158.641H487.411L488.1 157.894Z" fill="white"/>
<path fill-rule="evenodd" clip-rule="evenodd" d="M488.1 157.291L501.277 151.204C501.75 150.917 502.317 150.828 502.855 150.957C503.392 151.086 503.857 151.423 504.148 151.893C504.148 152.553 504.148 153.903 503.459 153.903L502.77 154.592L488.1 158.64L487.411 157.951L488.1 157.291Z" fill="white"/>
<path fill-rule="evenodd" clip-rule="evenodd" d="M487.316 156.606L498.398 146.414C498.398 145.725 499.776 145.725 500.494 146.414C501.212 147.103 501.183 147.764 500.494 149.113L488.092 157.898L487.403 157.238V156.549L487.316 156.606Z" fill="white"/>
<path fill-rule="evenodd" clip-rule="evenodd" d="M486.63 156.605L493.549 143.111C493.549 142.422 494.956 141.762 495.645 142.422C496.334 143.083 497.023 143.772 496.334 144.461V145.121L487.319 157.294H486.63V156.605Z" fill="white"/>
<path fill-rule="evenodd" clip-rule="evenodd" d="M485.986 156.605L487.364 141.763C487.33 141.482 487.361 141.197 487.455 140.93C487.549 140.663 487.704 140.422 487.907 140.224C488.109 140.027 488.355 139.879 488.624 139.793C488.894 139.706 489.18 139.682 489.459 139.724C490.148 139.724 490.837 141.074 490.837 141.763V142.423L486.675 156.605L485.986 157.294V156.605Z" fill="white"/>
<path fill-rule="evenodd" clip-rule="evenodd" d="M487.363 158.644C487.369 158.918 487.293 159.187 487.145 159.418C486.997 159.648 486.784 159.829 486.533 159.938C486.282 160.046 486.004 160.078 485.734 160.028C485.465 159.978 485.217 159.849 485.021 159.658C484.826 159.466 484.692 159.221 484.636 158.953C484.581 158.684 484.606 158.406 484.71 158.152C484.813 157.899 484.99 157.682 485.217 157.529C485.444 157.377 485.712 157.295 485.985 157.295C486.674 157.295 487.363 157.295 487.363 158.644Z" fill="#FA7F22"/>
<path fill-rule="evenodd" clip-rule="evenodd" d="M489.317 157.9C489.222 157.699 489.096 157.515 488.943 157.354C488.863 157.236 488.767 157.13 488.656 157.039C488.437 156.823 488.197 156.631 487.939 156.464L487.68 156.292C487.458 156.151 487.216 156.045 486.962 155.976C486.962 155.976 486.962 155.976 486.819 155.976H486.503C486.343 155.936 486.175 155.936 486.015 155.976C485.747 155.976 485.482 156.034 485.24 156.149H485.096L484.522 156.551L484.292 156.78C484.209 156.88 484.132 156.986 484.063 157.096C483.979 157.211 483.911 157.336 483.862 157.469C483.797 157.626 483.749 157.79 483.718 157.957C483.676 158.204 483.676 158.457 483.718 158.704C483.761 158.925 483.838 159.138 483.948 159.335C483.937 159.431 483.937 159.527 483.948 159.622C484.024 159.801 484.142 159.959 484.292 160.082C484.539 160.382 484.854 160.618 485.211 160.771C485.439 160.814 485.673 160.814 485.9 160.771C486.126 160.74 486.348 160.682 486.561 160.599C486.725 160.578 486.881 160.518 487.016 160.423C487.152 160.328 487.261 160.201 487.336 160.053C487.484 159.811 487.6 159.551 487.68 159.278C487.693 159.221 487.693 159.162 487.68 159.106C487.694 158.934 487.694 158.761 487.68 158.589C487.694 158.388 487.694 158.187 487.68 157.986H489.087C489.087 157.986 489.374 157.9 489.317 157.9ZM486.618 158.675L485.929 159.364V158.675H486.618Z" fill="white"/>
<path fill-rule="evenodd" clip-rule="evenodd" d="M452.015 115.413L461.029 127.586C461.718 128.246 461.029 129.595 460.312 130.284C460.141 130.414 459.941 130.5 459.729 130.535C459.517 130.57 459.3 130.553 459.097 130.485C458.893 130.417 458.709 130.3 458.561 130.145C458.412 129.991 458.304 129.802 458.245 129.595L451.326 116.102V115.413H452.015Z" fill="white"/>
<path fill-rule="evenodd" clip-rule="evenodd" d="M449.983 111.962L446.509 97.7792C445.82 96.4298 446.509 95.7408 447.198 94.9082C447.749 94.9058 448.294 95.0286 448.792 95.2673C449.289 95.506 449.726 95.8544 450.069 96.2863V96.9466L451.447 111.818L450.758 112.478L450.069 111.818L449.983 111.962Z" fill="white"/>
<path fill-rule="evenodd" clip-rule="evenodd" d="M449.234 112.713L440.908 99.8801C440.219 99.2198 440.908 98.5307 441.597 97.8704C441.72 97.7096 441.879 97.5794 442.061 97.4898C442.242 97.4001 442.442 97.3535 442.645 97.3535C442.848 97.3535 443.048 97.4001 443.229 97.4898C443.411 97.5794 443.57 97.7096 443.693 97.8704V98.5307L450.755 111.967L450.066 112.627L449.234 112.713Z" fill="white"/>
<path fill-rule="evenodd" clip-rule="evenodd" d="M449.268 112.709L436.78 104.613C436.445 104.244 436.259 103.763 436.259 103.264C436.259 102.765 436.445 102.284 436.78 101.915C436.78 101.226 438.186 101.226 439.651 101.226L449.957 111.963V112.623L449.268 112.709Z" fill="white"/>
<path fill-rule="evenodd" clip-rule="evenodd" d="M448.579 114.059L434.741 110.011C433.363 109.351 432.674 108.001 433.363 107.312C433.422 107.106 433.53 106.917 433.679 106.762C433.827 106.608 434.011 106.491 434.215 106.423C434.418 106.355 434.635 106.338 434.847 106.373C435.059 106.408 435.259 106.494 435.43 106.623L449.296 112.71V113.399L448.579 114.059Z" fill="white"/>
<path fill-rule="evenodd" clip-rule="evenodd" d="M448.578 114.057L434.051 115.406C432.673 115.406 431.984 114.746 431.984 114.057C431.984 112.707 432.673 112.047 433.362 112.047H434.051L448.578 113.396L449.295 114.057H448.578Z" fill="white"/>
<path fill-rule="evenodd" clip-rule="evenodd" d="M449.258 114.836L435.392 121.583C434.703 121.583 433.325 121.583 433.325 120.234C432.636 119.545 433.325 118.884 434.014 118.195L448.541 114.147H449.258V114.836Z" fill="white"/>
<path fill-rule="evenodd" clip-rule="evenodd" d="M449.952 115.412L438.87 126.322C438.47 126.663 437.961 126.851 437.435 126.851C436.908 126.851 436.399 126.663 435.999 126.322C435.664 125.952 435.479 125.471 435.479 124.972C435.479 124.473 435.664 123.993 435.999 123.623H436.688L449.263 114.838H449.952V115.498V115.412Z" fill="white"/>
<path fill-rule="evenodd" clip-rule="evenodd" d="M450.779 115.413L443.86 129.595C443.582 129.856 443.251 130.053 442.889 130.172C442.526 130.291 442.143 130.329 441.764 130.284C440.386 129.595 440.386 128.935 441.075 127.586L449.401 115.413H450.779Z" fill="white"/>
<path fill-rule="evenodd" clip-rule="evenodd" d="M451.33 116.102L449.952 130.945C449.263 131.634 448.546 132.323 447.857 132.323C447.578 132.366 447.293 132.343 447.024 132.256C446.756 132.17 446.512 132.021 446.311 131.823C446.11 131.625 445.958 131.383 445.868 131.116C445.777 130.848 445.75 130.564 445.79 130.284L449.952 115.413H450.785L451.474 116.102H451.33Z" fill="white"/>
<path fill-rule="evenodd" clip-rule="evenodd" d="M451.331 115.413L455.494 130.284C455.494 130.945 455.494 132.323 454.087 132.323C453.398 132.323 452.02 132.323 452.02 130.945L450.785 116.102L451.474 115.413H451.331Z" fill="white"/>
<path fill-rule="evenodd" clip-rule="evenodd" d="M452.701 114.838L465.132 123.451C465.292 123.565 465.422 123.716 465.512 123.89C465.602 124.065 465.649 124.259 465.649 124.455C465.649 124.652 465.602 124.846 465.512 125.021C465.422 125.195 465.292 125.346 465.132 125.46C464.443 126.81 463.754 126.81 463.065 126.149H462.376L451.983 115.326V114.838H452.701Z" fill="white"/>
<path fill-rule="evenodd" clip-rule="evenodd" d="M452.709 114.06L467.265 118.108C468.643 118.797 468.643 119.457 468.643 120.146C468.643 121.495 467.265 122.184 466.576 121.495L452.709 114.835V114.146V114.06Z" fill="white"/>
<path fill-rule="evenodd" clip-rule="evenodd" d="M452.709 113.4L468.011 111.965C468.543 111.985 469.049 112.202 469.431 112.573C469.813 112.944 470.043 113.443 470.078 113.974C470.078 114.664 469.389 115.324 468.7 116.013H468.011L452.767 113.974V113.4H452.709Z" fill="white"/>
<path fill-rule="evenodd" clip-rule="evenodd" d="M452.673 112.708L465.822 106.622C467.229 106.622 467.918 106.622 468.693 108C469.382 108.66 468.693 109.349 468.004 110.01H467.315L452.76 114.058L452.07 113.397L452.76 112.708H452.673Z" fill="white"/>
<path fill-rule="evenodd" clip-rule="evenodd" d="M452.07 111.965L463.152 101.83C463.273 101.67 463.429 101.54 463.608 101.45C463.787 101.36 463.985 101.313 464.186 101.313C464.386 101.313 464.584 101.36 464.764 101.45C464.943 101.54 465.099 101.67 465.219 101.83C465.908 102.491 465.908 103.84 465.219 103.84V104.529L452.76 112.625H452.07V111.965Z" fill="white"/>
<path fill-rule="evenodd" clip-rule="evenodd" d="M451.326 111.965L458.245 98.4434C458.307 98.2395 458.418 98.0537 458.568 97.9021C458.718 97.7504 458.902 97.6373 459.105 97.5724C459.308 97.5075 459.524 97.4928 459.734 97.5295C459.944 97.5661 460.143 97.6531 460.312 97.783C460.519 97.8299 460.712 97.9285 460.871 98.0696C461.031 98.2108 461.152 98.3899 461.223 98.5904C461.295 98.7909 461.315 99.0063 461.281 99.2165C461.247 99.4267 461.16 99.6249 461.029 99.7927V100.482L452.015 111.965L451.326 112.626V111.965Z" fill="white"/>
<path fill-rule="evenodd" clip-rule="evenodd" d="M450.785 111.961L452.164 97.0891C452.198 96.555 452.428 96.0521 452.809 95.6763C453.19 95.3005 453.696 95.0778 454.231 95.0508C455.637 95.7398 456.326 96.4288 455.637 97.0891V97.7782L451.331 111.961V112.621L450.785 111.961Z" fill="white"/>
<path fill-rule="evenodd" clip-rule="evenodd" d="M111.34 313.995C111.374 315.21 111.168 316.42 110.733 317.555C110.297 318.69 109.642 319.728 108.804 320.608C107.966 321.489 106.962 322.195 105.85 322.686C104.738 323.177 103.54 323.443 102.325 323.469C101.059 323.512 99.7967 323.298 98.6152 322.84C97.4337 322.382 96.3572 321.689 95.4505 320.804C94.5439 319.919 93.8258 318.859 93.3395 317.689C92.8533 316.519 92.609 315.262 92.6214 313.995C92.6235 312.763 92.8833 311.544 93.384 310.418C93.8848 309.292 94.6155 308.282 95.5292 307.455C96.4429 306.628 97.5195 306.001 98.6898 305.614C99.8602 305.228 101.098 305.09 102.325 305.21C103.504 305.155 104.682 305.342 105.786 305.761C106.889 306.18 107.895 306.821 108.74 307.645C109.585 308.469 110.252 309.458 110.7 310.55C111.147 311.642 111.365 312.815 111.34 313.995Z" fill="#FA7F22"/>
<path fill-rule="evenodd" clip-rule="evenodd" d="M82.9749 426.787C82.9161 428.001 82.6183 429.192 82.0984 430.291C81.5786 431.391 80.8471 432.376 79.9457 433.192C79.0443 434.008 77.9908 434.639 76.8455 435.047C75.7002 435.455 74.4856 435.634 73.2712 435.572C70.924 435.558 68.6735 434.635 66.9924 432.997C65.3114 431.359 64.3308 429.133 64.2565 426.787C64.226 425.574 64.4352 424.367 64.8721 423.236C65.309 422.104 65.965 421.07 66.8026 420.192C67.6401 419.315 68.6427 418.611 69.7527 418.122C70.8627 417.633 72.0584 417.367 73.2712 417.341C74.5363 417.295 75.7976 417.505 76.979 417.96C78.1603 418.415 79.2371 419.105 80.1443 419.988C81.0514 420.87 81.77 421.928 82.2565 423.097C82.7431 424.266 82.9874 425.521 82.9749 426.787Z" fill="#FA7F22"/>
<path fill-rule="evenodd" clip-rule="evenodd" d="M116.173 430.184C116.106 432.528 115.131 434.754 113.455 436.393C111.779 438.032 109.531 438.956 107.187 438.97C105.972 439.031 104.758 438.853 103.613 438.445C102.467 438.036 101.414 437.406 100.512 436.59C99.611 435.774 98.8794 434.788 98.3596 433.689C97.8398 432.59 97.5419 431.399 97.4831 430.184C97.4707 428.917 97.715 427.661 98.2013 426.491C98.6875 425.321 99.4056 424.261 100.312 423.376C101.219 422.491 102.295 421.798 103.477 421.34C104.658 420.882 105.92 420.668 107.187 420.71C108.4 420.74 109.595 421.009 110.703 421.502C111.812 421.994 112.812 422.701 113.647 423.581C114.482 424.462 115.135 425.498 115.568 426.631C116.002 427.764 116.207 428.972 116.173 430.184Z" fill="#FA7F22"/>
<path fill-rule="evenodd" clip-rule="evenodd" d="M152.859 431.525C152.8 432.74 152.502 433.931 151.982 435.03C151.463 436.129 150.731 437.115 149.83 437.931C148.928 438.747 147.875 439.377 146.729 439.786C145.584 440.194 144.37 440.372 143.155 440.31C140.811 440.296 138.563 439.373 136.887 437.734C135.211 436.095 134.236 433.869 134.169 431.525C134.135 430.313 134.34 429.105 134.774 427.972C135.207 426.839 135.86 425.802 136.695 424.922C137.53 424.042 138.53 423.335 139.639 422.843C140.747 422.35 141.942 422.081 143.155 422.051C144.422 422.009 145.684 422.223 146.865 422.681C148.047 423.139 149.123 423.831 150.03 424.717C150.936 425.602 151.655 426.661 152.141 427.832C152.627 429.002 152.871 430.258 152.859 431.525Z" fill="#FA7F22"/>
<path fill-rule="evenodd" clip-rule="evenodd" d="M172.624 479.21C171.065 480.244 169.24 480.802 167.37 480.818C166.106 480.864 164.846 480.654 163.666 480.199C162.487 479.743 161.412 479.053 160.507 478.17C159.602 477.286 158.886 476.228 158.403 475.06C157.919 473.891 157.679 472.637 157.695 471.372C157.745 469.473 158.407 467.64 159.58 466.145C160.754 464.651 162.378 463.574 164.212 463.075C166.527 468.695 169.342 474.094 172.624 479.21Z" fill="white"/>
<path fill-rule="evenodd" clip-rule="evenodd" d="M143.852 470.826C143.872 472.093 143.634 473.351 143.153 474.523C142.671 475.695 141.956 476.756 141.05 477.643C140.145 478.529 139.069 479.222 137.887 479.679C136.705 480.136 135.443 480.347 134.177 480.3C132.961 480.274 131.763 480.008 130.651 479.517C129.539 479.026 128.535 478.32 127.698 477.439C126.86 476.559 126.204 475.521 125.769 474.386C125.334 473.251 125.128 472.041 125.162 470.826C125.272 468.508 126.27 466.321 127.948 464.718C129.626 463.115 131.856 462.218 134.177 462.214C136.598 462.088 138.971 462.921 140.782 464.533C142.594 466.146 143.696 468.407 143.852 470.826Z" fill="white"/>
<path fill-rule="evenodd" clip-rule="evenodd" d="M175.744 313.331C175.655 315.852 174.596 318.242 172.788 320.002C170.981 321.762 168.563 322.756 166.04 322.776C163.632 322.612 161.374 321.55 159.71 319.802C158.046 318.053 157.099 315.744 157.054 313.331C157.016 312.117 157.219 310.908 157.651 309.773C158.083 308.639 158.735 307.601 159.571 306.72C160.407 305.839 161.409 305.132 162.519 304.641C163.629 304.149 164.826 303.883 166.04 303.857C167.308 303.81 168.571 304.022 169.755 304.478C170.938 304.935 172.016 305.627 172.924 306.513C173.831 307.399 174.549 308.46 175.034 309.632C175.519 310.804 175.76 312.063 175.744 313.331Z" fill="#FA7F22"/>
<path fill-rule="evenodd" clip-rule="evenodd" d="M528.308 65.4265C528.328 66.6933 528.09 67.9511 527.609 69.123C527.127 70.2949 526.412 71.3565 525.507 72.243C524.601 73.1294 523.525 73.8222 522.343 74.2792C521.162 74.7361 519.899 74.9475 518.633 74.9005C517.418 74.8745 516.22 74.6083 515.108 74.1173C513.996 73.6263 512.992 72.9202 512.154 72.0396C511.316 71.159 510.661 70.1213 510.225 68.9863C509.79 67.8514 509.584 66.6415 509.618 65.4265C509.692 63.0804 510.673 60.8544 512.354 59.2162C514.035 57.578 516.286 56.6551 518.633 56.6414C521.081 56.5244 523.475 57.384 525.289 59.0313C527.103 60.6786 528.189 62.9788 528.308 65.4265Z" fill="#FA7F22"/>
<path fill-rule="evenodd" clip-rule="evenodd" d="M564.179 75.5584C564.135 77.9791 563.184 80.2951 561.515 82.0491C559.846 83.8031 557.58 84.8676 555.165 85.0325C552.637 85.0115 550.215 84.0137 548.407 82.2478C546.598 80.4819 545.542 78.0849 545.461 75.5584C545.437 74.2854 545.672 73.0208 546.154 71.842C546.635 70.6632 547.352 69.595 548.26 68.7028C549.168 67.8105 550.249 67.113 551.436 66.6529C552.624 66.1928 553.892 65.9798 555.165 66.0269C556.377 66.053 557.573 66.3182 558.683 66.8074C559.793 67.2967 560.796 68.0002 561.633 68.8777C562.471 69.7553 563.127 70.7895 563.564 71.9212C564.001 73.0528 564.21 74.2596 564.179 75.4723V75.5584Z" fill="#FA7F22"/>
<path fill-rule="evenodd" clip-rule="evenodd" d="M559.383 110.011C559.414 111.224 559.205 112.431 558.768 113.562C558.331 114.694 557.675 115.728 556.837 116.606C556 117.483 554.997 118.187 553.887 118.676C552.777 119.165 551.581 119.43 550.369 119.457C549.105 119.503 547.845 119.293 546.665 118.838C545.485 118.382 544.41 117.692 543.505 116.809C542.601 115.925 541.885 114.867 541.401 113.699C540.918 112.53 540.677 111.276 540.694 110.011C540.623 108.74 540.813 107.469 541.25 106.274C541.688 105.079 542.365 103.985 543.24 103.061C544.114 102.136 545.169 101.4 546.338 100.897C547.506 100.393 548.766 100.134 550.038 100.134C551.311 100.134 552.571 100.393 553.739 100.897C554.908 101.4 555.962 102.136 556.837 103.061C557.712 103.985 558.389 105.079 558.827 106.274C559.264 107.469 559.454 108.74 559.383 110.011Z" fill="#FA7F22"/>
<path fill-rule="evenodd" clip-rule="evenodd" d="M599.539 105.274C599.573 106.489 599.367 107.699 598.932 108.834C598.497 109.969 597.841 111.007 597.003 111.887C596.166 112.768 595.162 113.474 594.05 113.965C592.938 114.456 591.74 114.722 590.524 114.748C589.238 114.819 587.951 114.627 586.742 114.184C585.533 113.74 584.426 113.055 583.491 112.17C582.555 111.284 581.81 110.217 581.301 109.034C580.792 107.851 580.529 106.577 580.529 105.289C580.529 104 580.792 102.726 581.301 101.543C581.81 100.36 582.555 99.2929 583.491 98.4075C584.426 97.5221 585.533 96.8368 586.742 96.3934C587.951 95.9501 589.238 95.7579 590.524 95.8288C591.737 95.8549 592.933 96.1201 594.043 96.6093C595.153 97.0986 596.156 97.8021 596.993 98.6796C597.831 99.5572 598.487 100.591 598.924 101.723C599.36 102.855 599.57 104.061 599.539 105.274Z" fill="#FA7F22"/>
<path fill-rule="evenodd" clip-rule="evenodd" d="M638.31 127.577C638.251 128.792 637.953 129.982 637.434 131.082C636.914 132.181 636.182 133.167 635.281 133.983C634.38 134.799 633.326 135.429 632.181 135.837C631.035 136.246 629.821 136.424 628.606 136.362C626.259 136.348 624.009 135.426 622.328 133.787C620.647 132.149 619.666 129.923 619.592 127.577C619.557 126.362 619.764 125.152 620.199 124.017C620.634 122.882 621.289 121.845 622.127 120.964C622.965 120.083 623.969 119.377 625.081 118.886C626.193 118.395 627.391 118.129 628.606 118.103C629.873 118.06 631.135 118.274 632.316 118.733C633.498 119.191 634.574 119.883 635.481 120.768C636.388 121.654 637.106 122.713 637.592 123.883C638.078 125.053 638.322 126.31 638.31 127.577Z" fill="#FA7F22"/>
<path fill-rule="evenodd" clip-rule="evenodd" d="M600.207 158.643C600.275 160.575 599.765 162.484 598.741 164.125C597.718 165.765 596.227 167.062 594.461 167.85C592.695 168.637 590.734 168.879 588.83 168.545C586.926 168.21 585.164 167.314 583.773 165.972C582.381 164.63 581.422 162.902 581.019 161.011C580.615 159.12 580.786 157.151 581.51 155.358C582.233 153.565 583.475 152.028 585.078 150.946C586.68 149.864 588.569 149.285 590.503 149.284C591.768 149.237 593.029 149.447 594.211 149.902C595.392 150.357 596.469 151.047 597.376 151.93C598.283 152.813 599.002 153.871 599.488 155.039C599.975 156.208 600.219 157.463 600.207 158.729V158.643Z" fill="#FA7F22"/>
<path fill-rule="evenodd" clip-rule="evenodd" d="M560.697 199.839C560.562 202.318 559.483 204.651 557.68 206.357C555.878 208.064 553.49 209.016 551.008 209.016C548.525 209.016 546.138 208.064 544.335 206.357C542.533 204.651 541.453 202.318 541.318 199.839C541.546 197.427 542.665 195.187 544.457 193.556C546.249 191.925 548.585 191.021 551.008 191.021C553.431 191.021 555.766 191.925 557.558 193.556C559.35 195.187 560.469 197.427 560.697 199.839Z" fill="#FA7F22"/>
<path fill-rule="evenodd" clip-rule="evenodd" d="M520.57 234.983C519.865 237.385 518.235 239.409 516.039 240.61C513.842 241.811 511.259 242.089 508.856 241.385C506.454 240.681 504.43 239.051 503.229 236.854C502.029 234.658 501.75 232.074 502.454 229.672C503.279 227.355 504.955 225.44 507.141 224.315C509.328 223.189 511.86 222.939 514.225 223.614C515.402 223.936 516.503 224.492 517.46 225.25C518.416 226.009 519.21 226.953 519.792 228.026C520.374 229.099 520.733 230.278 520.847 231.494C520.961 232.709 520.827 233.935 520.455 235.098L520.57 234.983Z" fill="#FA7F22"/>
<path fill-rule="evenodd" clip-rule="evenodd" d="M478.347 271.447C478.025 272.667 477.463 273.811 476.695 274.813C475.927 275.814 474.967 276.653 473.872 277.281C472.777 277.908 471.568 278.312 470.316 278.469C469.063 278.626 467.792 278.532 466.576 278.194C465.059 277.588 463.682 276.68 462.528 275.524C461.571 274.67 460.817 273.614 460.32 272.432C459.824 271.25 459.597 269.972 459.657 268.691C459.692 267.783 459.886 266.889 460.232 266.05C460.898 263.776 462.438 261.858 464.515 260.718C466.592 259.577 469.037 259.306 471.313 259.963C472.548 260.22 473.718 260.728 474.749 261.454C475.781 262.18 476.653 263.109 477.312 264.185C477.971 265.261 478.403 266.46 478.581 267.709C478.759 268.958 478.679 270.23 478.347 271.447Z" fill="#FA7F22"/>
<path fill-rule="evenodd" clip-rule="evenodd" d="M558.714 276.174C557.884 278.486 556.207 280.398 554.022 281.522C551.838 282.646 549.308 282.9 546.943 282.232C545.748 281.94 544.626 281.402 543.651 280.651C542.676 279.9 541.869 278.953 541.282 277.871C540.695 276.789 540.341 275.597 540.243 274.37C540.146 273.143 540.306 271.909 540.713 270.748C541.033 269.526 541.592 268.379 542.359 267.376C543.127 266.372 544.087 265.532 545.183 264.904C546.279 264.276 547.489 263.872 548.743 263.717C549.996 263.562 551.268 263.659 552.484 264.001C554.901 264.822 556.904 266.553 558.067 268.825C559.23 271.097 559.462 273.733 558.714 276.174Z" fill="white"/>
<path fill-rule="evenodd" clip-rule="evenodd" d="M597.445 241.73C596.62 244.048 594.945 245.966 592.76 247.095C590.575 248.225 588.042 248.483 585.674 247.817C584.483 247.518 583.367 246.974 582.396 246.221C581.426 245.469 580.623 244.522 580.037 243.443C579.451 242.363 579.096 241.174 578.994 239.95C578.892 238.726 579.045 237.495 579.444 236.333C579.732 235.077 580.275 233.893 581.039 232.855C581.803 231.817 582.772 230.947 583.886 230.299C585 229.651 586.235 229.238 587.515 229.087C588.795 228.935 590.092 229.048 591.327 229.418C592.561 229.788 593.707 230.408 594.692 231.239C595.677 232.069 596.482 233.094 597.055 234.248C597.629 235.402 597.959 236.662 598.026 237.949C598.093 239.236 597.895 240.523 597.445 241.73Z" fill="white"/>
<path fill-rule="evenodd" clip-rule="evenodd" d="M634.145 209.98C633.272 212.266 631.571 214.14 629.381 215.231C627.191 216.322 624.67 216.551 622.319 215.872C619.969 215.193 617.958 213.656 616.687 211.565C615.416 209.474 614.976 206.982 615.456 204.583C616.275 202.261 617.948 200.339 620.135 199.208C622.322 198.077 624.858 197.823 627.226 198.496C628.451 198.767 629.608 199.283 630.627 200.015C631.645 200.747 632.504 201.678 633.152 202.752C633.799 203.827 634.221 205.021 634.392 206.264C634.562 207.506 634.479 208.771 634.145 209.98Z" fill="white"/>
<path fill-rule="evenodd" clip-rule="evenodd" d="M676.368 174.86C676.02 176.049 675.435 177.154 674.646 178.11C673.858 179.065 672.884 179.849 671.783 180.416C670.682 180.983 669.477 181.319 668.241 181.406C667.006 181.492 665.766 181.326 664.597 180.918C663.404 180.623 662.285 180.082 661.312 179.33C660.339 178.578 659.534 177.632 658.948 176.551C658.362 175.47 658.007 174.279 657.907 173.054C657.807 171.829 657.964 170.596 658.367 169.434C659.192 167.118 660.868 165.202 663.054 164.077C665.241 162.952 667.773 162.702 670.138 163.377C672.469 164.101 674.424 165.706 675.588 167.852C676.752 169.997 677.032 172.512 676.368 174.86Z" fill="white"/>
<path fill-rule="evenodd" clip-rule="evenodd" d="M751.173 195.215C750.337 197.454 748.681 199.292 746.541 200.356C744.4 201.419 741.935 201.629 739.646 200.943C737.356 200.256 735.413 198.725 734.211 196.659C733.009 194.593 732.637 192.147 733.172 189.818C733.991 187.497 735.666 185.577 737.854 184.451C740.042 183.325 742.578 183.078 744.943 183.76C746.155 184.022 747.297 184.543 748.29 185.287C749.282 186.031 750.103 186.981 750.694 188.072C751.286 189.162 751.635 190.367 751.717 191.605C751.8 192.843 751.614 194.084 751.173 195.244V195.215Z" fill="#FA7F22"/>
<path fill-rule="evenodd" clip-rule="evenodd" d="M706.895 241.734C706.113 244.121 704.474 246.132 702.294 247.379C700.114 248.625 697.548 249.018 695.095 248.481C690.272 246.443 686.798 241.734 688.865 236.997C689.152 235.762 689.69 234.6 690.445 233.581C691.201 232.563 692.157 231.711 693.256 231.078C694.354 230.446 695.571 230.046 696.831 229.903C698.091 229.761 699.366 229.879 700.579 230.25C702.87 231.034 704.783 232.649 705.942 234.775C707.101 236.901 707.42 239.384 706.837 241.734H706.895Z" fill="#FA7F22"/>
<path fill-rule="evenodd" clip-rule="evenodd" d="M665.291 271.437C664.419 273.906 662.662 275.962 660.36 277.209C658.058 278.455 655.375 278.803 652.831 278.184C650.5 277.46 648.545 275.854 647.381 273.709C646.217 271.564 645.937 269.049 646.601 266.7C646.92 265.478 647.48 264.331 648.247 263.328C649.015 262.324 649.974 261.484 651.07 260.856C652.166 260.228 653.377 259.824 654.63 259.669C655.884 259.514 657.156 259.611 658.372 259.954C659.599 260.22 660.758 260.735 661.779 261.465C662.8 262.196 663.661 263.128 664.308 264.203C664.956 265.278 665.378 266.475 665.547 267.719C665.716 268.963 665.628 270.228 665.291 271.437Z" fill="#FA7F22"/>
<path fill-rule="evenodd" clip-rule="evenodd" d="M618.916 307.902C618.097 310.223 616.423 312.145 614.236 313.276C612.049 314.407 609.514 314.662 607.146 313.988C604.815 313.264 602.859 311.658 601.695 309.513C600.532 307.368 600.252 304.853 600.916 302.504C601.735 300.184 603.41 298.264 605.598 297.138C607.786 296.011 610.322 295.764 612.686 296.447C613.864 296.768 614.964 297.325 615.921 298.083C616.878 298.841 617.671 299.785 618.253 300.858C618.835 301.931 619.194 303.111 619.308 304.326C619.422 305.542 619.289 306.768 618.916 307.93V307.902Z" fill="#FA7F22"/>
<path fill-rule="evenodd" clip-rule="evenodd" d="M581.525 339.645C581.287 340.841 580.803 341.975 580.104 342.974C579.405 343.973 578.506 344.817 577.465 345.451C576.423 346.085 575.261 346.496 574.053 346.658C572.844 346.82 571.615 346.729 570.443 346.392C569.188 346.11 568.005 345.569 566.972 344.802C565.939 344.036 565.077 343.062 564.443 341.942C564.746 338.849 564.746 335.734 564.443 332.64C565.539 330.814 567.197 329.391 569.168 328.584C571.139 327.777 573.319 327.629 575.381 328.162C576.565 328.471 577.671 329.021 578.632 329.778C579.593 330.535 580.386 331.482 580.963 332.561C581.54 333.639 581.888 334.825 581.985 336.044C582.081 337.264 581.925 338.49 581.525 339.645Z" fill="#FA7F22"/>
<path d="M61.4732 286.974C74.0468 286.974 84.2397 276.781 84.2397 264.208C84.2397 251.634 74.0468 241.441 61.4732 241.441C48.8996 241.441 38.7067 251.634 38.7067 264.208C38.7067 276.781 48.8996 286.974 61.4732 286.974Z" fill="#FA7F22"/>
<path d="M49.7975 372.381C62.3711 372.381 72.5639 362.188 72.5639 349.614C72.5639 337.041 62.3711 326.848 49.7975 326.848C37.2239 326.848 27.031 337.041 27.031 349.614C27.031 362.188 37.2239 372.381 49.7975 372.381Z" fill="#FA7F22"/>
<path d="M115.422 393.485C127.996 393.485 138.188 383.292 138.188 370.719C138.188 358.145 127.996 347.952 115.422 347.952C102.848 347.952 92.6555 358.145 92.6555 370.719C92.6555 383.292 102.848 393.485 115.422 393.485Z" fill="#FA7F22"/>
<path d="M126.548 295.212C139.121 295.212 149.314 285.019 149.314 272.445C149.314 259.872 139.121 249.679 126.548 249.679C113.974 249.679 103.781 259.872 103.781 272.445C103.781 285.019 113.974 295.212 126.548 295.212Z" fill="#FA7F22"/>
<path d="M426.322 238.655C437.31 238.655 446.218 229.748 446.218 218.76C446.218 207.772 437.31 198.864 426.322 198.864C415.334 198.864 406.427 207.772 406.427 218.76C406.427 229.748 415.334 238.655 426.322 238.655Z" fill="#FA7F22"/>
<path d="M659.57 376.438C670.558 376.438 679.466 367.53 679.466 356.542C679.466 345.554 670.558 336.646 659.57 336.646C648.582 336.646 639.674 345.554 639.674 356.542C639.674 367.53 648.582 376.438 659.57 376.438Z" fill="#FA7F22"/>
<path d="M716.521 326.816C727.509 326.816 736.417 317.909 736.417 306.921C736.417 295.933 727.509 287.025 716.521 287.025C705.533 287.025 696.626 295.933 696.626 306.921C696.626 317.909 705.533 326.816 716.521 326.816Z" fill="#FA7F22"/>
<path d="M762.934 370.373C773.922 370.373 782.83 361.466 782.83 350.478C782.83 339.49 773.922 330.582 762.934 330.582C751.946 330.582 743.039 339.49 743.039 350.478C743.039 361.466 751.946 370.373 762.934 370.373Z" fill="#FA7F22"/>
<path d="M705.625 422.967C716.613 422.967 725.521 414.059 725.521 403.071C725.521 392.083 716.613 383.176 705.625 383.176C694.637 383.176 685.73 392.083 685.73 403.071C685.73 414.059 694.637 422.967 705.625 422.967Z" fill="#FA7F22"/>
<path d="M620.455 390.444C620.462 392.071 620.259 393.692 619.852 395.267C613.599 385.842 605.715 377.607 596.569 370.951C597.892 370.685 599.239 370.55 600.588 370.549C603.2 370.549 605.786 371.064 608.198 372.064C610.61 373.064 612.801 374.53 614.647 376.378C616.492 378.226 617.955 380.419 618.951 382.833C619.948 385.246 620.459 387.833 620.455 390.444Z" fill="#FA7F22"/>
<path d="M379.997 202.828C390.985 202.828 399.892 193.921 399.892 182.933C399.892 171.945 390.985 163.037 379.997 163.037C369.009 163.037 360.101 171.945 360.101 182.933C360.101 193.921 369.009 202.828 379.997 202.828Z" fill="#FA7F22"/>
<path d="M198.914 48.1719C209.902 48.1719 218.81 39.2644 218.81 28.2764C218.81 17.2884 209.902 8.38086 198.914 8.38086C187.926 8.38086 179.018 17.2884 179.018 28.2764C179.018 39.2644 187.926 48.1719 198.914 48.1719Z" fill="#FA7F22"/>
<path d="M249.836 84.6612C260.824 84.6612 269.732 75.7537 269.732 64.7656C269.732 53.7776 260.824 44.8701 249.836 44.8701C238.848 44.8701 229.941 53.7776 229.941 64.7656C229.941 75.7537 238.848 84.6612 249.836 84.6612Z" fill="#FA7F22"/>
<path d="M295.523 115.031C306.511 115.031 315.418 106.124 315.418 95.1358C315.418 84.1478 306.511 75.2402 295.523 75.2402C284.535 75.2402 275.627 84.1478 275.627 95.1358C275.627 106.124 284.535 115.031 295.523 115.031Z" fill="#FA7F22"/>
<path d="M335.003 157.926C345.991 157.926 354.899 149.018 354.899 138.03C354.899 127.042 345.991 118.135 335.003 118.135C324.015 118.135 315.108 127.042 315.108 138.03C315.108 149.018 324.015 157.926 335.003 157.926Z" fill="#FA7F22"/>
<path d="M234.919 308.3C228.063 315.514 222.844 324.121 219.617 333.536C217.306 334.321 214.881 334.719 212.44 334.713C208.093 334.711 203.838 333.466 200.176 331.123C196.515 328.78 193.601 325.438 191.778 321.492C189.955 317.546 189.301 313.161 189.891 308.855C190.481 304.548 192.292 300.501 195.109 297.191C197.926 293.88 201.632 291.446 205.789 290.175C209.946 288.904 214.379 288.849 218.566 290.018C222.753 291.186 226.517 293.528 229.415 296.768C232.313 300.008 234.223 304.009 234.919 308.3Z" fill="#FA7F22"/>
<path d="M310.156 254.359C310.17 254.425 310.17 254.494 310.156 254.56C310.168 256.645 309.848 258.719 309.208 260.704C309.095 260.779 308.989 260.866 308.893 260.962C308.347 261.46 307.83 261.987 307.342 262.541C306.599 263.451 305.918 264.41 305.304 265.412C304.751 266.27 304.252 267.162 303.811 268.082C303.467 268.857 303.122 269.632 302.864 270.407C299.843 272.976 296.152 274.626 292.224 275.165C288.297 275.704 284.297 275.109 280.697 273.449C277.096 271.789 274.046 269.134 271.905 265.798C269.764 262.461 268.622 258.582 268.613 254.617C268.599 254.551 268.599 254.483 268.613 254.416C268.613 254.416 268.613 254.416 268.613 254.244C268.601 254.139 268.601 254.033 268.613 253.928C268.597 253.824 268.597 253.717 268.613 253.613C268.658 251.654 269.016 249.715 269.676 247.871C269.676 247.871 269.676 247.555 269.819 247.411C269.854 247.282 269.902 247.157 269.963 247.038C270.017 246.871 270.085 246.707 270.164 246.55C270.899 244.838 271.865 243.234 273.035 241.784C273.293 241.44 273.58 241.124 273.867 240.808C276.991 237.323 281.202 234.998 285.815 234.211C290.429 233.424 295.172 234.221 299.275 236.473C299.533 236.645 299.792 236.789 300.05 236.99C301.764 238.013 303.305 239.302 304.615 240.808C304.615 240.808 305.218 241.497 305.505 241.87C306.707 243.414 307.674 245.126 308.376 246.952V247.239V247.469L308.548 247.986C309.207 249.83 309.566 251.769 309.61 253.727C309.626 253.832 309.626 253.939 309.61 254.043C309.623 254.148 309.623 254.254 309.61 254.359C309.61 254.359 310.156 254.302 310.156 254.359Z" fill="white"/>
<path d="M485.988 176.928C496.246 176.928 504.563 168.612 504.563 158.353C504.563 148.095 496.246 139.778 485.988 139.778C475.729 139.778 467.413 148.095 467.413 158.353C467.413 168.612 475.729 176.928 485.988 176.928Z" fill="white"/>
<path d="M664.131 489.947C674.39 489.947 682.706 481.63 682.706 471.372C682.706 461.113 674.39 452.797 664.131 452.797C653.873 452.797 645.556 461.113 645.556 471.372C645.556 481.63 653.873 489.947 664.131 489.947Z" fill="white"/>
<path d="M733.168 476.049C745.456 476.049 755.418 466.088 755.418 453.799C755.418 441.511 745.456 431.55 733.168 431.55C720.88 431.55 710.919 441.511 710.919 453.799C710.919 466.088 720.88 476.049 733.168 476.049Z" fill="white"/>
<path d="M450.647 132.223C460.906 132.223 469.222 123.907 469.222 113.648C469.222 103.39 460.906 95.0732 450.647 95.0732C440.389 95.0732 432.073 103.39 432.073 113.648C432.073 123.907 440.389 132.223 450.647 132.223Z" fill="white"/>
<path d="M418.802 90.7738C429.061 90.7738 437.377 82.4576 437.377 72.1989C437.377 61.9403 429.061 53.624 418.802 53.624C408.543 53.624 400.227 61.9403 400.227 72.1989C400.227 82.4576 408.543 90.7738 418.802 90.7738Z" fill="white"/>
<path d="M384.142 48.1967C394.401 48.1967 402.717 39.8804 402.717 29.6218C402.717 19.3631 394.401 11.0469 384.142 11.0469C373.883 11.0469 365.567 19.3631 365.567 29.6218C365.567 39.8804 373.883 48.1967 384.142 48.1967Z" fill="white"/>
<path d="M243.689 236.157C255.168 236.157 264.474 226.851 264.474 215.371C264.474 203.892 255.168 194.586 243.689 194.586C232.209 194.586 222.903 203.892 222.903 215.371C222.903 226.851 232.209 236.157 243.689 236.157Z" fill="white"/>
<path d="M186.662 197.66C198.141 197.66 207.447 188.354 207.447 176.874C207.447 165.395 198.141 156.089 186.662 156.089C175.182 156.089 165.876 165.395 165.876 176.874C165.876 188.354 175.182 197.66 186.662 197.66Z" fill="white"/>
<path d="M126.725 157.808C138.205 157.808 147.511 148.502 147.511 137.023C147.511 125.543 138.205 116.237 126.725 116.237C115.246 116.237 105.94 125.543 105.94 137.023C105.94 148.502 115.246 157.808 126.725 157.808Z" fill="white"/>
<path d="M213.806 363.367C213.634 367.071 213.806 369.281 213.806 369.281C204.491 370.859 195.657 374.53 187.967 380.018C186.044 381.368 184.264 382.889 182.628 384.181C182.487 383.183 182.42 382.175 182.427 381.167C182.427 375.129 184.825 369.338 189.095 365.069C193.364 360.799 199.155 358.4 205.193 358.4C208.291 358.399 211.358 359.024 214.208 360.238C213.921 361.386 213.835 362.42 213.806 363.367Z" fill="#FA7F22"/>
</svg>
